%TF.GenerationSoftware,KiCad,Pcbnew,(6.0.5)*%
%TF.CreationDate,2023-07-06T17:20:31+08:00*%
%TF.ProjectId,compare,636f6d70-6172-4652-9e6b-696361645f70,rev?*%
%TF.SameCoordinates,Original*%
%TF.FileFunction,Legend,Top*%
%TF.FilePolarity,Positive*%
%FSLAX46Y46*%
G04 Gerber Fmt 4.6, Leading zero omitted, Abs format (unit mm)*
G04 Created by KiCad (PCBNEW (6.0.5)) date 2023-07-06 17:20:31*
%MOMM*%
%LPD*%
G01*
G04 APERTURE LIST*
%ADD10C,0.150000*%
%ADD11C,0.120000*%
G04 APERTURE END LIST*
D10*
X117776761Y-127722380D02*
X118110095Y-128722380D01*
X118443428Y-127722380D01*
X118776761Y-128722380D02*
X118776761Y-127722380D01*
X119252952Y-128722380D02*
X119252952Y-127722380D01*
X119824380Y-128722380D01*
X119824380Y-127722380D01*
X116125904Y-101814380D02*
X116459238Y-102814380D01*
X116792571Y-101814380D01*
X117316380Y-101814380D02*
X117506857Y-101814380D01*
X117602095Y-101862000D01*
X117697333Y-101957238D01*
X117744952Y-102147714D01*
X117744952Y-102481047D01*
X117697333Y-102671523D01*
X117602095Y-102766761D01*
X117506857Y-102814380D01*
X117316380Y-102814380D01*
X117221142Y-102766761D01*
X117125904Y-102671523D01*
X117078285Y-102481047D01*
X117078285Y-102147714D01*
X117125904Y-101957238D01*
X117221142Y-101862000D01*
X117316380Y-101814380D01*
X118173523Y-101814380D02*
X118173523Y-102623904D01*
X118221142Y-102719142D01*
X118268761Y-102766761D01*
X118364000Y-102814380D01*
X118554476Y-102814380D01*
X118649714Y-102766761D01*
X118697333Y-102719142D01*
X118744952Y-102623904D01*
X118744952Y-101814380D01*
X119078285Y-101814380D02*
X119649714Y-101814380D01*
X119364000Y-102814380D02*
X119364000Y-101814380D01*
X120506857Y-102814380D02*
X119935428Y-102814380D01*
X120221142Y-102814380D02*
X120221142Y-101814380D01*
X120125904Y-101957238D01*
X120030666Y-102052476D01*
X119935428Y-102100095D01*
X118110095Y-122436000D02*
X118014857Y-122388380D01*
X117872000Y-122388380D01*
X117729142Y-122436000D01*
X117633904Y-122531238D01*
X117586285Y-122626476D01*
X117538666Y-122816952D01*
X117538666Y-122959809D01*
X117586285Y-123150285D01*
X117633904Y-123245523D01*
X117729142Y-123340761D01*
X117872000Y-123388380D01*
X117967238Y-123388380D01*
X118110095Y-123340761D01*
X118157714Y-123293142D01*
X118157714Y-122959809D01*
X117967238Y-122959809D01*
X118586285Y-123388380D02*
X118586285Y-122388380D01*
X119157714Y-123388380D01*
X119157714Y-122388380D01*
X119633904Y-123388380D02*
X119633904Y-122388380D01*
X119872000Y-122388380D01*
X120014857Y-122436000D01*
X120110095Y-122531238D01*
X120157714Y-122626476D01*
X120205333Y-122816952D01*
X120205333Y-122959809D01*
X120157714Y-123150285D01*
X120110095Y-123245523D01*
X120014857Y-123340761D01*
X119872000Y-123388380D01*
X119633904Y-123388380D01*
X118364095Y-93226000D02*
X118268857Y-93178380D01*
X118126000Y-93178380D01*
X117983142Y-93226000D01*
X117887904Y-93321238D01*
X117840285Y-93416476D01*
X117792666Y-93606952D01*
X117792666Y-93749809D01*
X117840285Y-93940285D01*
X117887904Y-94035523D01*
X117983142Y-94130761D01*
X118126000Y-94178380D01*
X118221238Y-94178380D01*
X118364095Y-94130761D01*
X118411714Y-94083142D01*
X118411714Y-93749809D01*
X118221238Y-93749809D01*
X118840285Y-94178380D02*
X118840285Y-93178380D01*
X119411714Y-94178380D01*
X119411714Y-93178380D01*
X119887904Y-94178380D02*
X119887904Y-93178380D01*
X120126000Y-93178380D01*
X120268857Y-93226000D01*
X120364095Y-93321238D01*
X120411714Y-93416476D01*
X120459333Y-93606952D01*
X120459333Y-93749809D01*
X120411714Y-93940285D01*
X120364095Y-94035523D01*
X120268857Y-94130761D01*
X120126000Y-94178380D01*
X119887904Y-94178380D01*
X117856095Y-61984000D02*
X117760857Y-61936380D01*
X117618000Y-61936380D01*
X117475142Y-61984000D01*
X117379904Y-62079238D01*
X117332285Y-62174476D01*
X117284666Y-62364952D01*
X117284666Y-62507809D01*
X117332285Y-62698285D01*
X117379904Y-62793523D01*
X117475142Y-62888761D01*
X117618000Y-62936380D01*
X117713238Y-62936380D01*
X117856095Y-62888761D01*
X117903714Y-62841142D01*
X117903714Y-62507809D01*
X117713238Y-62507809D01*
X118332285Y-62936380D02*
X118332285Y-61936380D01*
X118903714Y-62936380D01*
X118903714Y-61936380D01*
X119379904Y-62936380D02*
X119379904Y-61936380D01*
X119618000Y-61936380D01*
X119760857Y-61984000D01*
X119856095Y-62079238D01*
X119903714Y-62174476D01*
X119951333Y-62364952D01*
X119951333Y-62507809D01*
X119903714Y-62698285D01*
X119856095Y-62793523D01*
X119760857Y-62888761D01*
X119618000Y-62936380D01*
X119379904Y-62936380D01*
X0Y0D02*
X15000000Y0D01*
X15000000Y0D02*
X15000000Y-12000000D01*
X15000000Y-12000000D02*
X0Y-12000000D01*
X0Y-12000000D02*
X0Y0D01*
%TO.C,R10*%
X120946942Y-71597779D02*
X120613609Y-71121589D01*
X120375514Y-71597779D02*
X120375514Y-70597779D01*
X120756466Y-70597779D01*
X120851704Y-70645399D01*
X120899323Y-70693018D01*
X120946942Y-70788256D01*
X120946942Y-70931113D01*
X120899323Y-71026351D01*
X120851704Y-71073970D01*
X120756466Y-71121589D01*
X120375514Y-71121589D01*
X121899323Y-71597779D02*
X121327895Y-71597779D01*
X121613609Y-71597779D02*
X121613609Y-70597779D01*
X121518371Y-70740637D01*
X121423133Y-70835875D01*
X121327895Y-70883494D01*
X122518371Y-70597779D02*
X122613609Y-70597779D01*
X122708847Y-70645399D01*
X122756466Y-70693018D01*
X122804085Y-70788256D01*
X122851704Y-70978732D01*
X122851704Y-71216827D01*
X122804085Y-71407303D01*
X122756466Y-71502541D01*
X122708847Y-71550160D01*
X122613609Y-71597779D01*
X122518371Y-71597779D01*
X122423133Y-71550160D01*
X122375514Y-71502541D01*
X122327895Y-71407303D01*
X122280276Y-71216827D01*
X122280276Y-70978732D01*
X122327895Y-70788256D01*
X122375514Y-70693018D01*
X122423133Y-70645399D01*
X122518371Y-70597779D01*
%TO.C,R4*%
X125229733Y-103345879D02*
X124896400Y-102869689D01*
X124658304Y-103345879D02*
X124658304Y-102345879D01*
X125039257Y-102345879D01*
X125134495Y-102393499D01*
X125182114Y-102441118D01*
X125229733Y-102536356D01*
X125229733Y-102679213D01*
X125182114Y-102774451D01*
X125134495Y-102822070D01*
X125039257Y-102869689D01*
X124658304Y-102869689D01*
X126086876Y-102679213D02*
X126086876Y-103345879D01*
X125848780Y-102298260D02*
X125610685Y-103012546D01*
X126229733Y-103012546D01*
%TO.C,J1*%
X121651780Y-61572732D02*
X122366066Y-61572732D01*
X122508923Y-61620351D01*
X122604161Y-61715589D01*
X122651780Y-61858446D01*
X122651780Y-61953684D01*
X122651780Y-60572732D02*
X122651780Y-61144160D01*
X122651780Y-60858446D02*
X121651780Y-60858446D01*
X121794638Y-60953684D01*
X121889876Y-61048922D01*
X121937495Y-61144160D01*
%TO.C,R7*%
X124064733Y-85897979D02*
X123731400Y-85421789D01*
X123493304Y-85897979D02*
X123493304Y-84897979D01*
X123874257Y-84897979D01*
X123969495Y-84945599D01*
X124017114Y-84993218D01*
X124064733Y-85088456D01*
X124064733Y-85231313D01*
X124017114Y-85326551D01*
X123969495Y-85374170D01*
X123874257Y-85421789D01*
X123493304Y-85421789D01*
X124398066Y-84897979D02*
X125064733Y-84897979D01*
X124636161Y-85897979D01*
%TO.C,Q1*%
X174910761Y-99328218D02*
X174815523Y-99280599D01*
X174720285Y-99185360D01*
X174577428Y-99042503D01*
X174482190Y-98994884D01*
X174386952Y-98994884D01*
X174434571Y-99232979D02*
X174339333Y-99185360D01*
X174244095Y-99090122D01*
X174196476Y-98899646D01*
X174196476Y-98566313D01*
X174244095Y-98375837D01*
X174339333Y-98280599D01*
X174434571Y-98232979D01*
X174625047Y-98232979D01*
X174720285Y-98280599D01*
X174815523Y-98375837D01*
X174863142Y-98566313D01*
X174863142Y-98899646D01*
X174815523Y-99090122D01*
X174720285Y-99185360D01*
X174625047Y-99232979D01*
X174434571Y-99232979D01*
X175815523Y-99232979D02*
X175244095Y-99232979D01*
X175529809Y-99232979D02*
X175529809Y-98232979D01*
X175434571Y-98375837D01*
X175339333Y-98471075D01*
X175244095Y-98518694D01*
%TO.C,R3*%
X122439133Y-103345879D02*
X122105800Y-102869689D01*
X121867704Y-103345879D02*
X121867704Y-102345879D01*
X122248657Y-102345879D01*
X122343895Y-102393499D01*
X122391514Y-102441118D01*
X122439133Y-102536356D01*
X122439133Y-102679213D01*
X122391514Y-102774451D01*
X122343895Y-102822070D01*
X122248657Y-102869689D01*
X121867704Y-102869689D01*
X122772466Y-102345879D02*
X123391514Y-102345879D01*
X123058180Y-102726832D01*
X123201038Y-102726832D01*
X123296276Y-102774451D01*
X123343895Y-102822070D01*
X123391514Y-102917308D01*
X123391514Y-103155403D01*
X123343895Y-103250641D01*
X123296276Y-103298260D01*
X123201038Y-103345879D01*
X122915323Y-103345879D01*
X122820085Y-103298260D01*
X122772466Y-103250641D01*
%TO.C,C5*%
X132731207Y-59830041D02*
X132683588Y-59877660D01*
X132540731Y-59925279D01*
X132445493Y-59925279D01*
X132302635Y-59877660D01*
X132207397Y-59782422D01*
X132159778Y-59687184D01*
X132112159Y-59496708D01*
X132112159Y-59353851D01*
X132159778Y-59163375D01*
X132207397Y-59068137D01*
X132302635Y-58972899D01*
X132445493Y-58925279D01*
X132540731Y-58925279D01*
X132683588Y-58972899D01*
X132731207Y-59020518D01*
X133635969Y-58925279D02*
X133159778Y-58925279D01*
X133112159Y-59401470D01*
X133159778Y-59353851D01*
X133255016Y-59306232D01*
X133493112Y-59306232D01*
X133588350Y-59353851D01*
X133635969Y-59401470D01*
X133683588Y-59496708D01*
X133683588Y-59734803D01*
X133635969Y-59830041D01*
X133588350Y-59877660D01*
X133493112Y-59925279D01*
X133255016Y-59925279D01*
X133159778Y-59877660D01*
X133112159Y-59830041D01*
%TO.C,R9*%
X118603733Y-71572379D02*
X118270400Y-71096189D01*
X118032304Y-71572379D02*
X118032304Y-70572379D01*
X118413257Y-70572379D01*
X118508495Y-70619999D01*
X118556114Y-70667618D01*
X118603733Y-70762856D01*
X118603733Y-70905713D01*
X118556114Y-71000951D01*
X118508495Y-71048570D01*
X118413257Y-71096189D01*
X118032304Y-71096189D01*
X119079923Y-71572379D02*
X119270400Y-71572379D01*
X119365638Y-71524760D01*
X119413257Y-71477141D01*
X119508495Y-71334284D01*
X119556114Y-71143808D01*
X119556114Y-70762856D01*
X119508495Y-70667618D01*
X119460876Y-70619999D01*
X119365638Y-70572379D01*
X119175161Y-70572379D01*
X119079923Y-70619999D01*
X119032304Y-70667618D01*
X118984685Y-70762856D01*
X118984685Y-71000951D01*
X119032304Y-71096189D01*
X119079923Y-71143808D01*
X119175161Y-71191427D01*
X119365638Y-71191427D01*
X119460876Y-71143808D01*
X119508495Y-71096189D01*
X119556114Y-71000951D01*
%TO.C,C6*%
X125461733Y-59842641D02*
X125414114Y-59890260D01*
X125271257Y-59937879D01*
X125176019Y-59937879D01*
X125033161Y-59890260D01*
X124937923Y-59795022D01*
X124890304Y-59699784D01*
X124842685Y-59509308D01*
X124842685Y-59366451D01*
X124890304Y-59175975D01*
X124937923Y-59080737D01*
X125033161Y-58985499D01*
X125176019Y-58937879D01*
X125271257Y-58937879D01*
X125414114Y-58985499D01*
X125461733Y-59033118D01*
X126318876Y-58937879D02*
X126128400Y-58937879D01*
X126033161Y-58985499D01*
X125985542Y-59033118D01*
X125890304Y-59175975D01*
X125842685Y-59366451D01*
X125842685Y-59747403D01*
X125890304Y-59842641D01*
X125937923Y-59890260D01*
X126033161Y-59937879D01*
X126223638Y-59937879D01*
X126318876Y-59890260D01*
X126366495Y-59842641D01*
X126414114Y-59747403D01*
X126414114Y-59509308D01*
X126366495Y-59414070D01*
X126318876Y-59366451D01*
X126223638Y-59318832D01*
X126033161Y-59318832D01*
X125937923Y-59366451D01*
X125890304Y-59414070D01*
X125842685Y-59509308D01*
%TO.C,U2*%
X116990180Y-82194303D02*
X117799704Y-82194303D01*
X117894942Y-82146684D01*
X117942561Y-82099065D01*
X117990180Y-82003827D01*
X117990180Y-81813351D01*
X117942561Y-81718113D01*
X117894942Y-81670494D01*
X117799704Y-81622875D01*
X116990180Y-81622875D01*
X117085419Y-81194303D02*
X117037800Y-81146684D01*
X116990180Y-81051446D01*
X116990180Y-80813351D01*
X117037800Y-80718113D01*
X117085419Y-80670494D01*
X117180657Y-80622875D01*
X117275895Y-80622875D01*
X117418752Y-80670494D01*
X117990180Y-81241922D01*
X117990180Y-80622875D01*
%TO.C,RL1*%
X128295371Y-96718379D02*
X127962038Y-96242189D01*
X127723942Y-96718379D02*
X127723942Y-95718379D01*
X128104895Y-95718379D01*
X128200133Y-95765999D01*
X128247752Y-95813618D01*
X128295371Y-95908856D01*
X128295371Y-96051713D01*
X128247752Y-96146951D01*
X128200133Y-96194570D01*
X128104895Y-96242189D01*
X127723942Y-96242189D01*
X129200133Y-96718379D02*
X128723942Y-96718379D01*
X128723942Y-95718379D01*
X130057276Y-96718379D02*
X129485847Y-96718379D01*
X129771561Y-96718379D02*
X129771561Y-95718379D01*
X129676323Y-95861237D01*
X129581085Y-95956475D01*
X129485847Y-96004094D01*
%TO.C,R1*%
X129130680Y-124753665D02*
X128654490Y-125086999D01*
X129130680Y-125325094D02*
X128130680Y-125325094D01*
X128130680Y-124944141D01*
X128178300Y-124848903D01*
X128225919Y-124801284D01*
X128321157Y-124753665D01*
X128464014Y-124753665D01*
X128559252Y-124801284D01*
X128606871Y-124848903D01*
X128654490Y-124944141D01*
X128654490Y-125325094D01*
X129130680Y-123801284D02*
X129130680Y-124372713D01*
X129130680Y-124086999D02*
X128130680Y-124086999D01*
X128273538Y-124182237D01*
X128368776Y-124277475D01*
X128416395Y-124372713D01*
%TO.C,Q2*%
X175193561Y-65404818D02*
X175098323Y-65357199D01*
X175003085Y-65261960D01*
X174860228Y-65119103D01*
X174764990Y-65071484D01*
X174669752Y-65071484D01*
X174717371Y-65309579D02*
X174622133Y-65261960D01*
X174526895Y-65166722D01*
X174479276Y-64976246D01*
X174479276Y-64642913D01*
X174526895Y-64452437D01*
X174622133Y-64357199D01*
X174717371Y-64309579D01*
X174907847Y-64309579D01*
X175003085Y-64357199D01*
X175098323Y-64452437D01*
X175145942Y-64642913D01*
X175145942Y-64976246D01*
X175098323Y-65166722D01*
X175003085Y-65261960D01*
X174907847Y-65309579D01*
X174717371Y-65309579D01*
X175526895Y-64404818D02*
X175574514Y-64357199D01*
X175669752Y-64309579D01*
X175907847Y-64309579D01*
X176003085Y-64357199D01*
X176050704Y-64404818D01*
X176098323Y-64500056D01*
X176098323Y-64595294D01*
X176050704Y-64738151D01*
X175479276Y-65309579D01*
X176098323Y-65309579D01*
%TO.C,U1*%
X115375580Y-111886903D02*
X116185104Y-111886903D01*
X116280342Y-111839284D01*
X116327961Y-111791665D01*
X116375580Y-111696427D01*
X116375580Y-111505951D01*
X116327961Y-111410713D01*
X116280342Y-111363094D01*
X116185104Y-111315475D01*
X115375580Y-111315475D01*
X116375580Y-110315475D02*
X116375580Y-110886903D01*
X116375580Y-110601189D02*
X115375580Y-110601189D01*
X115518438Y-110696427D01*
X115613676Y-110791665D01*
X115661295Y-110886903D01*
%TO.C,J2*%
X120254780Y-119078332D02*
X120969066Y-119078332D01*
X121111923Y-119125951D01*
X121207161Y-119221189D01*
X121254780Y-119364046D01*
X121254780Y-119459284D01*
X120350019Y-118649760D02*
X120302400Y-118602141D01*
X120254780Y-118506903D01*
X120254780Y-118268808D01*
X120302400Y-118173570D01*
X120350019Y-118125951D01*
X120445257Y-118078332D01*
X120540495Y-118078332D01*
X120683352Y-118125951D01*
X121254780Y-118697379D01*
X121254780Y-118078332D01*
%TO.C,C2*%
X132141933Y-92584541D02*
X132094314Y-92632160D01*
X131951457Y-92679779D01*
X131856219Y-92679779D01*
X131713361Y-92632160D01*
X131618123Y-92536922D01*
X131570504Y-92441684D01*
X131522885Y-92251208D01*
X131522885Y-92108351D01*
X131570504Y-91917875D01*
X131618123Y-91822637D01*
X131713361Y-91727399D01*
X131856219Y-91679779D01*
X131951457Y-91679779D01*
X132094314Y-91727399D01*
X132141933Y-91775018D01*
X132522885Y-91775018D02*
X132570504Y-91727399D01*
X132665742Y-91679779D01*
X132903838Y-91679779D01*
X132999076Y-91727399D01*
X133046695Y-91775018D01*
X133094314Y-91870256D01*
X133094314Y-91965494D01*
X133046695Y-92108351D01*
X132475266Y-92679779D01*
X133094314Y-92679779D01*
%TO.C,R8*%
X124064733Y-83357979D02*
X123731400Y-82881789D01*
X123493304Y-83357979D02*
X123493304Y-82357979D01*
X123874257Y-82357979D01*
X123969495Y-82405599D01*
X124017114Y-82453218D01*
X124064733Y-82548456D01*
X124064733Y-82691313D01*
X124017114Y-82786551D01*
X123969495Y-82834170D01*
X123874257Y-82881789D01*
X123493304Y-82881789D01*
X124636161Y-82786551D02*
X124540923Y-82738932D01*
X124493304Y-82691313D01*
X124445685Y-82596075D01*
X124445685Y-82548456D01*
X124493304Y-82453218D01*
X124540923Y-82405599D01*
X124636161Y-82357979D01*
X124826638Y-82357979D01*
X124921876Y-82405599D01*
X124969495Y-82453218D01*
X125017114Y-82548456D01*
X125017114Y-82596075D01*
X124969495Y-82691313D01*
X124921876Y-82738932D01*
X124826638Y-82786551D01*
X124636161Y-82786551D01*
X124540923Y-82834170D01*
X124493304Y-82881789D01*
X124445685Y-82977027D01*
X124445685Y-83167503D01*
X124493304Y-83262741D01*
X124540923Y-83310360D01*
X124636161Y-83357979D01*
X124826638Y-83357979D01*
X124921876Y-83310360D01*
X124969495Y-83262741D01*
X125017114Y-83167503D01*
X125017114Y-82977027D01*
X124969495Y-82881789D01*
X124921876Y-82834170D01*
X124826638Y-82786551D01*
%TO.C,C1*%
X125936642Y-120196165D02*
X125984261Y-120243784D01*
X126031880Y-120386641D01*
X126031880Y-120481879D01*
X125984261Y-120624737D01*
X125889023Y-120719975D01*
X125793785Y-120767594D01*
X125603309Y-120815213D01*
X125460452Y-120815213D01*
X125269976Y-120767594D01*
X125174738Y-120719975D01*
X125079500Y-120624737D01*
X125031880Y-120481879D01*
X125031880Y-120386641D01*
X125079500Y-120243784D01*
X125127119Y-120196165D01*
X126031880Y-119243784D02*
X126031880Y-119815213D01*
X126031880Y-119529499D02*
X125031880Y-119529499D01*
X125174738Y-119624737D01*
X125269976Y-119719975D01*
X125317595Y-119815213D01*
%TO.C,RL2*%
X127996656Y-64053979D02*
X127663323Y-63577789D01*
X127425227Y-64053979D02*
X127425227Y-63053979D01*
X127806180Y-63053979D01*
X127901418Y-63101599D01*
X127949037Y-63149218D01*
X127996656Y-63244456D01*
X127996656Y-63387313D01*
X127949037Y-63482551D01*
X127901418Y-63530170D01*
X127806180Y-63577789D01*
X127425227Y-63577789D01*
X128901418Y-64053979D02*
X128425227Y-64053979D01*
X128425227Y-63053979D01*
X129187132Y-63149218D02*
X129234751Y-63101599D01*
X129329989Y-63053979D01*
X129568085Y-63053979D01*
X129663323Y-63101599D01*
X129710942Y-63149218D01*
X129758561Y-63244456D01*
X129758561Y-63339694D01*
X129710942Y-63482551D01*
X129139513Y-64053979D01*
X129758561Y-64053979D01*
%TO.C,C4*%
X124102733Y-88342741D02*
X124055114Y-88390360D01*
X123912257Y-88437979D01*
X123817019Y-88437979D01*
X123674161Y-88390360D01*
X123578923Y-88295122D01*
X123531304Y-88199884D01*
X123483685Y-88009408D01*
X123483685Y-87866551D01*
X123531304Y-87676075D01*
X123578923Y-87580837D01*
X123674161Y-87485599D01*
X123817019Y-87437979D01*
X123912257Y-87437979D01*
X124055114Y-87485599D01*
X124102733Y-87533218D01*
X124959876Y-87771313D02*
X124959876Y-88437979D01*
X124721780Y-87390360D02*
X124483685Y-88104646D01*
X125102733Y-88104646D01*
%TO.C,J3*%
X120508780Y-90503333D02*
X121223066Y-90503333D01*
X121365923Y-90550952D01*
X121461161Y-90646190D01*
X121508780Y-90789047D01*
X121508780Y-90884285D01*
X120508780Y-90122380D02*
X120508780Y-89503333D01*
X120889733Y-89836666D01*
X120889733Y-89693809D01*
X120937352Y-89598571D01*
X120984971Y-89550952D01*
X121080209Y-89503333D01*
X121318304Y-89503333D01*
X121413542Y-89550952D01*
X121461161Y-89598571D01*
X121508780Y-89693809D01*
X121508780Y-89979523D01*
X121461161Y-90074761D01*
X121413542Y-90122380D01*
%TO.C,C3*%
X125385533Y-92533741D02*
X125337914Y-92581360D01*
X125195057Y-92628979D01*
X125099819Y-92628979D01*
X124956961Y-92581360D01*
X124861723Y-92486122D01*
X124814104Y-92390884D01*
X124766485Y-92200408D01*
X124766485Y-92057551D01*
X124814104Y-91867075D01*
X124861723Y-91771837D01*
X124956961Y-91676599D01*
X125099819Y-91628979D01*
X125195057Y-91628979D01*
X125337914Y-91676599D01*
X125385533Y-91724218D01*
X125718866Y-91628979D02*
X126337914Y-91628979D01*
X126004580Y-92009932D01*
X126147438Y-92009932D01*
X126242676Y-92057551D01*
X126290295Y-92105170D01*
X126337914Y-92200408D01*
X126337914Y-92438503D01*
X126290295Y-92533741D01*
X126242676Y-92581360D01*
X126147438Y-92628979D01*
X125861723Y-92628979D01*
X125766485Y-92581360D01*
X125718866Y-92533741D01*
%TO.C,R2*%
X131289680Y-124730165D02*
X130813490Y-125063499D01*
X131289680Y-125301594D02*
X130289680Y-125301594D01*
X130289680Y-124920641D01*
X130337300Y-124825403D01*
X130384919Y-124777784D01*
X130480157Y-124730165D01*
X130623014Y-124730165D01*
X130718252Y-124777784D01*
X130765871Y-124825403D01*
X130813490Y-124920641D01*
X130813490Y-125301594D01*
X130384919Y-124349213D02*
X130337300Y-124301594D01*
X130289680Y-124206356D01*
X130289680Y-123968260D01*
X130337300Y-123873022D01*
X130384919Y-123825403D01*
X130480157Y-123777784D01*
X130575395Y-123777784D01*
X130718252Y-123825403D01*
X131289680Y-124396832D01*
X131289680Y-123777784D01*
D11*
%TO.C,R10*%
X120829400Y-73483735D02*
X120829400Y-73937863D01*
X122299400Y-73483735D02*
X122299400Y-73937863D01*
%TO.C,R4*%
X124741000Y-105182935D02*
X124741000Y-105637063D01*
X126211000Y-105182935D02*
X126211000Y-105637063D01*
%TO.C,J1*%
X110195400Y-70129399D02*
X120995400Y-70129399D01*
X120995400Y-70129399D02*
X120995400Y-59969399D01*
X120995400Y-59969399D02*
X110195400Y-59969399D01*
X110195400Y-59969399D02*
X110195400Y-70129399D01*
%TO.C,R7*%
X127633464Y-84456599D02*
X127179336Y-84456599D01*
X127633464Y-85926599D02*
X127179336Y-85926599D01*
%TO.C,Q1*%
X155466000Y-100008599D02*
X143566000Y-108008599D01*
X155466000Y-124708599D02*
X143466000Y-116608599D01*
X167866000Y-100108599D02*
X179666000Y-108108599D01*
X167866000Y-124608599D02*
X179666000Y-116608599D01*
X167971870Y-100164448D02*
G75*
G03*
X155466000Y-100008599I-6405870J-12194151D01*
G01*
X179513176Y-116712458D02*
G75*
G03*
X179666000Y-108108599I-2847176J4353859D01*
G01*
X143566000Y-108008599D02*
G75*
G03*
X143489033Y-116656293I2899999J-4350000D01*
G01*
X155466000Y-124708600D02*
G75*
G03*
X167971870Y-124552751I6100000J12350001D01*
G01*
%TO.C,R3*%
X121997800Y-105637063D02*
X121997800Y-105182935D01*
X123467800Y-105637063D02*
X123467800Y-105182935D01*
%TO.C,C5*%
X133942400Y-67842899D02*
X133942400Y-61082899D01*
X130522400Y-67842899D02*
X133942400Y-67842899D01*
X130522400Y-61082899D02*
X130522400Y-67842899D01*
%TO.C,R9*%
X119784800Y-73963263D02*
X119784800Y-73509135D01*
X118314800Y-73963263D02*
X118314800Y-73509135D01*
%TO.C,C6*%
X127338400Y-67855499D02*
X127338400Y-61095499D01*
X123918400Y-61095499D02*
X123918400Y-67855499D01*
X123918400Y-67855499D02*
X127338400Y-67855499D01*
%TO.C,U2*%
X110299400Y-74534399D02*
X110299400Y-84774399D01*
X114940400Y-84774399D02*
X110299400Y-84774399D01*
X114940400Y-74534399D02*
X110299400Y-74534399D01*
X114940400Y-74534399D02*
X114940400Y-84774399D01*
X114940400Y-81505399D02*
X113430400Y-81505399D01*
X113430400Y-74534399D02*
X113430400Y-84774399D01*
X114940400Y-77804399D02*
X113430400Y-77804399D01*
%TO.C,RL1*%
X129855800Y-99287063D02*
X129855800Y-98832935D01*
X128385800Y-99287063D02*
X128385800Y-98832935D01*
%TO.C,R1*%
X129362500Y-127633463D02*
X129362500Y-127179335D01*
X127892500Y-127633463D02*
X127892500Y-127179335D01*
%TO.C,Q2*%
X156129800Y-63926199D02*
X144229800Y-71926199D01*
X156129800Y-88626199D02*
X144129800Y-80526199D01*
X168529800Y-88526199D02*
X180329800Y-80526199D01*
X168529800Y-64026199D02*
X180329800Y-72026199D01*
X168635670Y-64082048D02*
G75*
G03*
X156129800Y-63926199I-6405870J-12194151D01*
G01*
X144229800Y-71926199D02*
G75*
G03*
X144152833Y-80573893I2899999J-4350000D01*
G01*
X180176976Y-80630058D02*
G75*
G03*
X180329800Y-72026199I-2847176J4353859D01*
G01*
X156129800Y-88626200D02*
G75*
G03*
X168635670Y-88470351I6100000J12350001D01*
G01*
%TO.C,U1*%
X113413200Y-106004999D02*
X113413200Y-116244999D01*
X114923200Y-109274999D02*
X113413200Y-109274999D01*
X114923200Y-116244999D02*
X110282200Y-116244999D01*
X110282200Y-106004999D02*
X110282200Y-116244999D01*
X114923200Y-106004999D02*
X114923200Y-116244999D01*
X114923200Y-106004999D02*
X110282200Y-106004999D01*
X114923200Y-112975999D02*
X113413200Y-112975999D01*
%TO.C,J2*%
X110195400Y-130809999D02*
X120995400Y-130809999D01*
X120995400Y-130809999D02*
X120995400Y-120649999D01*
X120995400Y-120649999D02*
X110195400Y-120649999D01*
X110195400Y-120649999D02*
X110195400Y-130809999D01*
%TO.C,C2*%
X134272600Y-100686399D02*
X134272600Y-93926399D01*
X130852600Y-93926399D02*
X130852600Y-100686399D01*
X130852600Y-100686399D02*
X134272600Y-100686399D01*
%TO.C,R8*%
X127179336Y-82170599D02*
X127633464Y-82170599D01*
X127179336Y-83640599D02*
X127633464Y-83640599D01*
%TO.C,C1*%
X123666300Y-129148899D02*
X127086300Y-129148899D01*
X123666300Y-122388899D02*
X123666300Y-129148899D01*
X127086300Y-129148899D02*
X127086300Y-122388899D01*
%TO.C,RL2*%
X129563800Y-66368663D02*
X129563800Y-65914535D01*
X128093800Y-66368663D02*
X128093800Y-65914535D01*
%TO.C,C4*%
X126476400Y-89949599D02*
X133236400Y-89949599D01*
X133236400Y-86529599D02*
X126476400Y-86529599D01*
X133236400Y-89949599D02*
X133236400Y-86529599D01*
%TO.C,J3*%
X110195400Y-101409499D02*
X120995400Y-101409499D01*
X120995400Y-101409499D02*
X120995400Y-91249499D01*
X120995400Y-91249499D02*
X110195400Y-91249499D01*
X110195400Y-91249499D02*
X110195400Y-101409499D01*
%TO.C,C3*%
X127516200Y-100762599D02*
X127516200Y-94002599D01*
X124096200Y-94002599D02*
X124096200Y-100762599D01*
X124096200Y-100762599D02*
X127516200Y-100762599D01*
%TO.C,R2*%
X131673900Y-127232035D02*
X131673900Y-127686163D01*
X130203900Y-127232035D02*
X130203900Y-127686163D01*
%TD*%
M02*
