%TF.GenerationSoftware,KiCad,Pcbnew,(6.0.5)*%
%TF.CreationDate,2023-07-06T17:20:31+08:00*%
%TF.ProjectId,compare,636f6d70-6172-4652-9e6b-696361645f70,rev?*%
%TF.SameCoordinates,Original*%
%TF.FileFunction,Copper,L2,Bot*%
%TF.FilePolarity,Positive*%
%FSLAX46Y46*%
G04 Gerber Fmt 4.6, Leading zero omitted, Abs format (unit mm)*
G04 Created by KiCad (PCBNEW (6.0.5)) date 2023-07-06 17:20:31*
%MOMM*%
%LPD*%
G01*
G04 APERTURE LIST*
%TA.AperFunction,ComponentPad*%
%ADD10C,2.100000*%
%TD*%
%TA.AperFunction,ComponentPad*%
%ADD11R,2.600000X2.600000*%
%TD*%
%TA.AperFunction,ComponentPad*%
%ADD12C,2.600000*%
%TD*%
%TA.AperFunction,ComponentPad*%
%ADD13C,6.350000*%
%TD*%
%TA.AperFunction,ComponentPad*%
%ADD14R,2.000000X1.905000*%
%TD*%
%TA.AperFunction,ComponentPad*%
%ADD15O,2.000000X1.905000*%
%TD*%
%TA.AperFunction,ViaPad*%
%ADD16C,0.800000*%
%TD*%
%TA.AperFunction,Conductor*%
%ADD17C,0.250000*%
%TD*%
G04 APERTURE END LIST*
D10*
%TO.P,J1,1,Pin_1*%
%TO.N,VOUT*%
X115595400Y-67589399D03*
%TO.P,J1,2,Pin_2*%
%TO.N,GND*%
X115595400Y-62509399D03*
%TD*%
D11*
%TO.P,Q1,1,B*%
%TO.N,Net-(R2-Pad2)*%
X159766000Y-106908599D03*
D12*
%TO.P,Q1,2,E*%
%TO.N,VIN*%
X159766000Y-117828599D03*
D13*
%TO.P,Q1,3,C*%
%TO.N,VOUT1*%
X146466000Y-112358599D03*
X176666000Y-112358599D03*
%TD*%
D14*
%TO.P,U2,1,ADJ*%
%TO.N,Net-(C5-Pad1)*%
X111670400Y-77114399D03*
D15*
%TO.P,U2,2,VO*%
%TO.N,VOUT*%
X111670400Y-79654399D03*
%TO.P,U2,3,VI*%
%TO.N,Net-(R7-Pad2)*%
X111670400Y-82194399D03*
%TD*%
D11*
%TO.P,Q2,1,B*%
%TO.N,Net-(R8-Pad2)*%
X160429800Y-70826199D03*
D12*
%TO.P,Q2,2,E*%
%TO.N,VOUT1*%
X160429800Y-81746199D03*
D13*
%TO.P,Q2,3,C*%
%TO.N,VOUT*%
X147129800Y-76276199D03*
X177329800Y-76276199D03*
%TD*%
D14*
%TO.P,U1,1,ADJ*%
%TO.N,Net-(C2-Pad1)*%
X111653200Y-108584999D03*
D15*
%TO.P,U1,2,VO*%
%TO.N,VOUT1*%
X111653200Y-111124999D03*
%TO.P,U1,3,VI*%
%TO.N,Net-(R1-Pad2)*%
X111653200Y-113664999D03*
%TD*%
D10*
%TO.P,J2,1,Pin_1*%
%TO.N,VIN*%
X115595400Y-128269999D03*
%TO.P,J2,2,Pin_2*%
%TO.N,GND*%
X115595400Y-123189999D03*
%TD*%
%TO.P,J3,1,Pin_1*%
%TO.N,VOUT1*%
X115595400Y-98869499D03*
%TO.P,J3,2,Pin_2*%
%TO.N,GND*%
X115595400Y-93789499D03*
%TD*%
D16*
%TO.N,GND*%
X118491000Y-104520999D03*
X118491000Y-104520999D03*
%TO.N,Net-(C2-Pad1)*%
X125476000Y-108203999D03*
X132588000Y-102869999D03*
%TO.N,Net-(C5-Pad1)*%
X124460000Y-71119999D03*
X132334000Y-69595999D03*
%TO.N,Net-(R2-Pad2)*%
X154940000Y-116585999D03*
%TO.N,Net-(R8-Pad2)*%
X134010400Y-82905599D03*
%TD*%
D17*
%TO.N,Net-(C2-Pad1)*%
X132588000Y-107441999D02*
X132588000Y-102869999D01*
X131826000Y-108203999D02*
X132588000Y-107441999D01*
X125476000Y-108203999D02*
X131826000Y-108203999D01*
X132588000Y-102869999D02*
X132588000Y-102832510D01*
%TO.N,Net-(C5-Pad1)*%
X124460000Y-71119999D02*
X130810000Y-71119999D01*
X130810000Y-71119999D02*
X132080000Y-69849999D01*
X132080000Y-69849999D02*
X132334000Y-69595999D01*
%TO.N,Net-(R2-Pad2)*%
X154940000Y-107441999D02*
X155473400Y-106908599D01*
X155473400Y-106908599D02*
X159766000Y-106908599D01*
X154940000Y-116585999D02*
X154940000Y-107441999D01*
%TO.N,Net-(R8-Pad2)*%
X134010400Y-82905599D02*
X134010400Y-71475599D01*
X134010400Y-71475599D02*
X134659800Y-70826199D01*
X134659800Y-70826199D02*
X160429800Y-70826199D01*
%TD*%
%TA.AperFunction,Conductor*%
%TO.N,GND*%
G36*
X178815930Y-49023051D02*
G01*
X178816002Y-49023081D01*
X178816067Y-49023054D01*
X178818624Y-49023107D01*
X179230216Y-49040132D01*
X179240594Y-49040992D01*
X179533091Y-49077451D01*
X179533952Y-49077561D01*
X179657876Y-49093876D01*
X179667287Y-49095480D01*
X179694292Y-49101142D01*
X179928170Y-49150181D01*
X179929451Y-49150457D01*
X179986271Y-49163054D01*
X180079617Y-49183749D01*
X180088297Y-49186000D01*
X180332189Y-49258610D01*
X180334126Y-49259204D01*
X180492145Y-49309028D01*
X180500058Y-49311815D01*
X180731006Y-49401931D01*
X180733422Y-49402903D01*
X180892482Y-49468787D01*
X180899603Y-49471999D01*
X181118831Y-49579173D01*
X181121672Y-49580607D01*
X181277725Y-49661843D01*
X181284040Y-49665364D01*
X181491621Y-49789055D01*
X181494790Y-49791008D01*
X181549442Y-49825825D01*
X181645100Y-49886767D01*
X181650615Y-49890489D01*
X181759518Y-49968243D01*
X181846073Y-50030043D01*
X181849519Y-50032594D01*
X181928037Y-50092843D01*
X181991969Y-50141900D01*
X181996699Y-50145714D01*
X182179330Y-50300395D01*
X182183020Y-50303646D01*
X182315835Y-50425348D01*
X182319806Y-50429150D01*
X182488851Y-50598195D01*
X182492653Y-50602166D01*
X182614355Y-50734981D01*
X182617606Y-50738671D01*
X182693947Y-50828805D01*
X182772287Y-50921302D01*
X182776092Y-50926020D01*
X182885401Y-51068476D01*
X182887983Y-51071963D01*
X183027531Y-51267413D01*
X183031241Y-51272912D01*
X183126966Y-51423171D01*
X183128933Y-51426361D01*
X183252658Y-51633998D01*
X183256153Y-51640265D01*
X183337375Y-51796291D01*
X183338808Y-51799132D01*
X183423470Y-51972308D01*
X183446000Y-52018393D01*
X183446003Y-52018400D01*
X183449215Y-52025521D01*
X183515098Y-52184578D01*
X183516052Y-52186949D01*
X183606186Y-52417943D01*
X183608973Y-52425856D01*
X183658791Y-52583856D01*
X183659385Y-52585792D01*
X183732005Y-52829717D01*
X183734256Y-52838399D01*
X183767507Y-52988386D01*
X183767812Y-52989800D01*
X183822523Y-53250729D01*
X183824127Y-53260140D01*
X183840421Y-53383910D01*
X183840531Y-53384770D01*
X183877009Y-53677408D01*
X183877869Y-53687786D01*
X183882872Y-53808736D01*
X183882978Y-53814195D01*
X183877848Y-55702001D01*
X183694460Y-123188867D01*
X183651669Y-138935674D01*
X183645837Y-138973221D01*
X183608966Y-139090161D01*
X183606178Y-139098074D01*
X183516087Y-139328957D01*
X183515116Y-139331373D01*
X183449207Y-139490492D01*
X183445995Y-139497613D01*
X183338828Y-139716825D01*
X183337407Y-139719642D01*
X183256139Y-139875756D01*
X183252633Y-139882043D01*
X183128974Y-140089570D01*
X183127000Y-140092773D01*
X183031225Y-140243110D01*
X183027503Y-140248626D01*
X182887979Y-140444041D01*
X182885422Y-140447495D01*
X182776077Y-140589996D01*
X182772285Y-140594699D01*
X182617614Y-140777319D01*
X182614362Y-140781009D01*
X182492629Y-140913857D01*
X182488827Y-140917828D01*
X182319828Y-141086827D01*
X182315857Y-141090629D01*
X182183009Y-141212362D01*
X182179319Y-141215614D01*
X181996699Y-141370285D01*
X181991996Y-141374077D01*
X181849495Y-141483422D01*
X181846041Y-141485979D01*
X181650626Y-141625503D01*
X181645110Y-141629225D01*
X181494773Y-141725000D01*
X181491570Y-141726974D01*
X181284043Y-141850633D01*
X181277756Y-141854139D01*
X181121642Y-141935407D01*
X181118825Y-141936828D01*
X180899613Y-142043995D01*
X180892492Y-142047207D01*
X180733373Y-142113116D01*
X180730957Y-142114087D01*
X180500074Y-142204178D01*
X180492161Y-142206966D01*
X180334058Y-142256816D01*
X180332121Y-142257410D01*
X180088298Y-142329999D01*
X180079619Y-142332250D01*
X179929433Y-142365545D01*
X179928179Y-142365815D01*
X179811330Y-142390316D01*
X179667283Y-142420519D01*
X179657873Y-142422123D01*
X179573676Y-142433208D01*
X179533889Y-142438446D01*
X179533068Y-142438551D01*
X179240592Y-142475008D01*
X179230214Y-142475868D01*
X178818622Y-142492892D01*
X178816065Y-142492945D01*
X178816000Y-142492918D01*
X178815928Y-142492948D01*
X178813415Y-142493000D01*
X114556585Y-142493000D01*
X114554072Y-142492948D01*
X114554000Y-142492918D01*
X114553935Y-142492945D01*
X114551378Y-142492892D01*
X114139786Y-142475868D01*
X114129408Y-142475008D01*
X113836932Y-142438551D01*
X113836111Y-142438446D01*
X113796324Y-142433208D01*
X113712127Y-142422123D01*
X113702717Y-142420519D01*
X113558670Y-142390316D01*
X113441821Y-142365815D01*
X113440567Y-142365545D01*
X113290381Y-142332250D01*
X113281702Y-142329999D01*
X113037879Y-142257410D01*
X113035942Y-142256816D01*
X112877839Y-142206966D01*
X112869926Y-142204178D01*
X112639043Y-142114087D01*
X112636627Y-142113116D01*
X112477508Y-142047207D01*
X112470387Y-142043995D01*
X112251175Y-141936828D01*
X112248358Y-141935407D01*
X112092244Y-141854139D01*
X112085957Y-141850633D01*
X111878430Y-141726974D01*
X111875227Y-141725000D01*
X111724890Y-141629225D01*
X111719374Y-141625503D01*
X111523959Y-141485979D01*
X111520505Y-141483422D01*
X111378004Y-141374077D01*
X111373301Y-141370285D01*
X111190681Y-141215614D01*
X111186991Y-141212362D01*
X111054143Y-141090629D01*
X111050172Y-141086827D01*
X110881173Y-140917828D01*
X110877371Y-140913857D01*
X110755638Y-140781009D01*
X110752386Y-140777319D01*
X110597715Y-140594699D01*
X110593923Y-140589996D01*
X110484578Y-140447495D01*
X110482021Y-140444041D01*
X110342497Y-140248626D01*
X110338775Y-140243110D01*
X110243000Y-140092773D01*
X110241026Y-140089570D01*
X110117367Y-139882043D01*
X110113861Y-139875756D01*
X110032593Y-139719642D01*
X110031172Y-139716825D01*
X109924005Y-139497613D01*
X109920793Y-139490492D01*
X109854884Y-139331373D01*
X109853913Y-139328957D01*
X109763822Y-139098074D01*
X109761034Y-139090161D01*
X109711184Y-138932058D01*
X109710590Y-138930121D01*
X109638001Y-138686298D01*
X109635750Y-138677618D01*
X109606431Y-138545369D01*
X109602455Y-138527433D01*
X109602171Y-138526116D01*
X109547481Y-138265283D01*
X109545877Y-138255873D01*
X109529559Y-138131930D01*
X109529449Y-138131068D01*
X109492992Y-137838592D01*
X109492132Y-137828214D01*
X109475108Y-137416622D01*
X109475055Y-137414065D01*
X109475082Y-137414000D01*
X109475081Y-137413998D01*
X112948051Y-137413998D01*
X112967823Y-137665224D01*
X112968977Y-137670031D01*
X112968978Y-137670037D01*
X113006141Y-137824829D01*
X113026652Y-137910264D01*
X113028545Y-137914835D01*
X113028546Y-137914837D01*
X113118469Y-138131930D01*
X113123089Y-138143084D01*
X113254760Y-138357952D01*
X113257972Y-138361712D01*
X113257975Y-138361717D01*
X113398385Y-138526116D01*
X113418423Y-138549577D01*
X113422185Y-138552790D01*
X113606283Y-138710025D01*
X113606288Y-138710028D01*
X113610048Y-138713240D01*
X113824916Y-138844911D01*
X113829486Y-138846804D01*
X113829490Y-138846806D01*
X114053163Y-138939454D01*
X114057736Y-138941348D01*
X114143171Y-138961859D01*
X114297963Y-138999022D01*
X114297969Y-138999023D01*
X114302776Y-139000177D01*
X114554002Y-139019949D01*
X114805228Y-139000177D01*
X114810035Y-138999023D01*
X114810041Y-138999022D01*
X114964833Y-138961859D01*
X115050268Y-138941348D01*
X115054841Y-138939454D01*
X115278514Y-138846806D01*
X115278518Y-138846804D01*
X115283088Y-138844911D01*
X115497956Y-138713240D01*
X115501716Y-138710028D01*
X115501721Y-138710025D01*
X115685819Y-138552790D01*
X115689581Y-138549577D01*
X115709619Y-138526116D01*
X115850029Y-138361717D01*
X115850032Y-138361712D01*
X115853244Y-138357952D01*
X115984915Y-138143084D01*
X115989536Y-138131930D01*
X116079458Y-137914837D01*
X116079459Y-137914835D01*
X116081352Y-137910264D01*
X116101863Y-137824829D01*
X116139026Y-137670037D01*
X116139027Y-137670031D01*
X116140181Y-137665224D01*
X116159953Y-137413998D01*
X177210047Y-137413998D01*
X177229819Y-137665224D01*
X177230973Y-137670031D01*
X177230974Y-137670037D01*
X177268137Y-137824829D01*
X177288648Y-137910264D01*
X177290541Y-137914835D01*
X177290542Y-137914837D01*
X177380465Y-138131930D01*
X177385085Y-138143084D01*
X177516756Y-138357952D01*
X177519968Y-138361712D01*
X177519971Y-138361717D01*
X177660381Y-138526116D01*
X177680419Y-138549577D01*
X177684181Y-138552790D01*
X177868279Y-138710025D01*
X177868284Y-138710028D01*
X177872044Y-138713240D01*
X178086912Y-138844911D01*
X178091482Y-138846804D01*
X178091486Y-138846806D01*
X178315159Y-138939454D01*
X178319732Y-138941348D01*
X178405167Y-138961859D01*
X178559959Y-138999022D01*
X178559965Y-138999023D01*
X178564772Y-139000177D01*
X178815998Y-139019949D01*
X179067224Y-139000177D01*
X179072031Y-138999023D01*
X179072037Y-138999022D01*
X179226829Y-138961859D01*
X179312264Y-138941348D01*
X179316837Y-138939454D01*
X179540510Y-138846806D01*
X179540514Y-138846804D01*
X179545084Y-138844911D01*
X179759952Y-138713240D01*
X179763712Y-138710028D01*
X179763717Y-138710025D01*
X179947815Y-138552790D01*
X179951577Y-138549577D01*
X179971615Y-138526116D01*
X180112025Y-138361717D01*
X180112028Y-138361712D01*
X180115240Y-138357952D01*
X180246911Y-138143084D01*
X180251532Y-138131930D01*
X180341454Y-137914837D01*
X180341455Y-137914835D01*
X180343348Y-137910264D01*
X180363859Y-137824829D01*
X180401022Y-137670037D01*
X180401023Y-137670031D01*
X180402177Y-137665224D01*
X180421949Y-137413998D01*
X180402177Y-137162772D01*
X180401023Y-137157965D01*
X180401022Y-137157959D01*
X180344503Y-136922544D01*
X180343348Y-136917732D01*
X180246911Y-136684912D01*
X180115240Y-136470044D01*
X180112028Y-136466284D01*
X180112025Y-136466279D01*
X179954790Y-136282181D01*
X179951577Y-136278419D01*
X179934536Y-136263865D01*
X179763717Y-136117971D01*
X179763712Y-136117968D01*
X179759952Y-136114756D01*
X179545084Y-135983085D01*
X179540514Y-135981192D01*
X179540510Y-135981190D01*
X179316837Y-135888542D01*
X179316835Y-135888541D01*
X179312264Y-135886648D01*
X179226829Y-135866137D01*
X179072037Y-135828974D01*
X179072031Y-135828973D01*
X179067224Y-135827819D01*
X178815998Y-135808047D01*
X178564772Y-135827819D01*
X178559965Y-135828973D01*
X178559959Y-135828974D01*
X178405167Y-135866137D01*
X178319732Y-135886648D01*
X178315161Y-135888541D01*
X178315159Y-135888542D01*
X178091486Y-135981190D01*
X178091482Y-135981192D01*
X178086912Y-135983085D01*
X177872044Y-136114756D01*
X177868284Y-136117968D01*
X177868279Y-136117971D01*
X177697460Y-136263865D01*
X177680419Y-136278419D01*
X177677206Y-136282181D01*
X177519971Y-136466279D01*
X177519968Y-136466284D01*
X177516756Y-136470044D01*
X177385085Y-136684912D01*
X177288648Y-136917732D01*
X177287493Y-136922544D01*
X177230974Y-137157959D01*
X177230973Y-137157965D01*
X177229819Y-137162772D01*
X177210047Y-137413998D01*
X116159953Y-137413998D01*
X116140181Y-137162772D01*
X116139027Y-137157965D01*
X116139026Y-137157959D01*
X116082507Y-136922544D01*
X116081352Y-136917732D01*
X115984915Y-136684912D01*
X115853244Y-136470044D01*
X115850032Y-136466284D01*
X115850029Y-136466279D01*
X115692794Y-136282181D01*
X115689581Y-136278419D01*
X115672540Y-136263865D01*
X115501721Y-136117971D01*
X115501716Y-136117968D01*
X115497956Y-136114756D01*
X115283088Y-135983085D01*
X115278518Y-135981192D01*
X115278514Y-135981190D01*
X115054841Y-135888542D01*
X115054839Y-135888541D01*
X115050268Y-135886648D01*
X114964833Y-135866137D01*
X114810041Y-135828974D01*
X114810035Y-135828973D01*
X114805228Y-135827819D01*
X114554002Y-135808047D01*
X114302776Y-135827819D01*
X114297969Y-135828973D01*
X114297963Y-135828974D01*
X114143171Y-135866137D01*
X114057736Y-135886648D01*
X114053165Y-135888541D01*
X114053163Y-135888542D01*
X113829490Y-135981190D01*
X113829486Y-135981192D01*
X113824916Y-135983085D01*
X113610048Y-136114756D01*
X113606288Y-136117968D01*
X113606283Y-136117971D01*
X113435464Y-136263865D01*
X113418423Y-136278419D01*
X113415210Y-136282181D01*
X113257975Y-136466279D01*
X113257972Y-136466284D01*
X113254760Y-136470044D01*
X113123089Y-136684912D01*
X113026652Y-136917732D01*
X113025497Y-136922544D01*
X112968978Y-137157959D01*
X112968977Y-137157965D01*
X112967823Y-137162772D01*
X112948051Y-137413998D01*
X109475081Y-137413998D01*
X109475052Y-137413928D01*
X109475000Y-137411415D01*
X109475000Y-128269999D01*
X114340123Y-128269999D01*
X114359193Y-128487976D01*
X114415825Y-128699329D01*
X114508298Y-128897637D01*
X114633802Y-129076876D01*
X114788523Y-129231597D01*
X114793031Y-129234754D01*
X114793034Y-129234756D01*
X114963252Y-129353944D01*
X114967761Y-129357101D01*
X114972743Y-129359424D01*
X114972748Y-129359427D01*
X115161088Y-129447251D01*
X115166070Y-129449574D01*
X115171378Y-129450996D01*
X115171380Y-129450997D01*
X115237145Y-129468619D01*
X115377423Y-129506206D01*
X115595400Y-129525276D01*
X115813377Y-129506206D01*
X115953655Y-129468619D01*
X116019420Y-129450997D01*
X116019422Y-129450996D01*
X116024730Y-129449574D01*
X116029712Y-129447251D01*
X116218052Y-129359427D01*
X116218057Y-129359424D01*
X116223039Y-129357101D01*
X116227548Y-129353944D01*
X116397766Y-129234756D01*
X116397769Y-129234754D01*
X116402277Y-129231597D01*
X116556998Y-129076876D01*
X116682502Y-128897637D01*
X116774975Y-128699329D01*
X116831607Y-128487976D01*
X116850677Y-128269999D01*
X116831607Y-128052022D01*
X116774975Y-127840669D01*
X116682502Y-127642361D01*
X116556998Y-127463122D01*
X116402277Y-127308401D01*
X116397769Y-127305244D01*
X116397766Y-127305242D01*
X116227548Y-127186054D01*
X116227545Y-127186052D01*
X116223039Y-127182897D01*
X116218057Y-127180574D01*
X116218052Y-127180571D01*
X116029712Y-127092747D01*
X116029711Y-127092746D01*
X116024730Y-127090424D01*
X116019422Y-127089002D01*
X116019420Y-127089001D01*
X115953655Y-127071379D01*
X115813377Y-127033792D01*
X115595400Y-127014722D01*
X115377423Y-127033792D01*
X115237145Y-127071379D01*
X115171380Y-127089001D01*
X115171378Y-127089002D01*
X115166070Y-127090424D01*
X115161090Y-127092746D01*
X115161088Y-127092747D01*
X114972743Y-127180574D01*
X114972740Y-127180576D01*
X114967762Y-127182897D01*
X114788523Y-127308401D01*
X114633802Y-127463122D01*
X114508298Y-127642361D01*
X114415825Y-127840669D01*
X114359193Y-128052022D01*
X114340123Y-128269999D01*
X109475000Y-128269999D01*
X109475000Y-124459029D01*
X114691200Y-124459029D01*
X114696927Y-124466679D01*
X114881672Y-124579892D01*
X114890467Y-124584374D01*
X115107890Y-124674433D01*
X115117275Y-124677482D01*
X115346108Y-124732421D01*
X115355855Y-124733964D01*
X115590470Y-124752429D01*
X115600330Y-124752429D01*
X115834945Y-124733964D01*
X115844692Y-124732421D01*
X116073525Y-124677482D01*
X116082910Y-124674433D01*
X116300333Y-124584374D01*
X116309128Y-124579892D01*
X116490205Y-124468927D01*
X116499667Y-124458469D01*
X116495884Y-124449693D01*
X115608212Y-123562021D01*
X115594268Y-123554407D01*
X115592435Y-123554538D01*
X115585820Y-123558789D01*
X114697960Y-124446649D01*
X114691200Y-124459029D01*
X109475000Y-124459029D01*
X109475000Y-123194929D01*
X114032970Y-123194929D01*
X114051435Y-123429544D01*
X114052978Y-123439291D01*
X114107917Y-123668124D01*
X114110966Y-123677509D01*
X114201025Y-123894932D01*
X114205507Y-123903727D01*
X114316472Y-124084804D01*
X114326930Y-124094266D01*
X114335706Y-124090483D01*
X115223378Y-123202811D01*
X115229756Y-123191131D01*
X115959808Y-123191131D01*
X115959939Y-123192964D01*
X115964190Y-123199579D01*
X116852050Y-124087439D01*
X116864430Y-124094199D01*
X116872080Y-124088472D01*
X116985293Y-123903727D01*
X116989775Y-123894932D01*
X117079834Y-123677509D01*
X117082883Y-123668124D01*
X117137822Y-123439291D01*
X117139365Y-123429544D01*
X117157830Y-123194929D01*
X117157830Y-123185069D01*
X117139365Y-122950454D01*
X117137822Y-122940707D01*
X117082883Y-122711874D01*
X117079834Y-122702489D01*
X116989775Y-122485066D01*
X116985293Y-122476271D01*
X116874328Y-122295194D01*
X116863870Y-122285732D01*
X116855094Y-122289515D01*
X115967422Y-123177187D01*
X115959808Y-123191131D01*
X115229756Y-123191131D01*
X115230992Y-123188867D01*
X115230861Y-123187034D01*
X115226610Y-123180419D01*
X114338750Y-122292559D01*
X114326370Y-122285799D01*
X114318720Y-122291526D01*
X114205507Y-122476271D01*
X114201025Y-122485066D01*
X114110966Y-122702489D01*
X114107917Y-122711874D01*
X114052978Y-122940707D01*
X114051435Y-122950454D01*
X114032970Y-123185069D01*
X114032970Y-123194929D01*
X109475000Y-123194929D01*
X109475000Y-121921529D01*
X114691133Y-121921529D01*
X114694916Y-121930305D01*
X115582588Y-122817977D01*
X115596532Y-122825591D01*
X115598365Y-122825460D01*
X115604980Y-122821209D01*
X116492840Y-121933349D01*
X116499600Y-121920969D01*
X116493873Y-121913319D01*
X116309128Y-121800106D01*
X116300333Y-121795624D01*
X116082910Y-121705565D01*
X116073525Y-121702516D01*
X115844692Y-121647577D01*
X115834945Y-121646034D01*
X115600330Y-121627569D01*
X115590470Y-121627569D01*
X115355855Y-121646034D01*
X115346108Y-121647577D01*
X115117275Y-121702516D01*
X115107890Y-121705565D01*
X114890467Y-121795624D01*
X114881672Y-121800106D01*
X114700595Y-121911071D01*
X114691133Y-121921529D01*
X109475000Y-121921529D01*
X109475000Y-117791813D01*
X158260806Y-117791813D01*
X158275010Y-118038144D01*
X158276147Y-118043190D01*
X158276148Y-118043196D01*
X158298336Y-118141650D01*
X158329255Y-118278848D01*
X158422084Y-118507460D01*
X158551006Y-118717840D01*
X158712557Y-118904340D01*
X158902399Y-119061950D01*
X159115433Y-119186437D01*
X159120253Y-119188277D01*
X159120258Y-119188280D01*
X159234547Y-119231922D01*
X159345939Y-119274458D01*
X159351007Y-119275489D01*
X159351010Y-119275490D01*
X159470587Y-119299818D01*
X159587726Y-119323651D01*
X159592899Y-119323841D01*
X159592902Y-119323841D01*
X159829136Y-119332503D01*
X159829140Y-119332503D01*
X159834300Y-119332692D01*
X159839420Y-119332036D01*
X159839422Y-119332036D01*
X159915703Y-119322264D01*
X160079041Y-119301340D01*
X160083990Y-119299855D01*
X160083996Y-119299854D01*
X160310424Y-119231922D01*
X160310423Y-119231922D01*
X160315374Y-119230437D01*
X160419266Y-119179541D01*
X160532303Y-119124165D01*
X160532308Y-119124162D01*
X160536954Y-119121886D01*
X160541164Y-119118883D01*
X160541169Y-119118880D01*
X160733617Y-118981608D01*
X160733622Y-118981604D01*
X160737829Y-118978603D01*
X160912605Y-118804436D01*
X161056588Y-118604062D01*
X161165911Y-118382863D01*
X161199045Y-118273806D01*
X161236135Y-118151731D01*
X161236136Y-118151725D01*
X161237639Y-118146779D01*
X161269845Y-117902149D01*
X161271643Y-117828599D01*
X161263660Y-117731505D01*
X161251849Y-117587839D01*
X161251848Y-117587833D01*
X161251425Y-117582688D01*
X161191316Y-117343382D01*
X161092928Y-117117106D01*
X160958905Y-116909938D01*
X160945669Y-116895391D01*
X160906243Y-116852063D01*
X160792846Y-116727441D01*
X160788795Y-116724242D01*
X160788791Y-116724238D01*
X160603264Y-116577718D01*
X160603259Y-116577715D01*
X160599210Y-116574517D01*
X160594694Y-116572024D01*
X160594691Y-116572022D01*
X160387722Y-116457769D01*
X160387718Y-116457767D01*
X160383198Y-116455272D01*
X160378329Y-116453548D01*
X160378325Y-116453546D01*
X160155485Y-116374634D01*
X160155481Y-116374633D01*
X160150610Y-116372908D01*
X160145517Y-116372001D01*
X160145514Y-116372000D01*
X159912783Y-116330544D01*
X159912777Y-116330543D01*
X159907694Y-116329638D01*
X159828324Y-116328668D01*
X159666142Y-116326687D01*
X159666140Y-116326687D01*
X159660972Y-116326624D01*
X159417070Y-116363946D01*
X159182540Y-116440602D01*
X158963679Y-116554534D01*
X158959546Y-116557637D01*
X158959543Y-116557639D01*
X158921771Y-116585999D01*
X158766364Y-116702682D01*
X158595896Y-116881067D01*
X158592982Y-116885339D01*
X158592981Y-116885340D01*
X158573238Y-116914282D01*
X158456851Y-117084899D01*
X158352965Y-117308703D01*
X158287026Y-117546470D01*
X158260806Y-117791813D01*
X109475000Y-117791813D01*
X109475000Y-116585999D01*
X154334318Y-116585999D01*
X154354956Y-116742761D01*
X154415464Y-116888840D01*
X154511718Y-117014281D01*
X154637159Y-117110535D01*
X154783238Y-117171043D01*
X154940000Y-117191681D01*
X154948188Y-117190603D01*
X155088574Y-117172121D01*
X155096762Y-117171043D01*
X155242841Y-117110535D01*
X155368282Y-117014281D01*
X155464536Y-116888840D01*
X155525044Y-116742761D01*
X155545682Y-116585999D01*
X155525044Y-116429237D01*
X155464536Y-116283158D01*
X155368282Y-116157717D01*
X155314796Y-116116676D01*
X155272929Y-116059338D01*
X155265500Y-116016713D01*
X155265500Y-112346799D01*
X173285563Y-112346799D01*
X173285735Y-112350194D01*
X173285735Y-112350195D01*
X173293932Y-112511999D01*
X173304061Y-112711953D01*
X173304598Y-112715308D01*
X173304599Y-112715314D01*
X173322873Y-112829400D01*
X173361887Y-113072974D01*
X173458364Y-113425637D01*
X173592366Y-113765819D01*
X173593949Y-113768834D01*
X173760738Y-114086522D01*
X173760743Y-114086530D01*
X173762322Y-114089538D01*
X173966246Y-114393009D01*
X174201752Y-114672682D01*
X174466085Y-114925284D01*
X174756153Y-115147861D01*
X174759066Y-115149632D01*
X175065647Y-115336036D01*
X175065652Y-115336039D01*
X175068562Y-115337808D01*
X175071650Y-115339254D01*
X175071649Y-115339254D01*
X175396574Y-115491461D01*
X175396584Y-115491465D01*
X175399658Y-115492905D01*
X175402876Y-115494007D01*
X175402879Y-115494008D01*
X175742337Y-115610231D01*
X175742341Y-115610232D01*
X175745568Y-115611337D01*
X175748898Y-115612087D01*
X175748907Y-115612090D01*
X176000967Y-115668893D01*
X176102245Y-115691717D01*
X176105631Y-115692103D01*
X176105638Y-115692104D01*
X176462134Y-115732722D01*
X176462142Y-115732722D01*
X176465517Y-115733107D01*
X176468921Y-115733125D01*
X176468924Y-115733125D01*
X176667264Y-115734163D01*
X176831135Y-115735021D01*
X176834521Y-115734671D01*
X176834523Y-115734671D01*
X177191428Y-115697789D01*
X177191437Y-115697788D01*
X177194820Y-115697438D01*
X177198153Y-115696723D01*
X177198156Y-115696723D01*
X177374251Y-115658971D01*
X177552320Y-115620797D01*
X177899451Y-115505994D01*
X178232153Y-115354373D01*
X178328115Y-115297395D01*
X178543589Y-115169456D01*
X178543594Y-115169453D01*
X178546534Y-115167707D01*
X178572967Y-115147861D01*
X178836184Y-114950232D01*
X178838917Y-114948180D01*
X179105880Y-114698360D01*
X179344302Y-114421169D01*
X179502704Y-114190693D01*
X179549463Y-114122659D01*
X179549468Y-114122652D01*
X179551393Y-114119850D01*
X179553005Y-114116856D01*
X179553010Y-114116848D01*
X179723108Y-113800940D01*
X179724730Y-113797928D01*
X179862286Y-113459168D01*
X179887404Y-113370992D01*
X179912369Y-113283351D01*
X179962451Y-113107534D01*
X179982653Y-112989347D01*
X180023483Y-112750486D01*
X180023483Y-112750484D01*
X180024055Y-112747139D01*
X180026208Y-112711953D01*
X180046266Y-112383995D01*
X180046376Y-112382199D01*
X180046413Y-112371463D01*
X180046452Y-112360420D01*
X180046452Y-112360409D01*
X180046458Y-112358599D01*
X180026686Y-111993512D01*
X179967600Y-111632695D01*
X179869891Y-111280370D01*
X179865444Y-111269193D01*
X179735963Y-110943823D01*
X179734704Y-110940659D01*
X179563618Y-110617534D01*
X179449747Y-110449347D01*
X179360542Y-110317591D01*
X179360535Y-110317582D01*
X179358636Y-110314777D01*
X179356440Y-110312187D01*
X179356435Y-110312181D01*
X179124355Y-110038523D01*
X179124354Y-110038522D01*
X179122155Y-110035929D01*
X178856942Y-109784251D01*
X178566099Y-109562688D01*
X178563187Y-109560931D01*
X178563182Y-109560928D01*
X178255951Y-109375594D01*
X178255942Y-109375589D01*
X178253029Y-109373832D01*
X178249939Y-109372398D01*
X178249934Y-109372395D01*
X177924489Y-109221329D01*
X177924487Y-109221328D01*
X177921393Y-109219892D01*
X177918158Y-109218797D01*
X177918153Y-109218795D01*
X177578307Y-109103763D01*
X177575072Y-109102668D01*
X177565740Y-109100599D01*
X177221455Y-109024273D01*
X177218117Y-109023533D01*
X177189258Y-109020347D01*
X176858084Y-108983785D01*
X176858077Y-108983785D01*
X176854702Y-108983412D01*
X176851303Y-108983406D01*
X176851302Y-108983406D01*
X176678626Y-108983105D01*
X176489080Y-108982774D01*
X176373343Y-108995143D01*
X176128911Y-109021264D01*
X176128903Y-109021265D01*
X176125528Y-109021626D01*
X175768299Y-109099515D01*
X175421570Y-109215529D01*
X175089400Y-109368310D01*
X174775672Y-109556072D01*
X174484057Y-109776619D01*
X174217967Y-110027369D01*
X174215755Y-110029959D01*
X174215754Y-110029960D01*
X174120791Y-110141148D01*
X173980515Y-110305390D01*
X173978587Y-110308217D01*
X173978585Y-110308219D01*
X173780020Y-110599305D01*
X173774477Y-110607430D01*
X173772870Y-110610440D01*
X173772868Y-110610443D01*
X173603870Y-110926949D01*
X173603866Y-110926958D01*
X173602265Y-110929956D01*
X173465892Y-111269193D01*
X173366954Y-111621175D01*
X173306609Y-111981783D01*
X173285563Y-112346799D01*
X155265500Y-112346799D01*
X155265500Y-107629015D01*
X155285502Y-107560894D01*
X155302405Y-107539920D01*
X155571321Y-107271004D01*
X155633633Y-107236978D01*
X155660416Y-107234099D01*
X158139500Y-107234099D01*
X158207621Y-107254101D01*
X158254114Y-107307757D01*
X158265500Y-107360099D01*
X158265500Y-108228347D01*
X158277133Y-108286830D01*
X158321448Y-108353151D01*
X158387769Y-108397466D01*
X158399938Y-108399887D01*
X158399939Y-108399887D01*
X158440184Y-108407892D01*
X158446252Y-108409099D01*
X161085748Y-108409099D01*
X161091816Y-108407892D01*
X161132061Y-108399887D01*
X161132062Y-108399887D01*
X161144231Y-108397466D01*
X161210552Y-108353151D01*
X161254867Y-108286830D01*
X161266500Y-108228347D01*
X161266500Y-105588851D01*
X161254867Y-105530368D01*
X161210552Y-105464047D01*
X161144231Y-105419732D01*
X161132062Y-105417311D01*
X161132061Y-105417311D01*
X161091816Y-105409306D01*
X161085748Y-105408099D01*
X158446252Y-105408099D01*
X158440184Y-105409306D01*
X158399939Y-105417311D01*
X158399938Y-105417311D01*
X158387769Y-105419732D01*
X158321448Y-105464047D01*
X158277133Y-105530368D01*
X158265500Y-105588851D01*
X158265500Y-106457099D01*
X158245498Y-106525220D01*
X158191842Y-106571713D01*
X158139500Y-106583099D01*
X155493111Y-106583099D01*
X155482129Y-106582619D01*
X155455579Y-106580296D01*
X155455578Y-106580296D01*
X155444594Y-106579335D01*
X155433943Y-106582189D01*
X155433942Y-106582189D01*
X155408192Y-106589088D01*
X155397465Y-106591466D01*
X155371215Y-106596095D01*
X155371210Y-106596097D01*
X155360355Y-106598011D01*
X155350807Y-106603524D01*
X155347531Y-106604716D01*
X155344369Y-106606190D01*
X155333716Y-106609045D01*
X155324685Y-106615369D01*
X155302856Y-106630654D01*
X155293585Y-106636560D01*
X155270494Y-106649892D01*
X155260945Y-106655405D01*
X155253859Y-106663850D01*
X155236715Y-106684281D01*
X155229289Y-106692384D01*
X154723785Y-107197888D01*
X154715681Y-107205315D01*
X154686806Y-107229544D01*
X154681293Y-107239093D01*
X154667961Y-107262184D01*
X154662055Y-107271455D01*
X154640446Y-107302315D01*
X154637592Y-107312965D01*
X154636115Y-107316133D01*
X154634923Y-107319409D01*
X154629412Y-107328954D01*
X154623921Y-107360099D01*
X154622870Y-107366057D01*
X154620492Y-107376784D01*
X154610736Y-107413192D01*
X154611697Y-107424177D01*
X154611697Y-107424179D01*
X154614020Y-107450727D01*
X154614500Y-107461709D01*
X154614500Y-116016713D01*
X154594498Y-116084834D01*
X154565204Y-116116676D01*
X154511718Y-116157717D01*
X154415464Y-116283158D01*
X154354956Y-116429237D01*
X154334318Y-116585999D01*
X109475000Y-116585999D01*
X109475000Y-113755850D01*
X110451330Y-113755850D01*
X110487216Y-113964696D01*
X110560560Y-114163505D01*
X110668907Y-114345619D01*
X110808627Y-114504939D01*
X110975041Y-114636129D01*
X110980157Y-114638820D01*
X110980159Y-114638822D01*
X111097755Y-114700692D01*
X111162576Y-114734796D01*
X111364951Y-114797635D01*
X111370688Y-114798314D01*
X111533318Y-114817563D01*
X111533325Y-114817563D01*
X111537005Y-114817999D01*
X111754461Y-114817999D01*
X111911718Y-114803549D01*
X111917280Y-114801980D01*
X111917282Y-114801980D01*
X112013693Y-114774789D01*
X112115669Y-114746029D01*
X112305722Y-114652305D01*
X112475513Y-114525516D01*
X112619356Y-114369908D01*
X112732432Y-114190693D01*
X112810956Y-113993872D01*
X112816760Y-113964696D01*
X112851170Y-113791704D01*
X112851170Y-113791701D01*
X112852297Y-113786037D01*
X112852618Y-113761548D01*
X112854994Y-113579930D01*
X112855070Y-113574148D01*
X112830096Y-113428807D01*
X112820162Y-113370992D01*
X112820161Y-113370989D01*
X112819184Y-113365302D01*
X112745840Y-113166493D01*
X112637493Y-112984379D01*
X112497773Y-112825059D01*
X112467291Y-112801029D01*
X112335898Y-112697447D01*
X112335896Y-112697446D01*
X112331359Y-112693869D01*
X112326243Y-112691178D01*
X112326241Y-112691176D01*
X112148941Y-112597894D01*
X112148939Y-112597893D01*
X112143824Y-112595202D01*
X111941449Y-112532363D01*
X111840380Y-112520401D01*
X111775083Y-112492531D01*
X111735219Y-112433782D01*
X111733445Y-112362808D01*
X111743177Y-112346799D01*
X143085563Y-112346799D01*
X143085735Y-112350194D01*
X143085735Y-112350195D01*
X143093932Y-112511999D01*
X143104061Y-112711953D01*
X143104598Y-112715308D01*
X143104599Y-112715314D01*
X143122873Y-112829400D01*
X143161887Y-113072974D01*
X143258364Y-113425637D01*
X143392366Y-113765819D01*
X143393949Y-113768834D01*
X143560738Y-114086522D01*
X143560743Y-114086530D01*
X143562322Y-114089538D01*
X143766246Y-114393009D01*
X144001752Y-114672682D01*
X144266085Y-114925284D01*
X144556153Y-115147861D01*
X144559066Y-115149632D01*
X144865647Y-115336036D01*
X144865652Y-115336039D01*
X144868562Y-115337808D01*
X144871650Y-115339254D01*
X144871649Y-115339254D01*
X145196574Y-115491461D01*
X145196584Y-115491465D01*
X145199658Y-115492905D01*
X145202876Y-115494007D01*
X145202879Y-115494008D01*
X145542337Y-115610231D01*
X145542341Y-115610232D01*
X145545568Y-115611337D01*
X145548898Y-115612087D01*
X145548907Y-115612090D01*
X145800967Y-115668893D01*
X145902245Y-115691717D01*
X145905631Y-115692103D01*
X145905638Y-115692104D01*
X146262134Y-115732722D01*
X146262142Y-115732722D01*
X146265517Y-115733107D01*
X146268921Y-115733125D01*
X146268924Y-115733125D01*
X146467264Y-115734163D01*
X146631135Y-115735021D01*
X146634521Y-115734671D01*
X146634523Y-115734671D01*
X146991428Y-115697789D01*
X146991437Y-115697788D01*
X146994820Y-115697438D01*
X146998153Y-115696723D01*
X146998156Y-115696723D01*
X147174251Y-115658971D01*
X147352320Y-115620797D01*
X147699451Y-115505994D01*
X148032153Y-115354373D01*
X148128115Y-115297395D01*
X148343589Y-115169456D01*
X148343594Y-115169453D01*
X148346534Y-115167707D01*
X148372967Y-115147861D01*
X148636184Y-114950232D01*
X148638917Y-114948180D01*
X148905880Y-114698360D01*
X149144302Y-114421169D01*
X149302704Y-114190693D01*
X149349463Y-114122659D01*
X149349468Y-114122652D01*
X149351393Y-114119850D01*
X149353005Y-114116856D01*
X149353010Y-114116848D01*
X149523108Y-113800940D01*
X149524730Y-113797928D01*
X149662286Y-113459168D01*
X149687404Y-113370992D01*
X149712369Y-113283351D01*
X149762451Y-113107534D01*
X149782653Y-112989347D01*
X149823483Y-112750486D01*
X149823483Y-112750484D01*
X149824055Y-112747139D01*
X149826208Y-112711953D01*
X149846266Y-112383995D01*
X149846376Y-112382199D01*
X149846413Y-112371463D01*
X149846452Y-112360420D01*
X149846452Y-112360409D01*
X149846458Y-112358599D01*
X149826686Y-111993512D01*
X149767600Y-111632695D01*
X149669891Y-111280370D01*
X149665444Y-111269193D01*
X149535963Y-110943823D01*
X149534704Y-110940659D01*
X149363618Y-110617534D01*
X149249747Y-110449347D01*
X149160542Y-110317591D01*
X149160535Y-110317582D01*
X149158636Y-110314777D01*
X149156440Y-110312187D01*
X149156435Y-110312181D01*
X148924355Y-110038523D01*
X148924354Y-110038522D01*
X148922155Y-110035929D01*
X148656942Y-109784251D01*
X148366099Y-109562688D01*
X148363187Y-109560931D01*
X148363182Y-109560928D01*
X148055951Y-109375594D01*
X148055942Y-109375589D01*
X148053029Y-109373832D01*
X148049939Y-109372398D01*
X148049934Y-109372395D01*
X147724489Y-109221329D01*
X147724487Y-109221328D01*
X147721393Y-109219892D01*
X147718158Y-109218797D01*
X147718153Y-109218795D01*
X147378307Y-109103763D01*
X147375072Y-109102668D01*
X147365740Y-109100599D01*
X147021455Y-109024273D01*
X147018117Y-109023533D01*
X146989258Y-109020347D01*
X146658084Y-108983785D01*
X146658077Y-108983785D01*
X146654702Y-108983412D01*
X146651303Y-108983406D01*
X146651302Y-108983406D01*
X146478626Y-108983105D01*
X146289080Y-108982774D01*
X146173343Y-108995143D01*
X145928911Y-109021264D01*
X145928903Y-109021265D01*
X145925528Y-109021626D01*
X145568299Y-109099515D01*
X145221570Y-109215529D01*
X144889400Y-109368310D01*
X144575672Y-109556072D01*
X144284057Y-109776619D01*
X144017967Y-110027369D01*
X144015755Y-110029959D01*
X144015754Y-110029960D01*
X143920791Y-110141148D01*
X143780515Y-110305390D01*
X143778587Y-110308217D01*
X143778585Y-110308219D01*
X143580020Y-110599305D01*
X143574477Y-110607430D01*
X143572870Y-110610440D01*
X143572868Y-110610443D01*
X143403870Y-110926949D01*
X143403866Y-110926958D01*
X143402265Y-110929956D01*
X143265892Y-111269193D01*
X143166954Y-111621175D01*
X143106609Y-111981783D01*
X143085563Y-112346799D01*
X111743177Y-112346799D01*
X111770324Y-112302141D01*
X111834147Y-112271044D01*
X111843660Y-112269803D01*
X111905962Y-112264078D01*
X111905963Y-112264078D01*
X111911718Y-112263549D01*
X111917280Y-112261980D01*
X111917282Y-112261980D01*
X112013693Y-112234789D01*
X112115669Y-112206029D01*
X112305722Y-112112305D01*
X112475513Y-111985516D01*
X112619356Y-111829908D01*
X112732432Y-111650693D01*
X112810956Y-111453872D01*
X112816760Y-111424696D01*
X112851170Y-111251704D01*
X112851170Y-111251701D01*
X112852297Y-111246037D01*
X112852618Y-111221548D01*
X112854994Y-111039930D01*
X112855070Y-111034148D01*
X112848909Y-110998294D01*
X112820162Y-110830992D01*
X112820161Y-110830989D01*
X112819184Y-110825302D01*
X112745840Y-110626493D01*
X112637493Y-110444379D01*
X112497773Y-110285059D01*
X112331359Y-110153869D01*
X112326243Y-110151178D01*
X112326241Y-110151176D01*
X112148941Y-110057894D01*
X112148939Y-110057893D01*
X112143824Y-110055202D01*
X111941449Y-109992363D01*
X111914100Y-109989126D01*
X111848803Y-109961255D01*
X111808939Y-109902507D01*
X111807165Y-109831533D01*
X111844044Y-109770866D01*
X111907868Y-109739768D01*
X111928910Y-109737999D01*
X112672948Y-109737999D01*
X112679016Y-109736792D01*
X112719261Y-109728787D01*
X112719262Y-109728787D01*
X112731431Y-109726366D01*
X112797752Y-109682051D01*
X112842067Y-109615730D01*
X112853700Y-109557247D01*
X112853700Y-108203999D01*
X124870318Y-108203999D01*
X124890956Y-108360761D01*
X124951464Y-108506840D01*
X125047718Y-108632281D01*
X125173159Y-108728535D01*
X125319238Y-108789043D01*
X125476000Y-108809681D01*
X125484188Y-108808603D01*
X125624574Y-108790121D01*
X125632762Y-108789043D01*
X125778841Y-108728535D01*
X125904282Y-108632281D01*
X125945323Y-108578795D01*
X126002661Y-108536928D01*
X126045286Y-108529499D01*
X131806290Y-108529499D01*
X131817272Y-108529979D01*
X131843820Y-108532302D01*
X131843822Y-108532302D01*
X131854807Y-108533263D01*
X131891215Y-108523507D01*
X131901942Y-108521129D01*
X131905301Y-108520537D01*
X131939045Y-108514587D01*
X131948590Y-108509076D01*
X131951866Y-108507884D01*
X131955034Y-108506407D01*
X131965684Y-108503553D01*
X131996544Y-108481944D01*
X132005815Y-108476038D01*
X132028906Y-108462706D01*
X132038455Y-108457193D01*
X132062685Y-108428316D01*
X132070111Y-108420214D01*
X132804215Y-107686110D01*
X132812319Y-107678683D01*
X132832749Y-107661540D01*
X132841194Y-107654454D01*
X132859865Y-107622115D01*
X132860039Y-107621814D01*
X132865945Y-107612543D01*
X132870048Y-107606683D01*
X132887554Y-107581683D01*
X132890408Y-107571033D01*
X132891885Y-107567865D01*
X132893077Y-107564589D01*
X132898588Y-107555044D01*
X132905130Y-107517941D01*
X132907509Y-107507209D01*
X132909907Y-107498260D01*
X132917264Y-107470806D01*
X132915988Y-107456213D01*
X132913979Y-107433256D01*
X132913500Y-107422275D01*
X132913500Y-103439285D01*
X132933502Y-103371164D01*
X132962796Y-103339322D01*
X133009736Y-103303304D01*
X133016282Y-103298281D01*
X133112536Y-103172840D01*
X133173044Y-103026761D01*
X133193682Y-102869999D01*
X133173044Y-102713237D01*
X133112536Y-102567158D01*
X133016282Y-102441717D01*
X132890841Y-102345463D01*
X132744762Y-102284955D01*
X132588000Y-102264317D01*
X132431238Y-102284955D01*
X132285159Y-102345463D01*
X132159718Y-102441717D01*
X132063464Y-102567158D01*
X132002956Y-102713237D01*
X131982318Y-102869999D01*
X132002956Y-103026761D01*
X132063464Y-103172840D01*
X132159718Y-103298281D01*
X132166264Y-103303304D01*
X132213204Y-103339322D01*
X132255071Y-103396660D01*
X132262500Y-103439285D01*
X132262500Y-107254983D01*
X132242498Y-107323104D01*
X132225595Y-107344078D01*
X131728079Y-107841594D01*
X131665767Y-107875620D01*
X131638984Y-107878499D01*
X126045286Y-107878499D01*
X125977165Y-107858497D01*
X125945323Y-107829203D01*
X125909305Y-107782263D01*
X125904282Y-107775717D01*
X125778841Y-107679463D01*
X125632762Y-107618955D01*
X125476000Y-107598317D01*
X125319238Y-107618955D01*
X125173159Y-107679463D01*
X125047718Y-107775717D01*
X124951464Y-107901158D01*
X124890956Y-108047237D01*
X124870318Y-108203999D01*
X112853700Y-108203999D01*
X112853700Y-107612751D01*
X112842067Y-107554268D01*
X112797752Y-107487947D01*
X112755668Y-107459827D01*
X112741747Y-107450525D01*
X112731431Y-107443632D01*
X112719262Y-107441211D01*
X112719261Y-107441211D01*
X112679016Y-107433206D01*
X112672948Y-107431999D01*
X110633452Y-107431999D01*
X110627384Y-107433206D01*
X110587139Y-107441211D01*
X110587138Y-107441211D01*
X110574969Y-107443632D01*
X110564653Y-107450525D01*
X110550732Y-107459827D01*
X110508648Y-107487947D01*
X110464333Y-107554268D01*
X110452700Y-107612751D01*
X110452700Y-109557247D01*
X110464333Y-109615730D01*
X110508648Y-109682051D01*
X110574969Y-109726366D01*
X110587138Y-109728787D01*
X110587139Y-109728787D01*
X110627384Y-109736792D01*
X110633452Y-109737999D01*
X111366853Y-109737999D01*
X111434974Y-109758001D01*
X111481467Y-109811657D01*
X111491571Y-109881931D01*
X111462077Y-109946511D01*
X111402351Y-109984895D01*
X111396571Y-109986275D01*
X111394682Y-109986449D01*
X111389120Y-109988018D01*
X111389118Y-109988018D01*
X111292706Y-110015209D01*
X111190731Y-110043969D01*
X111000678Y-110137693D01*
X110830887Y-110264482D01*
X110687044Y-110420090D01*
X110573968Y-110599305D01*
X110495444Y-110796126D01*
X110494318Y-110801786D01*
X110494317Y-110801790D01*
X110466065Y-110943823D01*
X110454103Y-111003961D01*
X110454027Y-111009736D01*
X110454027Y-111009740D01*
X110453708Y-111034148D01*
X110451330Y-111215850D01*
X110487216Y-111424696D01*
X110560560Y-111623505D01*
X110668907Y-111805619D01*
X110808627Y-111964939D01*
X110813162Y-111968514D01*
X110813163Y-111968515D01*
X110840605Y-111990148D01*
X110975041Y-112096129D01*
X110980157Y-112098820D01*
X110980159Y-112098822D01*
X111157459Y-112192104D01*
X111162576Y-112194796D01*
X111364951Y-112257635D01*
X111466020Y-112269597D01*
X111531317Y-112297467D01*
X111571181Y-112356216D01*
X111572955Y-112427190D01*
X111536076Y-112487857D01*
X111472253Y-112518954D01*
X111462740Y-112520195D01*
X111400438Y-112525920D01*
X111400437Y-112525920D01*
X111394682Y-112526449D01*
X111389120Y-112528018D01*
X111389118Y-112528018D01*
X111292707Y-112555209D01*
X111190731Y-112583969D01*
X111000678Y-112677693D01*
X110996052Y-112681147D01*
X110996051Y-112681148D01*
X110903196Y-112750486D01*
X110830887Y-112804482D01*
X110687044Y-112960090D01*
X110573968Y-113139305D01*
X110495444Y-113336126D01*
X110494318Y-113341786D01*
X110494317Y-113341790D01*
X110471621Y-113455890D01*
X110454103Y-113543961D01*
X110454027Y-113549736D01*
X110454027Y-113549740D01*
X110453708Y-113574148D01*
X110451330Y-113755850D01*
X109475000Y-113755850D01*
X109475000Y-98869499D01*
X114340123Y-98869499D01*
X114359193Y-99087476D01*
X114415825Y-99298829D01*
X114508298Y-99497137D01*
X114633802Y-99676376D01*
X114788523Y-99831097D01*
X114793031Y-99834254D01*
X114793034Y-99834256D01*
X114963252Y-99953444D01*
X114967761Y-99956601D01*
X114972743Y-99958924D01*
X114972748Y-99958927D01*
X115161088Y-100046751D01*
X115166070Y-100049074D01*
X115171378Y-100050496D01*
X115171380Y-100050497D01*
X115237145Y-100068119D01*
X115377423Y-100105706D01*
X115595400Y-100124776D01*
X115813377Y-100105706D01*
X115953655Y-100068119D01*
X116019420Y-100050497D01*
X116019422Y-100050496D01*
X116024730Y-100049074D01*
X116029712Y-100046751D01*
X116218052Y-99958927D01*
X116218057Y-99958924D01*
X116223039Y-99956601D01*
X116227548Y-99953444D01*
X116397766Y-99834256D01*
X116397769Y-99834254D01*
X116402277Y-99831097D01*
X116556998Y-99676376D01*
X116682502Y-99497137D01*
X116774975Y-99298829D01*
X116831607Y-99087476D01*
X116850677Y-98869499D01*
X116831607Y-98651522D01*
X116774975Y-98440169D01*
X116682502Y-98241861D01*
X116556998Y-98062622D01*
X116402277Y-97907901D01*
X116397769Y-97904744D01*
X116397766Y-97904742D01*
X116227548Y-97785554D01*
X116227545Y-97785552D01*
X116223039Y-97782397D01*
X116218057Y-97780074D01*
X116218052Y-97780071D01*
X116029712Y-97692247D01*
X116029711Y-97692246D01*
X116024730Y-97689924D01*
X116019422Y-97688502D01*
X116019420Y-97688501D01*
X115953655Y-97670879D01*
X115813377Y-97633292D01*
X115595400Y-97614222D01*
X115377423Y-97633292D01*
X115237145Y-97670879D01*
X115171380Y-97688501D01*
X115171378Y-97688502D01*
X115166070Y-97689924D01*
X115161090Y-97692246D01*
X115161088Y-97692247D01*
X114972743Y-97780074D01*
X114972740Y-97780076D01*
X114967762Y-97782397D01*
X114788523Y-97907901D01*
X114633802Y-98062622D01*
X114508298Y-98241861D01*
X114415825Y-98440169D01*
X114359193Y-98651522D01*
X114340123Y-98869499D01*
X109475000Y-98869499D01*
X109475000Y-95058529D01*
X114691200Y-95058529D01*
X114696927Y-95066179D01*
X114881672Y-95179392D01*
X114890467Y-95183874D01*
X115107890Y-95273933D01*
X115117275Y-95276982D01*
X115346108Y-95331921D01*
X115355855Y-95333464D01*
X115590470Y-95351929D01*
X115600330Y-95351929D01*
X115834945Y-95333464D01*
X115844692Y-95331921D01*
X116073525Y-95276982D01*
X116082910Y-95273933D01*
X116300333Y-95183874D01*
X116309128Y-95179392D01*
X116490205Y-95068427D01*
X116499667Y-95057969D01*
X116495884Y-95049193D01*
X115608212Y-94161521D01*
X115594268Y-94153907D01*
X115592435Y-94154038D01*
X115585820Y-94158289D01*
X114697960Y-95046149D01*
X114691200Y-95058529D01*
X109475000Y-95058529D01*
X109475000Y-93794429D01*
X114032970Y-93794429D01*
X114051435Y-94029044D01*
X114052978Y-94038791D01*
X114107917Y-94267624D01*
X114110966Y-94277009D01*
X114201025Y-94494432D01*
X114205507Y-94503227D01*
X114316472Y-94684304D01*
X114326930Y-94693766D01*
X114335706Y-94689983D01*
X115223378Y-93802311D01*
X115229756Y-93790631D01*
X115959808Y-93790631D01*
X115959939Y-93792464D01*
X115964190Y-93799079D01*
X116852050Y-94686939D01*
X116864430Y-94693699D01*
X116872080Y-94687972D01*
X116985293Y-94503227D01*
X116989775Y-94494432D01*
X117079834Y-94277009D01*
X117082883Y-94267624D01*
X117137822Y-94038791D01*
X117139365Y-94029044D01*
X117157830Y-93794429D01*
X117157830Y-93784569D01*
X117139365Y-93549954D01*
X117137822Y-93540207D01*
X117082883Y-93311374D01*
X117079834Y-93301989D01*
X116989775Y-93084566D01*
X116985293Y-93075771D01*
X116874328Y-92894694D01*
X116863870Y-92885232D01*
X116855094Y-92889015D01*
X115967422Y-93776687D01*
X115959808Y-93790631D01*
X115229756Y-93790631D01*
X115230992Y-93788367D01*
X115230861Y-93786534D01*
X115226610Y-93779919D01*
X114338750Y-92892059D01*
X114326370Y-92885299D01*
X114318720Y-92891026D01*
X114205507Y-93075771D01*
X114201025Y-93084566D01*
X114110966Y-93301989D01*
X114107917Y-93311374D01*
X114052978Y-93540207D01*
X114051435Y-93549954D01*
X114032970Y-93784569D01*
X114032970Y-93794429D01*
X109475000Y-93794429D01*
X109475000Y-92521029D01*
X114691133Y-92521029D01*
X114694916Y-92529805D01*
X115582588Y-93417477D01*
X115596532Y-93425091D01*
X115598365Y-93424960D01*
X115604980Y-93420709D01*
X116492840Y-92532849D01*
X116499600Y-92520469D01*
X116493873Y-92512819D01*
X116309128Y-92399606D01*
X116300333Y-92395124D01*
X116082910Y-92305065D01*
X116073525Y-92302016D01*
X115844692Y-92247077D01*
X115834945Y-92245534D01*
X115600330Y-92227069D01*
X115590470Y-92227069D01*
X115355855Y-92245534D01*
X115346108Y-92247077D01*
X115117275Y-92302016D01*
X115107890Y-92305065D01*
X114890467Y-92395124D01*
X114881672Y-92399606D01*
X114700595Y-92510571D01*
X114691133Y-92521029D01*
X109475000Y-92521029D01*
X109475000Y-82285250D01*
X110468530Y-82285250D01*
X110469509Y-82290947D01*
X110469509Y-82290948D01*
X110502658Y-82483863D01*
X110504416Y-82494096D01*
X110577760Y-82692905D01*
X110686107Y-82875019D01*
X110825827Y-83034339D01*
X110830362Y-83037914D01*
X110830363Y-83037915D01*
X110914239Y-83104037D01*
X110992241Y-83165529D01*
X110997357Y-83168220D01*
X110997359Y-83168222D01*
X111174659Y-83261504D01*
X111179776Y-83264196D01*
X111382151Y-83327035D01*
X111387888Y-83327714D01*
X111550518Y-83346963D01*
X111550525Y-83346963D01*
X111554205Y-83347399D01*
X111771661Y-83347399D01*
X111928918Y-83332949D01*
X111934480Y-83331380D01*
X111934482Y-83331380D01*
X112030894Y-83304189D01*
X112132869Y-83275429D01*
X112322922Y-83181705D01*
X112472527Y-83069990D01*
X112488089Y-83058369D01*
X112488090Y-83058368D01*
X112492713Y-83054916D01*
X112630741Y-82905599D01*
X133404718Y-82905599D01*
X133425356Y-83062361D01*
X133485864Y-83208440D01*
X133582118Y-83333881D01*
X133707559Y-83430135D01*
X133853638Y-83490643D01*
X134010400Y-83511281D01*
X134018588Y-83510203D01*
X134158974Y-83491721D01*
X134167162Y-83490643D01*
X134313241Y-83430135D01*
X134438682Y-83333881D01*
X134534936Y-83208440D01*
X134595444Y-83062361D01*
X134616082Y-82905599D01*
X134595444Y-82748837D01*
X134534936Y-82602758D01*
X134438682Y-82477317D01*
X134385196Y-82436276D01*
X134343329Y-82378938D01*
X134335900Y-82336313D01*
X134335900Y-81709413D01*
X158924606Y-81709413D01*
X158938810Y-81955744D01*
X158939947Y-81960790D01*
X158939948Y-81960796D01*
X158962136Y-82059250D01*
X158993055Y-82196448D01*
X159085884Y-82425060D01*
X159214806Y-82635440D01*
X159376357Y-82821940D01*
X159566199Y-82979550D01*
X159779233Y-83104037D01*
X159784053Y-83105877D01*
X159784058Y-83105880D01*
X159898347Y-83149522D01*
X160009739Y-83192058D01*
X160014807Y-83193089D01*
X160014810Y-83193090D01*
X160122456Y-83214991D01*
X160251526Y-83241251D01*
X160256699Y-83241441D01*
X160256702Y-83241441D01*
X160492936Y-83250103D01*
X160492940Y-83250103D01*
X160498100Y-83250292D01*
X160503220Y-83249636D01*
X160503222Y-83249636D01*
X160579503Y-83239864D01*
X160742841Y-83218940D01*
X160747790Y-83217455D01*
X160747796Y-83217454D01*
X160974224Y-83149522D01*
X160974223Y-83149522D01*
X160979174Y-83148037D01*
X161138488Y-83069990D01*
X161196103Y-83041765D01*
X161196108Y-83041762D01*
X161200754Y-83039486D01*
X161204964Y-83036483D01*
X161204969Y-83036480D01*
X161397417Y-82899208D01*
X161397422Y-82899204D01*
X161401629Y-82896203D01*
X161576405Y-82722036D01*
X161593772Y-82697868D01*
X161717370Y-82525862D01*
X161720388Y-82521662D01*
X161739070Y-82483863D01*
X161811993Y-82336313D01*
X161829711Y-82300463D01*
X161891270Y-82097850D01*
X161899935Y-82069331D01*
X161899936Y-82069325D01*
X161901439Y-82064379D01*
X161926873Y-81871190D01*
X161933208Y-81823071D01*
X161933209Y-81823065D01*
X161933645Y-81819749D01*
X161935443Y-81746199D01*
X161916743Y-81518747D01*
X161915649Y-81505439D01*
X161915648Y-81505433D01*
X161915225Y-81500288D01*
X161855116Y-81260982D01*
X161768198Y-81061084D01*
X161758793Y-81039455D01*
X161758793Y-81039454D01*
X161756728Y-81034706D01*
X161622705Y-80827538D01*
X161598052Y-80800444D01*
X161540320Y-80736998D01*
X161456646Y-80645041D01*
X161452595Y-80641842D01*
X161452591Y-80641838D01*
X161267064Y-80495318D01*
X161267059Y-80495315D01*
X161263010Y-80492117D01*
X161258494Y-80489624D01*
X161258491Y-80489622D01*
X161051522Y-80375369D01*
X161051518Y-80375367D01*
X161046998Y-80372872D01*
X161042129Y-80371148D01*
X161042125Y-80371146D01*
X160819285Y-80292234D01*
X160819281Y-80292233D01*
X160814410Y-80290508D01*
X160809317Y-80289601D01*
X160809314Y-80289600D01*
X160576583Y-80248144D01*
X160576577Y-80248143D01*
X160571494Y-80247238D01*
X160492124Y-80246268D01*
X160329942Y-80244287D01*
X160329940Y-80244287D01*
X160324772Y-80244224D01*
X160080870Y-80281546D01*
X159846340Y-80358202D01*
X159627479Y-80472134D01*
X159623346Y-80475237D01*
X159623343Y-80475239D01*
X159434299Y-80617177D01*
X159430164Y-80620282D01*
X159409692Y-80641705D01*
X159266660Y-80791380D01*
X159259696Y-80798667D01*
X159256782Y-80802939D01*
X159256781Y-80802940D01*
X159160868Y-80943544D01*
X159120651Y-81002499D01*
X159016765Y-81226303D01*
X158950826Y-81464070D01*
X158924606Y-81709413D01*
X134335900Y-81709413D01*
X134335900Y-76264399D01*
X143749363Y-76264399D01*
X143767861Y-76629553D01*
X143825687Y-76990574D01*
X143922164Y-77343237D01*
X144056166Y-77683419D01*
X144057749Y-77686434D01*
X144224538Y-78004122D01*
X144224543Y-78004130D01*
X144226122Y-78007138D01*
X144430046Y-78310609D01*
X144665552Y-78590282D01*
X144929885Y-78842884D01*
X145219953Y-79065461D01*
X145222866Y-79067232D01*
X145529447Y-79253636D01*
X145529452Y-79253639D01*
X145532362Y-79255408D01*
X145535450Y-79256854D01*
X145535449Y-79256854D01*
X145860374Y-79409061D01*
X145860384Y-79409065D01*
X145863458Y-79410505D01*
X145866676Y-79411607D01*
X145866679Y-79411608D01*
X146206137Y-79527831D01*
X146206141Y-79527832D01*
X146209368Y-79528937D01*
X146212698Y-79529687D01*
X146212707Y-79529690D01*
X146388607Y-79569330D01*
X146566045Y-79609317D01*
X146569431Y-79609703D01*
X146569438Y-79609704D01*
X146925934Y-79650322D01*
X146925942Y-79650322D01*
X146929317Y-79650707D01*
X146932721Y-79650725D01*
X146932724Y-79650725D01*
X147131064Y-79651763D01*
X147294935Y-79652621D01*
X147298321Y-79652271D01*
X147298323Y-79652271D01*
X147655228Y-79615389D01*
X147655237Y-79615388D01*
X147658620Y-79615038D01*
X147661953Y-79614323D01*
X147661956Y-79614323D01*
X147871830Y-79569330D01*
X148016120Y-79538397D01*
X148363251Y-79423594D01*
X148695953Y-79271973D01*
X148891454Y-79155893D01*
X149007389Y-79087056D01*
X149007394Y-79087053D01*
X149010334Y-79085307D01*
X149036767Y-79065461D01*
X149299984Y-78867832D01*
X149302717Y-78865780D01*
X149569680Y-78615960D01*
X149808102Y-78338769D01*
X149949551Y-78132960D01*
X150013263Y-78040259D01*
X150013268Y-78040252D01*
X150015193Y-78037450D01*
X150016805Y-78034456D01*
X150016810Y-78034448D01*
X150186908Y-77718540D01*
X150188530Y-77715528D01*
X150326086Y-77376768D01*
X150426251Y-77025134D01*
X150487855Y-76664739D01*
X150490008Y-76629553D01*
X150510066Y-76301595D01*
X150510176Y-76299799D01*
X150510258Y-76276199D01*
X150509619Y-76264399D01*
X173949363Y-76264399D01*
X173967861Y-76629553D01*
X174025687Y-76990574D01*
X174122164Y-77343237D01*
X174256166Y-77683419D01*
X174257749Y-77686434D01*
X174424538Y-78004122D01*
X174424543Y-78004130D01*
X174426122Y-78007138D01*
X174630046Y-78310609D01*
X174865552Y-78590282D01*
X175129885Y-78842884D01*
X175419953Y-79065461D01*
X175422866Y-79067232D01*
X175729447Y-79253636D01*
X175729452Y-79253639D01*
X175732362Y-79255408D01*
X175735450Y-79256854D01*
X175735449Y-79256854D01*
X176060374Y-79409061D01*
X176060384Y-79409065D01*
X176063458Y-79410505D01*
X176066676Y-79411607D01*
X176066679Y-79411608D01*
X176406137Y-79527831D01*
X176406141Y-79527832D01*
X176409368Y-79528937D01*
X176412698Y-79529687D01*
X176412707Y-79529690D01*
X176588607Y-79569330D01*
X176766045Y-79609317D01*
X176769431Y-79609703D01*
X176769438Y-79609704D01*
X177125934Y-79650322D01*
X177125942Y-79650322D01*
X177129317Y-79650707D01*
X177132721Y-79650725D01*
X177132724Y-79650725D01*
X177331064Y-79651763D01*
X177494935Y-79652621D01*
X177498321Y-79652271D01*
X177498323Y-79652271D01*
X177855228Y-79615389D01*
X177855237Y-79615388D01*
X177858620Y-79615038D01*
X177861953Y-79614323D01*
X177861956Y-79614323D01*
X178071830Y-79569330D01*
X178216120Y-79538397D01*
X178563251Y-79423594D01*
X178895953Y-79271973D01*
X179091454Y-79155893D01*
X179207389Y-79087056D01*
X179207394Y-79087053D01*
X179210334Y-79085307D01*
X179236767Y-79065461D01*
X179499984Y-78867832D01*
X179502717Y-78865780D01*
X179769680Y-78615960D01*
X180008102Y-78338769D01*
X180149551Y-78132960D01*
X180213263Y-78040259D01*
X180213268Y-78040252D01*
X180215193Y-78037450D01*
X180216805Y-78034456D01*
X180216810Y-78034448D01*
X180386908Y-77718540D01*
X180388530Y-77715528D01*
X180526086Y-77376768D01*
X180626251Y-77025134D01*
X180687855Y-76664739D01*
X180690008Y-76629553D01*
X180710066Y-76301595D01*
X180710176Y-76299799D01*
X180710258Y-76276199D01*
X180690486Y-75911112D01*
X180631400Y-75550295D01*
X180533691Y-75197970D01*
X180529244Y-75186793D01*
X180399763Y-74861423D01*
X180398504Y-74858259D01*
X180227418Y-74535134D01*
X180218665Y-74522206D01*
X180024342Y-74235191D01*
X180024335Y-74235182D01*
X180022436Y-74232377D01*
X180020240Y-74229787D01*
X180020235Y-74229781D01*
X179788155Y-73956123D01*
X179788154Y-73956122D01*
X179785955Y-73953529D01*
X179520742Y-73701851D01*
X179229899Y-73480288D01*
X179226987Y-73478531D01*
X179226982Y-73478528D01*
X178919751Y-73293194D01*
X178919742Y-73293189D01*
X178916829Y-73291432D01*
X178913739Y-73289998D01*
X178913734Y-73289995D01*
X178588289Y-73138929D01*
X178588287Y-73138928D01*
X178585193Y-73137492D01*
X178581958Y-73136397D01*
X178581953Y-73136395D01*
X178242107Y-73021363D01*
X178238872Y-73020268D01*
X178229540Y-73018199D01*
X177885255Y-72941873D01*
X177881917Y-72941133D01*
X177853058Y-72937947D01*
X177521884Y-72901385D01*
X177521877Y-72901385D01*
X177518502Y-72901012D01*
X177515103Y-72901006D01*
X177515102Y-72901006D01*
X177342426Y-72900705D01*
X177152880Y-72900374D01*
X177037143Y-72912743D01*
X176792711Y-72938864D01*
X176792703Y-72938865D01*
X176789328Y-72939226D01*
X176432099Y-73017115D01*
X176085370Y-73133129D01*
X175753200Y-73285910D01*
X175439472Y-73473672D01*
X175147857Y-73694219D01*
X174881767Y-73944969D01*
X174644315Y-74222990D01*
X174642387Y-74225817D01*
X174642385Y-74225819D01*
X174637912Y-74232377D01*
X174438277Y-74525030D01*
X174436670Y-74528040D01*
X174436668Y-74528043D01*
X174267670Y-74844549D01*
X174267666Y-74844558D01*
X174266065Y-74847556D01*
X174129692Y-75186793D01*
X174030754Y-75538775D01*
X173970409Y-75899383D01*
X173949363Y-76264399D01*
X150509619Y-76264399D01*
X150490486Y-75911112D01*
X150431400Y-75550295D01*
X150333691Y-75197970D01*
X150329244Y-75186793D01*
X150199763Y-74861423D01*
X150198504Y-74858259D01*
X150027418Y-74535134D01*
X150018665Y-74522206D01*
X149824342Y-74235191D01*
X149824335Y-74235182D01*
X149822436Y-74232377D01*
X149820240Y-74229787D01*
X149820235Y-74229781D01*
X149588155Y-73956123D01*
X149588154Y-73956122D01*
X149585955Y-73953529D01*
X149320742Y-73701851D01*
X149029899Y-73480288D01*
X149026987Y-73478531D01*
X149026982Y-73478528D01*
X148719751Y-73293194D01*
X148719742Y-73293189D01*
X148716829Y-73291432D01*
X148713739Y-73289998D01*
X148713734Y-73289995D01*
X148388289Y-73138929D01*
X148388287Y-73138928D01*
X148385193Y-73137492D01*
X148381958Y-73136397D01*
X148381953Y-73136395D01*
X148042107Y-73021363D01*
X148038872Y-73020268D01*
X148029540Y-73018199D01*
X147685255Y-72941873D01*
X147681917Y-72941133D01*
X147653058Y-72937947D01*
X147321884Y-72901385D01*
X147321877Y-72901385D01*
X147318502Y-72901012D01*
X147315103Y-72901006D01*
X147315102Y-72901006D01*
X147142426Y-72900705D01*
X146952880Y-72900374D01*
X146837143Y-72912743D01*
X146592711Y-72938864D01*
X146592703Y-72938865D01*
X146589328Y-72939226D01*
X146232099Y-73017115D01*
X145885370Y-73133129D01*
X145553200Y-73285910D01*
X145239472Y-73473672D01*
X144947857Y-73694219D01*
X144681767Y-73944969D01*
X144444315Y-74222990D01*
X144442387Y-74225817D01*
X144442385Y-74225819D01*
X144437912Y-74232377D01*
X144238277Y-74525030D01*
X144236670Y-74528040D01*
X144236668Y-74528043D01*
X144067670Y-74844549D01*
X144067666Y-74844558D01*
X144066065Y-74847556D01*
X143929692Y-75186793D01*
X143830754Y-75538775D01*
X143770409Y-75899383D01*
X143749363Y-76264399D01*
X134335900Y-76264399D01*
X134335900Y-71662616D01*
X134355902Y-71594495D01*
X134372805Y-71573520D01*
X134757723Y-71188603D01*
X134820035Y-71154578D01*
X134846818Y-71151699D01*
X158803300Y-71151699D01*
X158871421Y-71171701D01*
X158917914Y-71225357D01*
X158929300Y-71277699D01*
X158929300Y-72145947D01*
X158940933Y-72204430D01*
X158985248Y-72270751D01*
X159051569Y-72315066D01*
X159063738Y-72317487D01*
X159063739Y-72317487D01*
X159103984Y-72325492D01*
X159110052Y-72326699D01*
X161749548Y-72326699D01*
X161755616Y-72325492D01*
X161795861Y-72317487D01*
X161795862Y-72317487D01*
X161808031Y-72315066D01*
X161874352Y-72270751D01*
X161918667Y-72204430D01*
X161930300Y-72145947D01*
X161930300Y-69506451D01*
X161918667Y-69447968D01*
X161874352Y-69381647D01*
X161808031Y-69337332D01*
X161795862Y-69334911D01*
X161795861Y-69334911D01*
X161755616Y-69326906D01*
X161749548Y-69325699D01*
X159110052Y-69325699D01*
X159103984Y-69326906D01*
X159063739Y-69334911D01*
X159063738Y-69334911D01*
X159051569Y-69337332D01*
X158985248Y-69381647D01*
X158940933Y-69447968D01*
X158929300Y-69506451D01*
X158929300Y-70374699D01*
X158909298Y-70442820D01*
X158855642Y-70489313D01*
X158803300Y-70500699D01*
X134679513Y-70500699D01*
X134668532Y-70500220D01*
X134641970Y-70497896D01*
X134641968Y-70497896D01*
X134630993Y-70496936D01*
X134594583Y-70506691D01*
X134583876Y-70509065D01*
X134546755Y-70515611D01*
X134537211Y-70521121D01*
X134533935Y-70522313D01*
X134530764Y-70523792D01*
X134520116Y-70526645D01*
X134511087Y-70532967D01*
X134489249Y-70548258D01*
X134479979Y-70554163D01*
X134456892Y-70567492D01*
X134456888Y-70567495D01*
X134447345Y-70573005D01*
X134440260Y-70581449D01*
X134423125Y-70601869D01*
X134415700Y-70609972D01*
X133794178Y-71231495D01*
X133786074Y-71238921D01*
X133757206Y-71263144D01*
X133751693Y-71272693D01*
X133738361Y-71295784D01*
X133732455Y-71305055D01*
X133710846Y-71335915D01*
X133707992Y-71346565D01*
X133706515Y-71349733D01*
X133705323Y-71353009D01*
X133699812Y-71362554D01*
X133694129Y-71394786D01*
X133693270Y-71399657D01*
X133690892Y-71410384D01*
X133681136Y-71446792D01*
X133682097Y-71457777D01*
X133682097Y-71457779D01*
X133684420Y-71484327D01*
X133684900Y-71495309D01*
X133684900Y-82336313D01*
X133664898Y-82404434D01*
X133635604Y-82436276D01*
X133582118Y-82477317D01*
X133485864Y-82602758D01*
X133425356Y-82748837D01*
X133404718Y-82905599D01*
X112630741Y-82905599D01*
X112636556Y-82899308D01*
X112749632Y-82720093D01*
X112828156Y-82523272D01*
X112833960Y-82494096D01*
X112868370Y-82321104D01*
X112868370Y-82321101D01*
X112869497Y-82315437D01*
X112869633Y-82305104D01*
X112872194Y-82109330D01*
X112872270Y-82103548D01*
X112867083Y-82073361D01*
X112837362Y-81900392D01*
X112837361Y-81900389D01*
X112836384Y-81894702D01*
X112763040Y-81695893D01*
X112654693Y-81513779D01*
X112514973Y-81354459D01*
X112348559Y-81223269D01*
X112343443Y-81220578D01*
X112343441Y-81220576D01*
X112166141Y-81127294D01*
X112166139Y-81127293D01*
X112161024Y-81124602D01*
X111958649Y-81061763D01*
X111857580Y-81049801D01*
X111792283Y-81021931D01*
X111752419Y-80963182D01*
X111750645Y-80892208D01*
X111787524Y-80831541D01*
X111851347Y-80800444D01*
X111860860Y-80799203D01*
X111923162Y-80793478D01*
X111923163Y-80793478D01*
X111928918Y-80792949D01*
X111934480Y-80791380D01*
X111934482Y-80791380D01*
X112030893Y-80764189D01*
X112132869Y-80735429D01*
X112322922Y-80641705D01*
X112492713Y-80514916D01*
X112578883Y-80421698D01*
X112632637Y-80363548D01*
X112632639Y-80363545D01*
X112636556Y-80359308D01*
X112749632Y-80180093D01*
X112828156Y-79983272D01*
X112833960Y-79954096D01*
X112868370Y-79781104D01*
X112868370Y-79781101D01*
X112869497Y-79775437D01*
X112869818Y-79750948D01*
X112871104Y-79652621D01*
X112872270Y-79563548D01*
X112848222Y-79423594D01*
X112837362Y-79360392D01*
X112837361Y-79360389D01*
X112836384Y-79354702D01*
X112763040Y-79155893D01*
X112654693Y-78973779D01*
X112514973Y-78814459D01*
X112348559Y-78683269D01*
X112343443Y-78680578D01*
X112343441Y-78680576D01*
X112166141Y-78587294D01*
X112166139Y-78587293D01*
X112161024Y-78584602D01*
X111958649Y-78521763D01*
X111931300Y-78518526D01*
X111866003Y-78490655D01*
X111826139Y-78431907D01*
X111824365Y-78360933D01*
X111861244Y-78300266D01*
X111925068Y-78269168D01*
X111946110Y-78267399D01*
X112690148Y-78267399D01*
X112696216Y-78266192D01*
X112736461Y-78258187D01*
X112736462Y-78258187D01*
X112748631Y-78255766D01*
X112814952Y-78211451D01*
X112859267Y-78145130D01*
X112870900Y-78086647D01*
X112870900Y-76142151D01*
X112859267Y-76083668D01*
X112814952Y-76017347D01*
X112748631Y-75973032D01*
X112736462Y-75970611D01*
X112736461Y-75970611D01*
X112696216Y-75962606D01*
X112690148Y-75961399D01*
X110650652Y-75961399D01*
X110644584Y-75962606D01*
X110604339Y-75970611D01*
X110604338Y-75970611D01*
X110592169Y-75973032D01*
X110525848Y-76017347D01*
X110481533Y-76083668D01*
X110469900Y-76142151D01*
X110469900Y-78086647D01*
X110481533Y-78145130D01*
X110525848Y-78211451D01*
X110592169Y-78255766D01*
X110604338Y-78258187D01*
X110604339Y-78258187D01*
X110644584Y-78266192D01*
X110650652Y-78267399D01*
X111384053Y-78267399D01*
X111452174Y-78287401D01*
X111498667Y-78341057D01*
X111508771Y-78411331D01*
X111479277Y-78475911D01*
X111419551Y-78514295D01*
X111413771Y-78515675D01*
X111411882Y-78515849D01*
X111406320Y-78517418D01*
X111406318Y-78517418D01*
X111309906Y-78544609D01*
X111207931Y-78573369D01*
X111017878Y-78667093D01*
X110848087Y-78793882D01*
X110704244Y-78949490D01*
X110591168Y-79128705D01*
X110512644Y-79325526D01*
X110511518Y-79331186D01*
X110511517Y-79331190D01*
X110493137Y-79423594D01*
X110471303Y-79533361D01*
X110471227Y-79539136D01*
X110471227Y-79539140D01*
X110470908Y-79563548D01*
X110468530Y-79745250D01*
X110504416Y-79954096D01*
X110577760Y-80152905D01*
X110629925Y-80240586D01*
X110659626Y-80290508D01*
X110686107Y-80335019D01*
X110825827Y-80494339D01*
X110830362Y-80497914D01*
X110830363Y-80497915D01*
X110981647Y-80617177D01*
X110992241Y-80625529D01*
X110997357Y-80628220D01*
X110997359Y-80628222D01*
X111174659Y-80721504D01*
X111179776Y-80724196D01*
X111382151Y-80787035D01*
X111483220Y-80798997D01*
X111548517Y-80826867D01*
X111588381Y-80885616D01*
X111590155Y-80956590D01*
X111553276Y-81017257D01*
X111489453Y-81048354D01*
X111479940Y-81049595D01*
X111417638Y-81055320D01*
X111417637Y-81055320D01*
X111411882Y-81055849D01*
X111406320Y-81057418D01*
X111406318Y-81057418D01*
X111309906Y-81084609D01*
X111207931Y-81113369D01*
X111017878Y-81207093D01*
X111013252Y-81210547D01*
X111013251Y-81210548D01*
X110952062Y-81256240D01*
X110848087Y-81333882D01*
X110704244Y-81489490D01*
X110591168Y-81668705D01*
X110512644Y-81865526D01*
X110511518Y-81871186D01*
X110511517Y-81871190D01*
X110472430Y-82067694D01*
X110471303Y-82073361D01*
X110471227Y-82079136D01*
X110471227Y-82079140D01*
X110470908Y-82103548D01*
X110468530Y-82285250D01*
X109475000Y-82285250D01*
X109475000Y-71119999D01*
X123854318Y-71119999D01*
X123874956Y-71276761D01*
X123935464Y-71422840D01*
X124031718Y-71548281D01*
X124157159Y-71644535D01*
X124303238Y-71705043D01*
X124460000Y-71725681D01*
X124468188Y-71724603D01*
X124608574Y-71706121D01*
X124616762Y-71705043D01*
X124762841Y-71644535D01*
X124888282Y-71548281D01*
X124929323Y-71494795D01*
X124986661Y-71452928D01*
X125029286Y-71445499D01*
X130790290Y-71445499D01*
X130801272Y-71445979D01*
X130827820Y-71448302D01*
X130827822Y-71448302D01*
X130838807Y-71449263D01*
X130875215Y-71439507D01*
X130885942Y-71437129D01*
X130889301Y-71436537D01*
X130923045Y-71430587D01*
X130932590Y-71425076D01*
X130935866Y-71423884D01*
X130939034Y-71422407D01*
X130949684Y-71419553D01*
X130980544Y-71397944D01*
X130989815Y-71392038D01*
X131012910Y-71378704D01*
X131012911Y-71378703D01*
X131022455Y-71373193D01*
X131046685Y-71344318D01*
X131054110Y-71336216D01*
X132161618Y-70228708D01*
X132223930Y-70194682D01*
X132267158Y-70192881D01*
X132334000Y-70201681D01*
X132342188Y-70200603D01*
X132482574Y-70182121D01*
X132490762Y-70181043D01*
X132636841Y-70120535D01*
X132762282Y-70024281D01*
X132858536Y-69898840D01*
X132919044Y-69752761D01*
X132939682Y-69595999D01*
X132919044Y-69439237D01*
X132858536Y-69293158D01*
X132762282Y-69167717D01*
X132636841Y-69071463D01*
X132490762Y-69010955D01*
X132334000Y-68990317D01*
X132177238Y-69010955D01*
X132031159Y-69071463D01*
X131905718Y-69167717D01*
X131809464Y-69293158D01*
X131748956Y-69439237D01*
X131728318Y-69595999D01*
X131729396Y-69604186D01*
X131737118Y-69662839D01*
X131726179Y-69732988D01*
X131701291Y-69768381D01*
X130712079Y-70757594D01*
X130649767Y-70791619D01*
X130622984Y-70794499D01*
X125029286Y-70794499D01*
X124961165Y-70774497D01*
X124929323Y-70745203D01*
X124893305Y-70698263D01*
X124888282Y-70691717D01*
X124762841Y-70595463D01*
X124616762Y-70534955D01*
X124460000Y-70514317D01*
X124303238Y-70534955D01*
X124157159Y-70595463D01*
X124031718Y-70691717D01*
X123935464Y-70817158D01*
X123874956Y-70963237D01*
X123854318Y-71119999D01*
X109475000Y-71119999D01*
X109475000Y-67589399D01*
X114340123Y-67589399D01*
X114359193Y-67807376D01*
X114415825Y-68018729D01*
X114418147Y-68023709D01*
X114418148Y-68023711D01*
X114467291Y-68129097D01*
X114508298Y-68217037D01*
X114633802Y-68396276D01*
X114788523Y-68550997D01*
X114793031Y-68554154D01*
X114793034Y-68554156D01*
X114963252Y-68673344D01*
X114967761Y-68676501D01*
X114972743Y-68678824D01*
X114972748Y-68678827D01*
X115161088Y-68766651D01*
X115166070Y-68768974D01*
X115171378Y-68770396D01*
X115171380Y-68770397D01*
X115237145Y-68788019D01*
X115377423Y-68825606D01*
X115595400Y-68844676D01*
X115813377Y-68825606D01*
X115953655Y-68788019D01*
X116019420Y-68770397D01*
X116019422Y-68770396D01*
X116024730Y-68768974D01*
X116029712Y-68766651D01*
X116218052Y-68678827D01*
X116218057Y-68678824D01*
X116223039Y-68676501D01*
X116227548Y-68673344D01*
X116397766Y-68554156D01*
X116397769Y-68554154D01*
X116402277Y-68550997D01*
X116556998Y-68396276D01*
X116682502Y-68217037D01*
X116698662Y-68182382D01*
X116745580Y-68129097D01*
X116813857Y-68109636D01*
X116881817Y-68130178D01*
X116927882Y-68184201D01*
X116938857Y-68235632D01*
X116938857Y-68482500D01*
X120805143Y-68482500D01*
X120805143Y-66645500D01*
X116938857Y-66645500D01*
X116938857Y-66943166D01*
X116918855Y-67011287D01*
X116865199Y-67057780D01*
X116794925Y-67067884D01*
X116730345Y-67038390D01*
X116698662Y-66996416D01*
X116684825Y-66966742D01*
X116684823Y-66966739D01*
X116682502Y-66961761D01*
X116556998Y-66782522D01*
X116402277Y-66627801D01*
X116397769Y-66624644D01*
X116397766Y-66624642D01*
X116227548Y-66505454D01*
X116227545Y-66505452D01*
X116223039Y-66502297D01*
X116218057Y-66499974D01*
X116218052Y-66499971D01*
X116029712Y-66412147D01*
X116029711Y-66412146D01*
X116024730Y-66409824D01*
X116019422Y-66408402D01*
X116019420Y-66408401D01*
X115953655Y-66390779D01*
X115813377Y-66353192D01*
X115595400Y-66334122D01*
X115377423Y-66353192D01*
X115237145Y-66390779D01*
X115171380Y-66408401D01*
X115171378Y-66408402D01*
X115166070Y-66409824D01*
X115161090Y-66412146D01*
X115161088Y-66412147D01*
X114972743Y-66499974D01*
X114972740Y-66499976D01*
X114967762Y-66502297D01*
X114788523Y-66627801D01*
X114633802Y-66782522D01*
X114508298Y-66961761D01*
X114505977Y-66966739D01*
X114505975Y-66966742D01*
X114472565Y-67038390D01*
X114415825Y-67160069D01*
X114359193Y-67371422D01*
X114340123Y-67589399D01*
X109475000Y-67589399D01*
X109475000Y-63778429D01*
X114691200Y-63778429D01*
X114696927Y-63786079D01*
X114881672Y-63899292D01*
X114890467Y-63903774D01*
X115107890Y-63993833D01*
X115117275Y-63996882D01*
X115346108Y-64051821D01*
X115355855Y-64053364D01*
X115590470Y-64071829D01*
X115600330Y-64071829D01*
X115834945Y-64053364D01*
X115844692Y-64051821D01*
X116073525Y-63996882D01*
X116082910Y-63993833D01*
X116300333Y-63903774D01*
X116309128Y-63899292D01*
X116490205Y-63788327D01*
X116499667Y-63777869D01*
X116495884Y-63769093D01*
X115608212Y-62881421D01*
X115594268Y-62873807D01*
X115592435Y-62873938D01*
X115585820Y-62878189D01*
X114697960Y-63766049D01*
X114691200Y-63778429D01*
X109475000Y-63778429D01*
X109475000Y-62514329D01*
X114032970Y-62514329D01*
X114051435Y-62748944D01*
X114052978Y-62758691D01*
X114107917Y-62987524D01*
X114110966Y-62996909D01*
X114201025Y-63214332D01*
X114205507Y-63223127D01*
X114316472Y-63404204D01*
X114326930Y-63413666D01*
X114335706Y-63409883D01*
X115223378Y-62522211D01*
X115229756Y-62510531D01*
X115959808Y-62510531D01*
X115959939Y-62512364D01*
X115964190Y-62518979D01*
X116852050Y-63406839D01*
X116864430Y-63413599D01*
X116872080Y-63407872D01*
X116985293Y-63223127D01*
X116989775Y-63214332D01*
X117079834Y-62996909D01*
X117082883Y-62987524D01*
X117137822Y-62758691D01*
X117139365Y-62748944D01*
X117157830Y-62514329D01*
X117157830Y-62504469D01*
X117139365Y-62269854D01*
X117137822Y-62260107D01*
X117082883Y-62031274D01*
X117079834Y-62021889D01*
X116989775Y-61804466D01*
X116985293Y-61795671D01*
X116874328Y-61614594D01*
X116863870Y-61605132D01*
X116855094Y-61608915D01*
X115967422Y-62496587D01*
X115959808Y-62510531D01*
X115229756Y-62510531D01*
X115230992Y-62508267D01*
X115230861Y-62506434D01*
X115226610Y-62499819D01*
X114338750Y-61611959D01*
X114326370Y-61605199D01*
X114318720Y-61610926D01*
X114205507Y-61795671D01*
X114201025Y-61804466D01*
X114110966Y-62021889D01*
X114107917Y-62031274D01*
X114052978Y-62260107D01*
X114051435Y-62269854D01*
X114032970Y-62504469D01*
X114032970Y-62514329D01*
X109475000Y-62514329D01*
X109475000Y-61240929D01*
X114691133Y-61240929D01*
X114694916Y-61249705D01*
X115582588Y-62137377D01*
X115596532Y-62144991D01*
X115598365Y-62144860D01*
X115604980Y-62140609D01*
X116492840Y-61252749D01*
X116499600Y-61240369D01*
X116493873Y-61232719D01*
X116309128Y-61119506D01*
X116300333Y-61115024D01*
X116082910Y-61024965D01*
X116073525Y-61021916D01*
X115844692Y-60966977D01*
X115834945Y-60965434D01*
X115600330Y-60946969D01*
X115590470Y-60946969D01*
X115355855Y-60965434D01*
X115346108Y-60966977D01*
X115117275Y-61021916D01*
X115107890Y-61024965D01*
X114890467Y-61115024D01*
X114881672Y-61119506D01*
X114700595Y-61230471D01*
X114691133Y-61240929D01*
X109475000Y-61240929D01*
X109475000Y-54104586D01*
X109475052Y-54102073D01*
X109475082Y-54102001D01*
X112948049Y-54102001D01*
X112967821Y-54353227D01*
X112968975Y-54358034D01*
X112968976Y-54358040D01*
X113006139Y-54512832D01*
X113026650Y-54598267D01*
X113123087Y-54831087D01*
X113254758Y-55045955D01*
X113257970Y-55049715D01*
X113257973Y-55049720D01*
X113403867Y-55220539D01*
X113418421Y-55237580D01*
X113422183Y-55240793D01*
X113606281Y-55398028D01*
X113606286Y-55398031D01*
X113610046Y-55401243D01*
X113824914Y-55532914D01*
X113829484Y-55534807D01*
X113829488Y-55534809D01*
X114053161Y-55627457D01*
X114057734Y-55629351D01*
X114143169Y-55649862D01*
X114297961Y-55687025D01*
X114297967Y-55687026D01*
X114302774Y-55688180D01*
X114554000Y-55707952D01*
X114805226Y-55688180D01*
X114810033Y-55687026D01*
X114810039Y-55687025D01*
X114964831Y-55649862D01*
X115050266Y-55629351D01*
X115054839Y-55627457D01*
X115278512Y-55534809D01*
X115278516Y-55534807D01*
X115283086Y-55532914D01*
X115497954Y-55401243D01*
X115501714Y-55398031D01*
X115501719Y-55398028D01*
X115685817Y-55240793D01*
X115689579Y-55237580D01*
X115704133Y-55220539D01*
X115850027Y-55049720D01*
X115850030Y-55049715D01*
X115853242Y-55045955D01*
X115984913Y-54831087D01*
X116081350Y-54598267D01*
X116101861Y-54512832D01*
X116139024Y-54358040D01*
X116139025Y-54358034D01*
X116140179Y-54353227D01*
X116159951Y-54102001D01*
X177210049Y-54102001D01*
X177229821Y-54353227D01*
X177230975Y-54358034D01*
X177230976Y-54358040D01*
X177268139Y-54512832D01*
X177288650Y-54598267D01*
X177385087Y-54831087D01*
X177516758Y-55045955D01*
X177519970Y-55049715D01*
X177519973Y-55049720D01*
X177665867Y-55220539D01*
X177680421Y-55237580D01*
X177684183Y-55240793D01*
X177868281Y-55398028D01*
X177868286Y-55398031D01*
X177872046Y-55401243D01*
X178086914Y-55532914D01*
X178091484Y-55534807D01*
X178091488Y-55534809D01*
X178315161Y-55627457D01*
X178319734Y-55629351D01*
X178405169Y-55649862D01*
X178559961Y-55687025D01*
X178559967Y-55687026D01*
X178564774Y-55688180D01*
X178816000Y-55707952D01*
X179067226Y-55688180D01*
X179072033Y-55687026D01*
X179072039Y-55687025D01*
X179226831Y-55649862D01*
X179312266Y-55629351D01*
X179316839Y-55627457D01*
X179540512Y-55534809D01*
X179540516Y-55534807D01*
X179545086Y-55532914D01*
X179759954Y-55401243D01*
X179763714Y-55398031D01*
X179763719Y-55398028D01*
X179947817Y-55240793D01*
X179951579Y-55237580D01*
X179966133Y-55220539D01*
X180112027Y-55049720D01*
X180112030Y-55049715D01*
X180115242Y-55045955D01*
X180246913Y-54831087D01*
X180343350Y-54598267D01*
X180363861Y-54512832D01*
X180401024Y-54358040D01*
X180401025Y-54358034D01*
X180402179Y-54353227D01*
X180421951Y-54102001D01*
X180402179Y-53850775D01*
X180401025Y-53845968D01*
X180401024Y-53845962D01*
X180344505Y-53610547D01*
X180343350Y-53605735D01*
X180251901Y-53384957D01*
X180248808Y-53377489D01*
X180248806Y-53377485D01*
X180246913Y-53372915D01*
X180115242Y-53158047D01*
X180112030Y-53154287D01*
X180112027Y-53154282D01*
X179954792Y-52970184D01*
X179951579Y-52966422D01*
X179934538Y-52951868D01*
X179763719Y-52805974D01*
X179763714Y-52805971D01*
X179759954Y-52802759D01*
X179545086Y-52671088D01*
X179540516Y-52669195D01*
X179540512Y-52669193D01*
X179316839Y-52576545D01*
X179316837Y-52576544D01*
X179312266Y-52574651D01*
X179226831Y-52554140D01*
X179072039Y-52516977D01*
X179072033Y-52516976D01*
X179067226Y-52515822D01*
X178816000Y-52496050D01*
X178564774Y-52515822D01*
X178559967Y-52516976D01*
X178559961Y-52516977D01*
X178405169Y-52554140D01*
X178319734Y-52574651D01*
X178315163Y-52576544D01*
X178315161Y-52576545D01*
X178091488Y-52669193D01*
X178091484Y-52669195D01*
X178086914Y-52671088D01*
X177872046Y-52802759D01*
X177868286Y-52805971D01*
X177868281Y-52805974D01*
X177697462Y-52951868D01*
X177680421Y-52966422D01*
X177677208Y-52970184D01*
X177519973Y-53154282D01*
X177519970Y-53154287D01*
X177516758Y-53158047D01*
X177385087Y-53372915D01*
X177383194Y-53377485D01*
X177383192Y-53377489D01*
X177380099Y-53384957D01*
X177288650Y-53605735D01*
X177287495Y-53610547D01*
X177230976Y-53845962D01*
X177230975Y-53845968D01*
X177229821Y-53850775D01*
X177210049Y-54102001D01*
X116159951Y-54102001D01*
X116140179Y-53850775D01*
X116139025Y-53845968D01*
X116139024Y-53845962D01*
X116082505Y-53610547D01*
X116081350Y-53605735D01*
X115989901Y-53384957D01*
X115986808Y-53377489D01*
X115986806Y-53377485D01*
X115984913Y-53372915D01*
X115853242Y-53158047D01*
X115850030Y-53154287D01*
X115850027Y-53154282D01*
X115692792Y-52970184D01*
X115689579Y-52966422D01*
X115672538Y-52951868D01*
X115501719Y-52805974D01*
X115501714Y-52805971D01*
X115497954Y-52802759D01*
X115283086Y-52671088D01*
X115278516Y-52669195D01*
X115278512Y-52669193D01*
X115054839Y-52576545D01*
X115054837Y-52576544D01*
X115050266Y-52574651D01*
X114964831Y-52554140D01*
X114810039Y-52516977D01*
X114810033Y-52516976D01*
X114805226Y-52515822D01*
X114554000Y-52496050D01*
X114302774Y-52515822D01*
X114297967Y-52516976D01*
X114297961Y-52516977D01*
X114143169Y-52554140D01*
X114057734Y-52574651D01*
X114053163Y-52576544D01*
X114053161Y-52576545D01*
X113829488Y-52669193D01*
X113829484Y-52669195D01*
X113824914Y-52671088D01*
X113610046Y-52802759D01*
X113606286Y-52805971D01*
X113606281Y-52805974D01*
X113435462Y-52951868D01*
X113418421Y-52966422D01*
X113415208Y-52970184D01*
X113257973Y-53154282D01*
X113257970Y-53154287D01*
X113254758Y-53158047D01*
X113123087Y-53372915D01*
X113121194Y-53377485D01*
X113121192Y-53377489D01*
X113118099Y-53384957D01*
X113026650Y-53605735D01*
X113025495Y-53610547D01*
X112968976Y-53845962D01*
X112968975Y-53845968D01*
X112967821Y-53850775D01*
X112948049Y-54102001D01*
X109475082Y-54102001D01*
X109475055Y-54101936D01*
X109475108Y-54099379D01*
X109492132Y-53687786D01*
X109492992Y-53677408D01*
X109529446Y-53384957D01*
X109529556Y-53384096D01*
X109545877Y-53260127D01*
X109547481Y-53250716D01*
X109566055Y-53162132D01*
X109602189Y-52989800D01*
X109602455Y-52988568D01*
X109635750Y-52838382D01*
X109638001Y-52829703D01*
X109710598Y-52585853D01*
X109711192Y-52583916D01*
X109761025Y-52425865D01*
X109763812Y-52417952D01*
X109763816Y-52417943D01*
X109853972Y-52186891D01*
X109854914Y-52184552D01*
X109920792Y-52025512D01*
X109924002Y-52018393D01*
X110031205Y-51799105D01*
X110032598Y-51796347D01*
X110113842Y-51640279D01*
X110117364Y-51633961D01*
X110241040Y-51426408D01*
X110243013Y-51423207D01*
X110338761Y-51272912D01*
X110338782Y-51272879D01*
X110342496Y-51267376D01*
X110482005Y-51071981D01*
X110484588Y-51068493D01*
X110593921Y-50926008D01*
X110597725Y-50921289D01*
X110752395Y-50738671D01*
X110755613Y-50735020D01*
X110877376Y-50602139D01*
X110881178Y-50598167D01*
X111050174Y-50429172D01*
X111054145Y-50425371D01*
X111186998Y-50303634D01*
X111190688Y-50300383D01*
X111373302Y-50145716D01*
X111378032Y-50141902D01*
X111520474Y-50032602D01*
X111523962Y-50030019D01*
X111719375Y-49890497D01*
X111724878Y-49886783D01*
X111875206Y-49791014D01*
X111878407Y-49789041D01*
X111996029Y-49718953D01*
X112085972Y-49665358D01*
X112092278Y-49661843D01*
X112248340Y-49580602D01*
X112251152Y-49579183D01*
X112470392Y-49472003D01*
X112477512Y-49468791D01*
X112636619Y-49402887D01*
X112638968Y-49401942D01*
X112869939Y-49311817D01*
X112877837Y-49309035D01*
X112970633Y-49279776D01*
X113036006Y-49259164D01*
X113037875Y-49258591D01*
X113155670Y-49223522D01*
X113281689Y-49186005D01*
X113290369Y-49183754D01*
X113338126Y-49173166D01*
X113440585Y-49150452D01*
X113441967Y-49150154D01*
X113702705Y-49095483D01*
X113712109Y-49093880D01*
X113836387Y-49077518D01*
X113836844Y-49077460D01*
X114025100Y-49053994D01*
X114129407Y-49040992D01*
X114139785Y-49040132D01*
X114551376Y-49023109D01*
X114553934Y-49023056D01*
X114554000Y-49023083D01*
X114554072Y-49023053D01*
X114556583Y-49023001D01*
X146671535Y-49023000D01*
X178813417Y-49022999D01*
X178815930Y-49023051D01*
G37*
%TD.AperFunction*%
%TD*%
M02*
