%TF.GenerationSoftware,KiCad,Pcbnew,(6.0.5)*%
%TF.CreationDate,2023-07-06T17:20:31+08:00*%
%TF.ProjectId,compare,636f6d70-6172-4652-9e6b-696361645f70,rev?*%
%TF.SameCoordinates,Original*%
%TF.FileFunction,Copper,L1,Top*%
%TF.FilePolarity,Positive*%
%FSLAX46Y46*%
G04 Gerber Fmt 4.6, Leading zero omitted, Abs format (unit mm)*
G04 Created by KiCad (PCBNEW (6.0.5)) date 2023-07-06 17:20:31*
%MOMM*%
%LPD*%
G01*
G04 APERTURE LIST*
G04 Aperture macros list*
%AMRoundRect*
0 Rectangle with rounded corners*
0 $1 Rounding radius*
0 $2 $3 $4 $5 $6 $7 $8 $9 X,Y pos of 4 corners*
0 Add a 4 corners polygon primitive as box body*
4,1,4,$2,$3,$4,$5,$6,$7,$8,$9,$2,$3,0*
0 Add four circle primitives for the rounded corners*
1,1,$1+$1,$2,$3*
1,1,$1+$1,$4,$5*
1,1,$1+$1,$6,$7*
1,1,$1+$1,$8,$9*
0 Add four rect primitives between the rounded corners*
20,1,$1+$1,$2,$3,$4,$5,0*
20,1,$1+$1,$4,$5,$6,$7,0*
20,1,$1+$1,$6,$7,$8,$9,0*
20,1,$1+$1,$8,$9,$2,$3,0*%
G04 Aperture macros list end*
%TA.AperFunction,NonConductor*%
%ADD10C,0.200000*%
%TD*%
%TA.AperFunction,SMDPad,CuDef*%
%ADD11RoundRect,0.250000X-0.450000X0.262500X-0.450000X-0.262500X0.450000X-0.262500X0.450000X0.262500X0*%
%TD*%
%TA.AperFunction,ComponentPad*%
%ADD12C,2.100000*%
%TD*%
%TA.AperFunction,SMDPad,CuDef*%
%ADD13RoundRect,0.250000X0.262500X0.450000X-0.262500X0.450000X-0.262500X-0.450000X0.262500X-0.450000X0*%
%TD*%
%TA.AperFunction,ComponentPad*%
%ADD14R,2.600000X2.600000*%
%TD*%
%TA.AperFunction,ComponentPad*%
%ADD15C,2.600000*%
%TD*%
%TA.AperFunction,ComponentPad*%
%ADD16C,6.350000*%
%TD*%
%TA.AperFunction,SMDPad,CuDef*%
%ADD17RoundRect,0.250000X0.450000X-0.262500X0.450000X0.262500X-0.450000X0.262500X-0.450000X-0.262500X0*%
%TD*%
%TA.AperFunction,SMDPad,CuDef*%
%ADD18RoundRect,0.250000X0.925000X-0.787500X0.925000X0.787500X-0.925000X0.787500X-0.925000X-0.787500X0*%
%TD*%
%TA.AperFunction,ComponentPad*%
%ADD19R,2.000000X1.905000*%
%TD*%
%TA.AperFunction,ComponentPad*%
%ADD20O,2.000000X1.905000*%
%TD*%
%TA.AperFunction,SMDPad,CuDef*%
%ADD21RoundRect,0.250000X-0.262500X-0.450000X0.262500X-0.450000X0.262500X0.450000X-0.262500X0.450000X0*%
%TD*%
%TA.AperFunction,SMDPad,CuDef*%
%ADD22RoundRect,0.250000X0.787500X0.925000X-0.787500X0.925000X-0.787500X-0.925000X0.787500X-0.925000X0*%
%TD*%
%TA.AperFunction,ViaPad*%
%ADD23C,0.800000*%
%TD*%
%TA.AperFunction,Conductor*%
%ADD24C,0.250000*%
%TD*%
%TA.AperFunction,Conductor*%
%ADD25C,1.500000*%
%TD*%
G04 APERTURE END LIST*
D10*
G36*
X147066000Y-91947999D02*
G01*
X147066000Y-88645999D01*
X150114000Y-88645999D01*
X147066000Y-91947999D01*
G37*
X147066000Y-91947999D02*
X147066000Y-88645999D01*
X150114000Y-88645999D01*
X147066000Y-91947999D01*
G36*
X145796000Y-91947999D02*
G01*
X142748000Y-88645999D01*
X145796000Y-88645999D01*
X145796000Y-91947999D01*
G37*
X145796000Y-91947999D02*
X142748000Y-88645999D01*
X145796000Y-88645999D01*
X145796000Y-91947999D01*
D11*
%TO.P,R10,1*%
%TO.N,VOUT*%
X121564400Y-72798299D03*
%TO.P,R10,2*%
%TO.N,Net-(C5-Pad1)*%
X121564400Y-74623299D03*
%TD*%
%TO.P,R4,1*%
%TO.N,VOUT1*%
X125476000Y-104497499D03*
%TO.P,R4,2*%
%TO.N,Net-(C2-Pad1)*%
X125476000Y-106322499D03*
%TD*%
D12*
%TO.P,J1,1,Pin_1*%
%TO.N,VOUT*%
X115595400Y-67589399D03*
%TO.P,J1,2,Pin_2*%
%TO.N,GND*%
X115595400Y-62509399D03*
%TD*%
D13*
%TO.P,R7,1*%
%TO.N,VOUT1*%
X128318900Y-85191599D03*
%TO.P,R7,2*%
%TO.N,Net-(R7-Pad2)*%
X126493900Y-85191599D03*
%TD*%
D14*
%TO.P,Q1,1,B*%
%TO.N,Net-(R2-Pad2)*%
X159766000Y-106908599D03*
D15*
%TO.P,Q1,2,E*%
%TO.N,VIN*%
X159766000Y-117828599D03*
D16*
%TO.P,Q1,3,C*%
%TO.N,VOUT1*%
X146466000Y-112358599D03*
X176666000Y-112358599D03*
%TD*%
D17*
%TO.P,R3,1*%
%TO.N,Net-(C2-Pad1)*%
X122732800Y-106322499D03*
%TO.P,R3,2*%
%TO.N,GND*%
X122732800Y-104497499D03*
%TD*%
D18*
%TO.P,C5,1*%
%TO.N,Net-(C5-Pad1)*%
X132232400Y-66545399D03*
%TO.P,C5,2*%
%TO.N,GND*%
X132232400Y-61620399D03*
%TD*%
D17*
%TO.P,R9,1*%
%TO.N,Net-(C5-Pad1)*%
X119049800Y-74648699D03*
%TO.P,R9,2*%
%TO.N,GND*%
X119049800Y-72823699D03*
%TD*%
D18*
%TO.P,C6,1*%
%TO.N,VOUT*%
X125628400Y-66557999D03*
%TO.P,C6,2*%
%TO.N,GND*%
X125628400Y-61632999D03*
%TD*%
D19*
%TO.P,U2,1,ADJ*%
%TO.N,Net-(C5-Pad1)*%
X111670400Y-77114399D03*
D20*
%TO.P,U2,2,VO*%
%TO.N,VOUT*%
X111670400Y-79654399D03*
%TO.P,U2,3,VI*%
%TO.N,Net-(R7-Pad2)*%
X111670400Y-82194399D03*
%TD*%
D17*
%TO.P,RL1,1*%
%TO.N,VOUT1*%
X129120800Y-99972499D03*
%TO.P,RL1,2*%
%TO.N,GND*%
X129120800Y-98147499D03*
%TD*%
%TO.P,R1,1*%
%TO.N,VIN*%
X128627500Y-128318899D03*
%TO.P,R1,2*%
%TO.N,Net-(R1-Pad2)*%
X128627500Y-126493899D03*
%TD*%
D14*
%TO.P,Q2,1,B*%
%TO.N,Net-(R8-Pad2)*%
X160429800Y-70826199D03*
D15*
%TO.P,Q2,2,E*%
%TO.N,VOUT1*%
X160429800Y-81746199D03*
D16*
%TO.P,Q2,3,C*%
%TO.N,VOUT*%
X147129800Y-76276199D03*
X177329800Y-76276199D03*
%TD*%
D19*
%TO.P,U1,1,ADJ*%
%TO.N,Net-(C2-Pad1)*%
X111653200Y-108584999D03*
D20*
%TO.P,U1,2,VO*%
%TO.N,VOUT1*%
X111653200Y-111124999D03*
%TO.P,U1,3,VI*%
%TO.N,Net-(R1-Pad2)*%
X111653200Y-113664999D03*
%TD*%
D12*
%TO.P,J2,1,Pin_1*%
%TO.N,VIN*%
X115595400Y-128269999D03*
%TO.P,J2,2,Pin_2*%
%TO.N,GND*%
X115595400Y-123189999D03*
%TD*%
D18*
%TO.P,C2,1*%
%TO.N,Net-(C2-Pad1)*%
X132562600Y-99388899D03*
%TO.P,C2,2*%
%TO.N,GND*%
X132562600Y-94463899D03*
%TD*%
D21*
%TO.P,R8,1*%
%TO.N,Net-(R7-Pad2)*%
X126493900Y-82905599D03*
%TO.P,R8,2*%
%TO.N,Net-(R8-Pad2)*%
X128318900Y-82905599D03*
%TD*%
D18*
%TO.P,C1,1*%
%TO.N,VIN*%
X125376300Y-127851399D03*
%TO.P,C1,2*%
%TO.N,GND*%
X125376300Y-122926399D03*
%TD*%
D17*
%TO.P,RL2,1*%
%TO.N,VOUT*%
X128828800Y-67054099D03*
%TO.P,RL2,2*%
%TO.N,GND*%
X128828800Y-65229099D03*
%TD*%
D22*
%TO.P,C4,1*%
%TO.N,VOUT1*%
X131938900Y-88239599D03*
%TO.P,C4,2*%
%TO.N,GND*%
X127013900Y-88239599D03*
%TD*%
D12*
%TO.P,J3,1,Pin_1*%
%TO.N,VOUT1*%
X115595400Y-98869499D03*
%TO.P,J3,2,Pin_2*%
%TO.N,GND*%
X115595400Y-93789499D03*
%TD*%
D18*
%TO.P,C3,1*%
%TO.N,VOUT1*%
X125806200Y-99465099D03*
%TO.P,C3,2*%
%TO.N,GND*%
X125806200Y-94540099D03*
%TD*%
D11*
%TO.P,R2,1*%
%TO.N,Net-(R1-Pad2)*%
X130938900Y-126546599D03*
%TO.P,R2,2*%
%TO.N,Net-(R2-Pad2)*%
X130938900Y-128371599D03*
%TD*%
D23*
%TO.N,GND*%
X118491000Y-104520999D03*
X118491000Y-104520999D03*
%TO.N,Net-(C2-Pad1)*%
X125476000Y-108203999D03*
X132588000Y-102869999D03*
%TO.N,Net-(C5-Pad1)*%
X124460000Y-71119999D03*
X132334000Y-69595999D03*
%TO.N,Net-(R2-Pad2)*%
X154940000Y-116585999D03*
%TO.N,Net-(R8-Pad2)*%
X134010400Y-82905599D03*
%TD*%
D24*
%TO.N,GND*%
X119049800Y-72823699D02*
X113717700Y-72823699D01*
X112395000Y-71500999D02*
X112395000Y-63118999D01*
X112395000Y-63118999D02*
X113004600Y-62509399D01*
X118491000Y-104520999D02*
X118514500Y-104497499D01*
X113004600Y-62509399D02*
X115595400Y-62509399D01*
X113717700Y-72823699D02*
X112395000Y-71500999D01*
X122732800Y-104497499D02*
X118491000Y-104520999D01*
%TO.N,Net-(C2-Pad1)*%
X132562600Y-99388899D02*
X132562600Y-102844599D01*
X111653200Y-108584999D02*
X122047000Y-108584999D01*
X122732800Y-107899199D02*
X122732800Y-106322499D01*
X122047000Y-108584999D02*
X122732800Y-107899199D01*
X132562600Y-102844599D02*
X132588000Y-102869999D01*
X125476000Y-106322499D02*
X125476000Y-108203999D01*
X122732800Y-106322499D02*
X125476000Y-106322499D01*
%TO.N,Net-(C5-Pad1)*%
X132334000Y-66646999D02*
X132232400Y-66545399D01*
X121539000Y-74648699D02*
X121564400Y-74623299D01*
X121617100Y-74675999D02*
X121564400Y-74623299D01*
X111670400Y-76289600D02*
X111670400Y-78130400D01*
X124460000Y-73659999D02*
X124460000Y-71119999D01*
X119049800Y-74648699D02*
X121539000Y-74648699D01*
X132334000Y-69595999D02*
X132334000Y-66646999D01*
X119049800Y-74648699D02*
X112295300Y-74648699D01*
X112295300Y-74648699D02*
X111670400Y-75273599D01*
X123496700Y-74623299D02*
X124460000Y-73659999D01*
X121564400Y-74623299D02*
X123496700Y-74623299D01*
D25*
%TO.N,VOUT1*%
X146466000Y-112358599D02*
X146466000Y-88553999D01*
X131938900Y-85710899D02*
X131938900Y-88239599D01*
X153936400Y-88239599D02*
X160429800Y-81746199D01*
X131938900Y-88239599D02*
X146151600Y-88239599D01*
X128318900Y-85191599D02*
X131419600Y-85191599D01*
X146151600Y-88239599D02*
X153936400Y-88239599D01*
X131419600Y-85191599D02*
X131938900Y-85710899D01*
D24*
%TO.N,Net-(R1-Pad2)*%
X128627500Y-126493899D02*
X128627500Y-115673499D01*
X128627500Y-115673499D02*
X126619000Y-113664999D01*
X126619000Y-113664999D02*
X111653200Y-113664999D01*
X128680200Y-126546599D02*
X128627500Y-126493899D01*
X130938900Y-126546599D02*
X128680200Y-126546599D01*
%TO.N,Net-(R7-Pad2)*%
X126493900Y-82905599D02*
X126493900Y-85191599D01*
X126341500Y-83057999D02*
X126493900Y-82905599D01*
X121818400Y-82194399D02*
X122682000Y-83057999D01*
X111670400Y-82194399D02*
X121818400Y-82194399D01*
X122682000Y-83057999D02*
X126341500Y-83057999D01*
%TO.N,Net-(R2-Pad2)*%
X130938900Y-128371599D02*
X153568400Y-128371599D01*
X153568400Y-128371599D02*
X154940000Y-126999999D01*
X154940000Y-126999999D02*
X154940000Y-116585999D01*
%TO.N,Net-(R8-Pad2)*%
X134112000Y-82803999D02*
X134010400Y-82905599D01*
X128318900Y-82905599D02*
X134010400Y-82905599D01*
%TD*%
%TA.AperFunction,Conductor*%
%TO.N,VOUT1*%
G36*
X127762000Y-99059999D02*
G01*
X128080419Y-99059999D01*
X128092555Y-99069779D01*
X128114976Y-99137143D01*
X128097418Y-99205934D01*
X128078229Y-99230658D01*
X128077061Y-99231828D01*
X128068049Y-99243239D01*
X127982984Y-99381242D01*
X127976837Y-99394423D01*
X127925662Y-99548709D01*
X127922795Y-99562085D01*
X127913128Y-99656437D01*
X127912800Y-99662854D01*
X127912800Y-99700384D01*
X127917275Y-99715623D01*
X127918665Y-99716828D01*
X127926348Y-99718499D01*
X129248800Y-99718499D01*
X129316921Y-99738501D01*
X129363414Y-99792157D01*
X129374800Y-99844499D01*
X129374800Y-100974883D01*
X129379275Y-100990122D01*
X129380665Y-100991327D01*
X129388348Y-100992998D01*
X129617895Y-100992998D01*
X129624414Y-100992661D01*
X129720006Y-100982742D01*
X129733400Y-100979850D01*
X129887584Y-100928411D01*
X129900762Y-100922238D01*
X130038607Y-100836936D01*
X130050008Y-100827900D01*
X130164539Y-100713170D01*
X130173551Y-100701759D01*
X130258616Y-100563756D01*
X130264763Y-100550575D01*
X130310407Y-100412964D01*
X130350838Y-100354605D01*
X130416402Y-100327368D01*
X130486284Y-100339902D01*
X130538296Y-100388226D01*
X130556000Y-100452632D01*
X130556000Y-105409999D01*
X126405336Y-105409999D01*
X126408461Y-105365758D01*
X126437382Y-105320670D01*
X126519739Y-105238170D01*
X126528751Y-105226759D01*
X126613816Y-105088756D01*
X126619963Y-105075575D01*
X126671138Y-104921289D01*
X126674005Y-104907913D01*
X126683672Y-104813561D01*
X126684000Y-104807145D01*
X126684000Y-104769614D01*
X126679525Y-104754375D01*
X126678135Y-104753170D01*
X126670452Y-104751499D01*
X125348000Y-104751499D01*
X125279879Y-104731497D01*
X125233386Y-104677841D01*
X125222000Y-104625499D01*
X125222000Y-104225384D01*
X125730000Y-104225384D01*
X125734475Y-104240623D01*
X125735865Y-104241828D01*
X125743548Y-104243499D01*
X126665884Y-104243499D01*
X126681123Y-104239024D01*
X126682328Y-104237634D01*
X126683999Y-104229951D01*
X126683999Y-104187904D01*
X126683662Y-104181385D01*
X126673743Y-104085793D01*
X126670851Y-104072399D01*
X126619412Y-103918215D01*
X126613239Y-103905037D01*
X126527937Y-103767192D01*
X126518901Y-103755791D01*
X126404171Y-103641260D01*
X126392760Y-103632248D01*
X126254757Y-103547183D01*
X126241576Y-103541036D01*
X126087290Y-103489861D01*
X126073914Y-103486994D01*
X125979562Y-103477327D01*
X125973145Y-103476999D01*
X125748115Y-103476999D01*
X125732876Y-103481474D01*
X125731671Y-103482864D01*
X125730000Y-103490547D01*
X125730000Y-104225384D01*
X125222000Y-104225384D01*
X125222000Y-103495115D01*
X125217525Y-103479876D01*
X125216135Y-103478671D01*
X125208452Y-103477000D01*
X124978905Y-103477000D01*
X124972386Y-103477337D01*
X124876794Y-103487256D01*
X124863400Y-103490148D01*
X124709216Y-103541587D01*
X124696038Y-103547760D01*
X124558193Y-103633062D01*
X124546792Y-103642098D01*
X124432263Y-103756826D01*
X124430881Y-103758576D01*
X124429632Y-103759461D01*
X124427090Y-103762008D01*
X124426654Y-103761573D01*
X124372963Y-103799637D01*
X124302040Y-103802868D01*
X124240629Y-103767242D01*
X124208228Y-103704071D01*
X124206000Y-103680482D01*
X124206000Y-100602015D01*
X124279263Y-100720406D01*
X124288299Y-100731807D01*
X124403029Y-100846338D01*
X124414440Y-100855350D01*
X124552443Y-100940415D01*
X124565624Y-100946562D01*
X124719910Y-100997737D01*
X124733286Y-101000604D01*
X124827638Y-101010271D01*
X124834054Y-101010599D01*
X125534085Y-101010599D01*
X125549324Y-101006124D01*
X125550529Y-101004734D01*
X125552200Y-100997051D01*
X125552200Y-100992483D01*
X126060200Y-100992483D01*
X126064675Y-101007722D01*
X126066065Y-101008927D01*
X126073748Y-101010598D01*
X126778295Y-101010598D01*
X126784814Y-101010261D01*
X126880406Y-101000342D01*
X126893800Y-100997450D01*
X127047984Y-100946011D01*
X127061162Y-100939838D01*
X127199007Y-100854536D01*
X127210408Y-100845500D01*
X127324939Y-100730770D01*
X127333951Y-100719359D01*
X127419016Y-100581356D01*
X127425163Y-100568175D01*
X127476338Y-100413889D01*
X127479205Y-100400513D01*
X127488872Y-100306161D01*
X127489200Y-100299745D01*
X127489200Y-100282094D01*
X127912801Y-100282094D01*
X127913138Y-100288613D01*
X127923057Y-100384205D01*
X127925949Y-100397599D01*
X127977388Y-100551783D01*
X127983561Y-100564961D01*
X128068863Y-100702806D01*
X128077899Y-100714207D01*
X128192629Y-100828738D01*
X128204040Y-100837750D01*
X128342043Y-100922815D01*
X128355224Y-100928962D01*
X128509510Y-100980137D01*
X128522886Y-100983004D01*
X128617238Y-100992671D01*
X128623654Y-100992999D01*
X128848685Y-100992999D01*
X128863924Y-100988524D01*
X128865129Y-100987134D01*
X128866800Y-100979451D01*
X128866800Y-100244614D01*
X128862325Y-100229375D01*
X128860935Y-100228170D01*
X128853252Y-100226499D01*
X127930916Y-100226499D01*
X127915677Y-100230974D01*
X127914472Y-100232364D01*
X127912801Y-100240047D01*
X127912801Y-100282094D01*
X127489200Y-100282094D01*
X127489200Y-99737214D01*
X127484725Y-99721975D01*
X127483335Y-99720770D01*
X127475652Y-99719099D01*
X126078315Y-99719099D01*
X126063076Y-99723574D01*
X126061871Y-99724964D01*
X126060200Y-99732647D01*
X126060200Y-100992483D01*
X125552200Y-100992483D01*
X125552200Y-99337099D01*
X125572202Y-99268978D01*
X125625858Y-99222485D01*
X125678200Y-99211099D01*
X127471084Y-99211099D01*
X127486323Y-99206624D01*
X127487528Y-99205234D01*
X127489199Y-99197551D01*
X127489199Y-98986784D01*
X127509201Y-98918663D01*
X127562857Y-98872170D01*
X127572749Y-98870748D01*
X127762000Y-99059999D01*
G37*
%TD.AperFunction*%
%TD*%
%TA.AperFunction,Conductor*%
%TO.N,VIN*%
G36*
X158378740Y-116468981D02*
G01*
X158419205Y-116527317D01*
X158421707Y-116598270D01*
X158396509Y-116647623D01*
X158292941Y-116772150D01*
X158287529Y-116779737D01*
X158152965Y-117001490D01*
X158148736Y-117009791D01*
X158048432Y-117248988D01*
X158045471Y-117257838D01*
X157981628Y-117509224D01*
X157980006Y-117518421D01*
X157954020Y-117776484D01*
X157953775Y-117785810D01*
X157966220Y-118044887D01*
X157967356Y-118054142D01*
X158017961Y-118308544D01*
X158020449Y-118317516D01*
X158108095Y-118561632D01*
X158111895Y-118570167D01*
X158234658Y-118798641D01*
X158239666Y-118806503D01*
X158309720Y-118900315D01*
X158320979Y-118908764D01*
X158333397Y-118901992D01*
X159676905Y-117558484D01*
X159739217Y-117524458D01*
X159810032Y-117529523D01*
X159855095Y-117558484D01*
X161202094Y-118905483D01*
X161214474Y-118912243D01*
X161222815Y-118905999D01*
X161312029Y-118767301D01*
X161365703Y-118720830D01*
X161435981Y-118710754D01*
X161500550Y-118740272D01*
X161538910Y-118800014D01*
X161544000Y-118835464D01*
X161544000Y-131019809D01*
X161523998Y-131087930D01*
X161507095Y-131108904D01*
X161080905Y-131535094D01*
X161018593Y-131569120D01*
X160991810Y-131571999D01*
X115106190Y-131571999D01*
X115038069Y-131551997D01*
X115017095Y-131535094D01*
X114590905Y-131108904D01*
X114556879Y-131046592D01*
X114554000Y-131019809D01*
X114554000Y-129793999D01*
X115269376Y-129793999D01*
X115346108Y-129812421D01*
X115355855Y-129813964D01*
X115590470Y-129832429D01*
X115600330Y-129832429D01*
X115834945Y-129813964D01*
X115844692Y-129812421D01*
X115921424Y-129793999D01*
X155956000Y-129793999D01*
X157226000Y-128269999D01*
X157226000Y-119273505D01*
X158685839Y-119273505D01*
X158694553Y-119285026D01*
X158801452Y-119363408D01*
X158809351Y-119368344D01*
X159038905Y-119489118D01*
X159047454Y-119492835D01*
X159292327Y-119578348D01*
X159301336Y-119580762D01*
X159556166Y-119629143D01*
X159565423Y-119630197D01*
X159824607Y-119640382D01*
X159833921Y-119640056D01*
X160091753Y-119611819D01*
X160100930Y-119610118D01*
X160351758Y-119544080D01*
X160360574Y-119541044D01*
X160598880Y-119438661D01*
X160607167Y-119434347D01*
X160827718Y-119297865D01*
X160835268Y-119292379D01*
X160840559Y-119287900D01*
X160848997Y-119275096D01*
X160842935Y-119264744D01*
X159778812Y-118200621D01*
X159764868Y-118193007D01*
X159763035Y-118193138D01*
X159756420Y-118197389D01*
X158692497Y-119261312D01*
X158685839Y-119273505D01*
X157226000Y-119273505D01*
X157226000Y-117868446D01*
X157232466Y-117828601D01*
X157425670Y-117248988D01*
X157519535Y-116967394D01*
X157538267Y-116931643D01*
X157670153Y-116755795D01*
X157714604Y-116718697D01*
X158243286Y-116454356D01*
X158313160Y-116441782D01*
X158378740Y-116468981D01*
G37*
%TD.AperFunction*%
%TD*%
%TA.AperFunction,Conductor*%
%TO.N,GND*%
G36*
X125619007Y-86634001D02*
G01*
X125665500Y-86687657D01*
X125675604Y-86757931D01*
X125646110Y-86822511D01*
X125640059Y-86829017D01*
X125632661Y-86836427D01*
X125623649Y-86847839D01*
X125538584Y-86985842D01*
X125532437Y-86999023D01*
X125481262Y-87153309D01*
X125478395Y-87166685D01*
X125468728Y-87261037D01*
X125468400Y-87267454D01*
X125468400Y-87967484D01*
X125472875Y-87982723D01*
X125474265Y-87983928D01*
X125481948Y-87985599D01*
X128541284Y-87985599D01*
X128556523Y-87981124D01*
X128557728Y-87979734D01*
X128559399Y-87972051D01*
X128559399Y-87267504D01*
X128559062Y-87260985D01*
X128549143Y-87165393D01*
X128546251Y-87151999D01*
X128494812Y-86997815D01*
X128488639Y-86984637D01*
X128403337Y-86846792D01*
X128394301Y-86835391D01*
X128388072Y-86829173D01*
X128353992Y-86766890D01*
X128358995Y-86696070D01*
X128401492Y-86639197D01*
X128467990Y-86614328D01*
X128477089Y-86613999D01*
X128479810Y-86613999D01*
X128547931Y-86634001D01*
X128568905Y-86650904D01*
X128995095Y-87077094D01*
X129029121Y-87139406D01*
X129032000Y-87166189D01*
X129032000Y-92709999D01*
X131363261Y-92709999D01*
X131431382Y-92730001D01*
X131477875Y-92783657D01*
X131487979Y-92853931D01*
X131458485Y-92918511D01*
X131403137Y-92955523D01*
X131320816Y-92982987D01*
X131307638Y-92989160D01*
X131169793Y-93074462D01*
X131158392Y-93083498D01*
X131043861Y-93198228D01*
X131034849Y-93209639D01*
X130949784Y-93347642D01*
X130943637Y-93360823D01*
X130892462Y-93515109D01*
X130889595Y-93528485D01*
X130879928Y-93622837D01*
X130879600Y-93629254D01*
X130879600Y-94191784D01*
X130884075Y-94207023D01*
X130885465Y-94208228D01*
X130893148Y-94209899D01*
X134227484Y-94209899D01*
X134242723Y-94205424D01*
X134243928Y-94204034D01*
X134245599Y-94196351D01*
X134245599Y-93629304D01*
X134245262Y-93622785D01*
X134235343Y-93527193D01*
X134232451Y-93513799D01*
X134181012Y-93359615D01*
X134174839Y-93346437D01*
X134089537Y-93208592D01*
X134080501Y-93197191D01*
X133965771Y-93082660D01*
X133954360Y-93073648D01*
X133816357Y-92988583D01*
X133803174Y-92982435D01*
X133722245Y-92955592D01*
X133663885Y-92915161D01*
X133636648Y-92849597D01*
X133649182Y-92779715D01*
X133697506Y-92727704D01*
X133761912Y-92709999D01*
X134702810Y-92709999D01*
X134770931Y-92730001D01*
X134791905Y-92746904D01*
X135218095Y-93173094D01*
X135252121Y-93235406D01*
X135255000Y-93262189D01*
X135255000Y-95713809D01*
X135234998Y-95781930D01*
X135218095Y-95802904D01*
X134791905Y-96229094D01*
X134729593Y-96263120D01*
X134702810Y-96265999D01*
X130429000Y-96265999D01*
X130429000Y-97388249D01*
X130408998Y-97456370D01*
X130355342Y-97502863D01*
X130285068Y-97512967D01*
X130220488Y-97483473D01*
X130195856Y-97454552D01*
X130172737Y-97417192D01*
X130163701Y-97405791D01*
X130048971Y-97291260D01*
X130037560Y-97282248D01*
X129899557Y-97197183D01*
X129886376Y-97191036D01*
X129732090Y-97139861D01*
X129718714Y-97136994D01*
X129624362Y-97127327D01*
X129617945Y-97126999D01*
X129392915Y-97126999D01*
X129377676Y-97131474D01*
X129376471Y-97132864D01*
X129374800Y-97140547D01*
X129374800Y-98170999D01*
X128866800Y-98170999D01*
X128866800Y-97145115D01*
X128862325Y-97129876D01*
X128860935Y-97128671D01*
X128853252Y-97127000D01*
X128623705Y-97127000D01*
X128617186Y-97127337D01*
X128521594Y-97137256D01*
X128508200Y-97140148D01*
X128354016Y-97191587D01*
X128340838Y-97197760D01*
X128208303Y-97279776D01*
X128139851Y-97298614D01*
X128072082Y-97277453D01*
X128026510Y-97223012D01*
X128016000Y-97172632D01*
X128016000Y-96011999D01*
X127422133Y-96011999D01*
X127354012Y-95991997D01*
X127307519Y-95938341D01*
X127297415Y-95868067D01*
X127323252Y-95807906D01*
X127333950Y-95794360D01*
X127419016Y-95656356D01*
X127425163Y-95643175D01*
X127476338Y-95488889D01*
X127479205Y-95475513D01*
X127488872Y-95381161D01*
X127489200Y-95374745D01*
X127489200Y-95298494D01*
X130879601Y-95298494D01*
X130879938Y-95305013D01*
X130889857Y-95400605D01*
X130892749Y-95413999D01*
X130944188Y-95568183D01*
X130950361Y-95581361D01*
X131035663Y-95719206D01*
X131044699Y-95730607D01*
X131159429Y-95845138D01*
X131170840Y-95854150D01*
X131308843Y-95939215D01*
X131322024Y-95945362D01*
X131476310Y-95996537D01*
X131489686Y-95999404D01*
X131584038Y-96009071D01*
X131590454Y-96009399D01*
X132290485Y-96009399D01*
X132305724Y-96004924D01*
X132306929Y-96003534D01*
X132308600Y-95995851D01*
X132308600Y-95991283D01*
X132816600Y-95991283D01*
X132821075Y-96006522D01*
X132822465Y-96007727D01*
X132830148Y-96009398D01*
X133534695Y-96009398D01*
X133541214Y-96009061D01*
X133636806Y-95999142D01*
X133650200Y-95996250D01*
X133804384Y-95944811D01*
X133817562Y-95938638D01*
X133955407Y-95853336D01*
X133966808Y-95844300D01*
X134081339Y-95729570D01*
X134090351Y-95718159D01*
X134175416Y-95580156D01*
X134181563Y-95566975D01*
X134232738Y-95412689D01*
X134235605Y-95399313D01*
X134245272Y-95304961D01*
X134245600Y-95298545D01*
X134245600Y-94736014D01*
X134241125Y-94720775D01*
X134239735Y-94719570D01*
X134232052Y-94717899D01*
X132834715Y-94717899D01*
X132819476Y-94722374D01*
X132818271Y-94723764D01*
X132816600Y-94731447D01*
X132816600Y-95991283D01*
X132308600Y-95991283D01*
X132308600Y-94736014D01*
X132304125Y-94720775D01*
X132302735Y-94719570D01*
X132295052Y-94717899D01*
X130897716Y-94717899D01*
X130882477Y-94722374D01*
X130881272Y-94723764D01*
X130879601Y-94731447D01*
X130879601Y-95298494D01*
X127489200Y-95298494D01*
X127489200Y-94812214D01*
X127484725Y-94796975D01*
X127483335Y-94795770D01*
X127475652Y-94794099D01*
X124141316Y-94794099D01*
X124126077Y-94798574D01*
X124124872Y-94799964D01*
X124123201Y-94807647D01*
X124123201Y-95374694D01*
X124123538Y-95381213D01*
X124133457Y-95476805D01*
X124136349Y-95490199D01*
X124187788Y-95644383D01*
X124193961Y-95657561D01*
X124279266Y-95795411D01*
X124289035Y-95807737D01*
X124315671Y-95873548D01*
X124302499Y-95943312D01*
X124253700Y-95994879D01*
X124190288Y-96011999D01*
X113836190Y-96011999D01*
X113768069Y-95991997D01*
X113747095Y-95975094D01*
X113320905Y-95548904D01*
X113286879Y-95486592D01*
X113284000Y-95459809D01*
X113284000Y-95058529D01*
X114691200Y-95058529D01*
X114696927Y-95066179D01*
X114881672Y-95179392D01*
X114890467Y-95183874D01*
X115107890Y-95273933D01*
X115117275Y-95276982D01*
X115346108Y-95331921D01*
X115355855Y-95333464D01*
X115590470Y-95351929D01*
X115600330Y-95351929D01*
X115834945Y-95333464D01*
X115844692Y-95331921D01*
X116073525Y-95276982D01*
X116082910Y-95273933D01*
X116300333Y-95183874D01*
X116309128Y-95179392D01*
X116490205Y-95068427D01*
X116499667Y-95057969D01*
X116495884Y-95049193D01*
X115608212Y-94161521D01*
X115594268Y-94153907D01*
X115592435Y-94154038D01*
X115585820Y-94158289D01*
X114697960Y-95046149D01*
X114691200Y-95058529D01*
X113284000Y-95058529D01*
X113284000Y-93794429D01*
X114032970Y-93794429D01*
X114051435Y-94029044D01*
X114052978Y-94038791D01*
X114107917Y-94267624D01*
X114110966Y-94277009D01*
X114201025Y-94494432D01*
X114205507Y-94503227D01*
X114316472Y-94684304D01*
X114326930Y-94693766D01*
X114335706Y-94689983D01*
X115223378Y-93802311D01*
X115229756Y-93790631D01*
X115959808Y-93790631D01*
X115959939Y-93792464D01*
X115964190Y-93799079D01*
X116852050Y-94686939D01*
X116864430Y-94693699D01*
X116872080Y-94687972D01*
X116985293Y-94503227D01*
X116989775Y-94494432D01*
X117079834Y-94277009D01*
X117082766Y-94267984D01*
X124123200Y-94267984D01*
X124127675Y-94283223D01*
X124129065Y-94284428D01*
X124136748Y-94286099D01*
X125534085Y-94286099D01*
X125549324Y-94281624D01*
X125550529Y-94280234D01*
X125552200Y-94272551D01*
X125552200Y-94267984D01*
X126060200Y-94267984D01*
X126064675Y-94283223D01*
X126066065Y-94284428D01*
X126073748Y-94286099D01*
X127471084Y-94286099D01*
X127486323Y-94281624D01*
X127487528Y-94280234D01*
X127489199Y-94272551D01*
X127489199Y-93705504D01*
X127488862Y-93698985D01*
X127478943Y-93603393D01*
X127476051Y-93589999D01*
X127424612Y-93435815D01*
X127418439Y-93422637D01*
X127333137Y-93284792D01*
X127324101Y-93273391D01*
X127209371Y-93158860D01*
X127197960Y-93149848D01*
X127059957Y-93064783D01*
X127046776Y-93058636D01*
X126892490Y-93007461D01*
X126879114Y-93004594D01*
X126784762Y-92994927D01*
X126778345Y-92994599D01*
X126078315Y-92994599D01*
X126063076Y-92999074D01*
X126061871Y-93000464D01*
X126060200Y-93008147D01*
X126060200Y-94267984D01*
X125552200Y-94267984D01*
X125552200Y-93012715D01*
X125547725Y-92997476D01*
X125546335Y-92996271D01*
X125538652Y-92994600D01*
X124834105Y-92994600D01*
X124827586Y-92994937D01*
X124731994Y-93004856D01*
X124718600Y-93007748D01*
X124564416Y-93059187D01*
X124551238Y-93065360D01*
X124413393Y-93150662D01*
X124401992Y-93159698D01*
X124287461Y-93274428D01*
X124278449Y-93285839D01*
X124193384Y-93423842D01*
X124187237Y-93437023D01*
X124136062Y-93591309D01*
X124133195Y-93604685D01*
X124123528Y-93699037D01*
X124123200Y-93705454D01*
X124123200Y-94267984D01*
X117082766Y-94267984D01*
X117082883Y-94267624D01*
X117137822Y-94038791D01*
X117139365Y-94029044D01*
X117157830Y-93794429D01*
X117157830Y-93784569D01*
X117139365Y-93549954D01*
X117137822Y-93540207D01*
X117082883Y-93311374D01*
X117079834Y-93301989D01*
X116989775Y-93084566D01*
X116985293Y-93075771D01*
X116874328Y-92894694D01*
X116863870Y-92885232D01*
X116855094Y-92889015D01*
X115967422Y-93776687D01*
X115959808Y-93790631D01*
X115229756Y-93790631D01*
X115230992Y-93788367D01*
X115230861Y-93786534D01*
X115226610Y-93779919D01*
X114338750Y-92892059D01*
X114326370Y-92885299D01*
X114318720Y-92891026D01*
X114205507Y-93075771D01*
X114201025Y-93084566D01*
X114110966Y-93301989D01*
X114107917Y-93311374D01*
X114052978Y-93540207D01*
X114051435Y-93549954D01*
X114032970Y-93784569D01*
X114032970Y-93794429D01*
X113284000Y-93794429D01*
X113284000Y-92521029D01*
X114691133Y-92521029D01*
X114694916Y-92529805D01*
X115582588Y-93417477D01*
X115596532Y-93425091D01*
X115598365Y-93424960D01*
X115604980Y-93420709D01*
X116492840Y-92532849D01*
X116499600Y-92520469D01*
X116493873Y-92512819D01*
X116309128Y-92399606D01*
X116300333Y-92395124D01*
X116082910Y-92305065D01*
X116073525Y-92302016D01*
X115844692Y-92247077D01*
X115834945Y-92245534D01*
X115600330Y-92227069D01*
X115590470Y-92227069D01*
X115355855Y-92245534D01*
X115346108Y-92247077D01*
X115117275Y-92302016D01*
X115107890Y-92305065D01*
X114890467Y-92395124D01*
X114881672Y-92399606D01*
X114700595Y-92510571D01*
X114691133Y-92521029D01*
X113284000Y-92521029D01*
X113284000Y-89211694D01*
X125468401Y-89211694D01*
X125468738Y-89218213D01*
X125478657Y-89313805D01*
X125481549Y-89327199D01*
X125532988Y-89481383D01*
X125539161Y-89494561D01*
X125624463Y-89632406D01*
X125633499Y-89643807D01*
X125748229Y-89758338D01*
X125759640Y-89767350D01*
X125897643Y-89852415D01*
X125910824Y-89858562D01*
X126065110Y-89909737D01*
X126078486Y-89912604D01*
X126172838Y-89922271D01*
X126179254Y-89922599D01*
X126741785Y-89922599D01*
X126757024Y-89918124D01*
X126758229Y-89916734D01*
X126759900Y-89909051D01*
X126759900Y-89904483D01*
X127267900Y-89904483D01*
X127272375Y-89919722D01*
X127273765Y-89920927D01*
X127281448Y-89922598D01*
X127848495Y-89922598D01*
X127855014Y-89922261D01*
X127950606Y-89912342D01*
X127964000Y-89909450D01*
X128118184Y-89858011D01*
X128131362Y-89851838D01*
X128269207Y-89766536D01*
X128280608Y-89757500D01*
X128395139Y-89642770D01*
X128404151Y-89631359D01*
X128489216Y-89493356D01*
X128495363Y-89480175D01*
X128546538Y-89325889D01*
X128549405Y-89312513D01*
X128559072Y-89218161D01*
X128559400Y-89211745D01*
X128559400Y-88511714D01*
X128554925Y-88496475D01*
X128553535Y-88495270D01*
X128545852Y-88493599D01*
X127286015Y-88493599D01*
X127270776Y-88498074D01*
X127269571Y-88499464D01*
X127267900Y-88507147D01*
X127267900Y-89904483D01*
X126759900Y-89904483D01*
X126759900Y-88511714D01*
X126755425Y-88496475D01*
X126754035Y-88495270D01*
X126746352Y-88493599D01*
X125486516Y-88493599D01*
X125471277Y-88498074D01*
X125470072Y-88499464D01*
X125468401Y-88507147D01*
X125468401Y-89211694D01*
X113284000Y-89211694D01*
X113284000Y-87166189D01*
X113304002Y-87098068D01*
X113320905Y-87077094D01*
X113747095Y-86650904D01*
X113809407Y-86616878D01*
X113836190Y-86613999D01*
X125550886Y-86613999D01*
X125619007Y-86634001D01*
G37*
%TD.AperFunction*%
%TD*%
%TA.AperFunction,Conductor*%
%TO.N,GND*%
G36*
X124034407Y-60140729D02*
G01*
X124102144Y-60161987D01*
X124147635Y-60216495D01*
X124156436Y-60286944D01*
X124121244Y-60355724D01*
X124109665Y-60367323D01*
X124100649Y-60378739D01*
X124015584Y-60516742D01*
X124009437Y-60529923D01*
X123958262Y-60684209D01*
X123955395Y-60697585D01*
X123945728Y-60791937D01*
X123945400Y-60798354D01*
X123945400Y-61360884D01*
X123949875Y-61376123D01*
X123951265Y-61377328D01*
X123958948Y-61378999D01*
X127293284Y-61378999D01*
X127308523Y-61374524D01*
X127309728Y-61373134D01*
X127311399Y-61365451D01*
X127311399Y-60798404D01*
X127311062Y-60791885D01*
X127301143Y-60696293D01*
X127298251Y-60682899D01*
X127246812Y-60528715D01*
X127240638Y-60515536D01*
X127164815Y-60393007D01*
X127145977Y-60324555D01*
X127167138Y-60256785D01*
X127221579Y-60211214D01*
X127274290Y-60200726D01*
X128633288Y-60225893D01*
X130545930Y-60261313D01*
X130613669Y-60282573D01*
X130659160Y-60337080D01*
X130667961Y-60407529D01*
X130650857Y-60453407D01*
X130619584Y-60504142D01*
X130613437Y-60517323D01*
X130562262Y-60671609D01*
X130559395Y-60684985D01*
X130549728Y-60779337D01*
X130549400Y-60785754D01*
X130549400Y-61348284D01*
X130553875Y-61363523D01*
X130555265Y-61364728D01*
X130562948Y-61366399D01*
X132360400Y-61366399D01*
X132428521Y-61386401D01*
X132475014Y-61440057D01*
X132486400Y-61492399D01*
X132486400Y-61748399D01*
X132466398Y-61816520D01*
X132412742Y-61863013D01*
X132360400Y-61874399D01*
X130567516Y-61874399D01*
X130552277Y-61878874D01*
X130551072Y-61880264D01*
X130549401Y-61887947D01*
X130549401Y-62454994D01*
X130549738Y-62461513D01*
X130559657Y-62557105D01*
X130562549Y-62570499D01*
X130613988Y-62724683D01*
X130620161Y-62737861D01*
X130705463Y-62875706D01*
X130714499Y-62887107D01*
X130829229Y-63001638D01*
X130840643Y-63010652D01*
X130844030Y-63012740D01*
X130845857Y-63014770D01*
X130846385Y-63015187D01*
X130846314Y-63015277D01*
X130891523Y-63065512D01*
X130902945Y-63135584D01*
X130874671Y-63200708D01*
X130815677Y-63240207D01*
X130777913Y-63245999D01*
X129921000Y-63245999D01*
X129921000Y-64246309D01*
X129900998Y-64314430D01*
X129847342Y-64360923D01*
X129777068Y-64371027D01*
X129728884Y-64353569D01*
X129607557Y-64278783D01*
X129594376Y-64272636D01*
X129440090Y-64221461D01*
X129426714Y-64218594D01*
X129332362Y-64208927D01*
X129325945Y-64208599D01*
X129100915Y-64208599D01*
X129085676Y-64213074D01*
X129084471Y-64214464D01*
X129082800Y-64222147D01*
X129082800Y-65357099D01*
X129062798Y-65425220D01*
X129009142Y-65471713D01*
X128956800Y-65483099D01*
X128700800Y-65483099D01*
X128632679Y-65463097D01*
X128586186Y-65409441D01*
X128574800Y-65357099D01*
X128574800Y-64226715D01*
X128570325Y-64211476D01*
X128568935Y-64210271D01*
X128561252Y-64208600D01*
X128331705Y-64208600D01*
X128325186Y-64208937D01*
X128229594Y-64218856D01*
X128216200Y-64221748D01*
X128062016Y-64273187D01*
X128048838Y-64279360D01*
X127910993Y-64364662D01*
X127899592Y-64373698D01*
X127889000Y-64384308D01*
X127889000Y-64261999D01*
X116033805Y-64261999D01*
X115965684Y-64241997D01*
X115919191Y-64188341D01*
X115909087Y-64118067D01*
X115938581Y-64053487D01*
X116004391Y-64013480D01*
X116073525Y-63996882D01*
X116082910Y-63993833D01*
X116300333Y-63903774D01*
X116309128Y-63899292D01*
X116490205Y-63788327D01*
X116499667Y-63777869D01*
X116495884Y-63769093D01*
X115608212Y-62881421D01*
X115594268Y-62873807D01*
X115592435Y-62873938D01*
X115585820Y-62878189D01*
X114697960Y-63766049D01*
X114691200Y-63778429D01*
X114696927Y-63786079D01*
X114881672Y-63899292D01*
X114890467Y-63903774D01*
X115107890Y-63993833D01*
X115117275Y-63996882D01*
X115186409Y-64013480D01*
X115247978Y-64048832D01*
X115280661Y-64111859D01*
X115274080Y-64182550D01*
X115230326Y-64238461D01*
X115156995Y-64261999D01*
X113963190Y-64261999D01*
X113895069Y-64241997D01*
X113874095Y-64225094D01*
X113447905Y-63798904D01*
X113413879Y-63736592D01*
X113411000Y-63709809D01*
X113411000Y-62514329D01*
X114032970Y-62514329D01*
X114051435Y-62748944D01*
X114052978Y-62758691D01*
X114107917Y-62987524D01*
X114110966Y-62996909D01*
X114201025Y-63214332D01*
X114205507Y-63223127D01*
X114316472Y-63404204D01*
X114326930Y-63413666D01*
X114335706Y-63409883D01*
X115223378Y-62522211D01*
X115229756Y-62510531D01*
X115959808Y-62510531D01*
X115959939Y-62512364D01*
X115964190Y-62518979D01*
X116852050Y-63406839D01*
X116864430Y-63413599D01*
X116872080Y-63407872D01*
X116985293Y-63223127D01*
X116989775Y-63214332D01*
X117079834Y-62996909D01*
X117082883Y-62987524D01*
X117137822Y-62758691D01*
X117139365Y-62748944D01*
X117157830Y-62514329D01*
X117157830Y-62504469D01*
X117154928Y-62467594D01*
X123945401Y-62467594D01*
X123945738Y-62474113D01*
X123955657Y-62569705D01*
X123958549Y-62583099D01*
X124009988Y-62737283D01*
X124016161Y-62750461D01*
X124101463Y-62888306D01*
X124110499Y-62899707D01*
X124225229Y-63014238D01*
X124236640Y-63023250D01*
X124374643Y-63108315D01*
X124387824Y-63114462D01*
X124542110Y-63165637D01*
X124555486Y-63168504D01*
X124649838Y-63178171D01*
X124656254Y-63178499D01*
X125356285Y-63178499D01*
X125371524Y-63174024D01*
X125372729Y-63172634D01*
X125374400Y-63164951D01*
X125374400Y-63160383D01*
X125882400Y-63160383D01*
X125886875Y-63175622D01*
X125888265Y-63176827D01*
X125895948Y-63178498D01*
X126600495Y-63178498D01*
X126607014Y-63178161D01*
X126702606Y-63168242D01*
X126716000Y-63165350D01*
X126870184Y-63113911D01*
X126883362Y-63107738D01*
X127021207Y-63022436D01*
X127032608Y-63013400D01*
X127147139Y-62898670D01*
X127156151Y-62887259D01*
X127241216Y-62749256D01*
X127247363Y-62736075D01*
X127298538Y-62581789D01*
X127301405Y-62568413D01*
X127311072Y-62474061D01*
X127311400Y-62467645D01*
X127311400Y-61905114D01*
X127306925Y-61889875D01*
X127305535Y-61888670D01*
X127297852Y-61886999D01*
X125900515Y-61886999D01*
X125885276Y-61891474D01*
X125884071Y-61892864D01*
X125882400Y-61900547D01*
X125882400Y-63160383D01*
X125374400Y-63160383D01*
X125374400Y-61905114D01*
X125369925Y-61889875D01*
X125368535Y-61888670D01*
X125360852Y-61886999D01*
X123963516Y-61886999D01*
X123948277Y-61891474D01*
X123947072Y-61892864D01*
X123945401Y-61900547D01*
X123945401Y-62467594D01*
X117154928Y-62467594D01*
X117139365Y-62269854D01*
X117137822Y-62260107D01*
X117082883Y-62031274D01*
X117079834Y-62021889D01*
X116989775Y-61804466D01*
X116985293Y-61795671D01*
X116874328Y-61614594D01*
X116863870Y-61605132D01*
X116855094Y-61608915D01*
X115967422Y-62496587D01*
X115959808Y-62510531D01*
X115229756Y-62510531D01*
X115230992Y-62508267D01*
X115230861Y-62506434D01*
X115226610Y-62499819D01*
X114338750Y-61611959D01*
X114326370Y-61605199D01*
X114318720Y-61610926D01*
X114205507Y-61795671D01*
X114201025Y-61804466D01*
X114110966Y-62021889D01*
X114107917Y-62031274D01*
X114052978Y-62260107D01*
X114051435Y-62269854D01*
X114032970Y-62504469D01*
X114032970Y-62514329D01*
X113411000Y-62514329D01*
X113411000Y-61240929D01*
X114691133Y-61240929D01*
X114694916Y-61249705D01*
X115582588Y-62137377D01*
X115596532Y-62144991D01*
X115598365Y-62144860D01*
X115604980Y-62140609D01*
X116492840Y-61252749D01*
X116499600Y-61240369D01*
X116493873Y-61232719D01*
X116309128Y-61119506D01*
X116300333Y-61115024D01*
X116082910Y-61024965D01*
X116073525Y-61021916D01*
X115844692Y-60966977D01*
X115834945Y-60965434D01*
X115600330Y-60946969D01*
X115590470Y-60946969D01*
X115355855Y-60965434D01*
X115346108Y-60966977D01*
X115117275Y-61021916D01*
X115107890Y-61024965D01*
X114890467Y-61115024D01*
X114881672Y-61119506D01*
X114700595Y-61230471D01*
X114691133Y-61240929D01*
X113411000Y-61240929D01*
X113411000Y-60496874D01*
X113431002Y-60428753D01*
X113448728Y-60406963D01*
X113873183Y-59990296D01*
X113935806Y-59956851D01*
X113963781Y-59954236D01*
X124034407Y-60140729D01*
G37*
%TD.AperFunction*%
%TD*%
%TA.AperFunction,Conductor*%
%TO.N,VOUT*%
G36*
X123962278Y-65298001D02*
G01*
X124008771Y-65351657D01*
X124018875Y-65421931D01*
X124011173Y-65447785D01*
X124011742Y-65447974D01*
X123958262Y-65609209D01*
X123955395Y-65622585D01*
X123945728Y-65716937D01*
X123945400Y-65723354D01*
X123945400Y-66285884D01*
X123949875Y-66301123D01*
X123951265Y-66302328D01*
X123958948Y-66303999D01*
X127293284Y-66303999D01*
X127308524Y-66299524D01*
X127311357Y-66296255D01*
X127314867Y-66293999D01*
X127571936Y-66293999D01*
X127640057Y-66314001D01*
X127686550Y-66367657D01*
X127696654Y-66437931D01*
X127686129Y-66473253D01*
X127684837Y-66476024D01*
X127633662Y-66630309D01*
X127630795Y-66643685D01*
X127621128Y-66738037D01*
X127620800Y-66744454D01*
X127620800Y-66781984D01*
X127625275Y-66797223D01*
X127626665Y-66798428D01*
X127634348Y-66800099D01*
X128956800Y-66800099D01*
X129024921Y-66820101D01*
X129071414Y-66873757D01*
X129082800Y-66926099D01*
X129082800Y-67182099D01*
X129062798Y-67250220D01*
X129009142Y-67296713D01*
X128956800Y-67308099D01*
X127638916Y-67308099D01*
X127623677Y-67312574D01*
X127622472Y-67313964D01*
X127620801Y-67321647D01*
X127620801Y-67363694D01*
X127621138Y-67370213D01*
X127631057Y-67465805D01*
X127633949Y-67479199D01*
X127685388Y-67633383D01*
X127691561Y-67646561D01*
X127776863Y-67784406D01*
X127785899Y-67795807D01*
X127900629Y-67910338D01*
X127912040Y-67919350D01*
X128050043Y-68004415D01*
X128063224Y-68010562D01*
X128217510Y-68061737D01*
X128230886Y-68064604D01*
X128303061Y-68071999D01*
X126771005Y-68071999D01*
X126870184Y-68038911D01*
X126883362Y-68032738D01*
X127021207Y-67947436D01*
X127032608Y-67938400D01*
X127147139Y-67823670D01*
X127156151Y-67812259D01*
X127241216Y-67674256D01*
X127247363Y-67661075D01*
X127298538Y-67506789D01*
X127301405Y-67493413D01*
X127311072Y-67399061D01*
X127311400Y-67392645D01*
X127311400Y-66830114D01*
X127306925Y-66814875D01*
X127305535Y-66813670D01*
X127297852Y-66811999D01*
X123963516Y-66811999D01*
X123948277Y-66816474D01*
X123947072Y-66817864D01*
X123945401Y-66825547D01*
X123945401Y-67392594D01*
X123945738Y-67399113D01*
X123955657Y-67494705D01*
X123958549Y-67508099D01*
X124009988Y-67662283D01*
X124016161Y-67675461D01*
X124101463Y-67813306D01*
X124110499Y-67824707D01*
X124225229Y-67939238D01*
X124236640Y-67948250D01*
X124374643Y-68033315D01*
X124387826Y-68039463D01*
X124498564Y-68076193D01*
X124548329Y-68110670D01*
X123063000Y-69595999D01*
X123063000Y-72855477D01*
X123042998Y-72923598D01*
X123028096Y-72942526D01*
X122934274Y-73040709D01*
X122872750Y-73076141D01*
X122801838Y-73072685D01*
X122771231Y-73054992D01*
X122758852Y-73052299D01*
X121436400Y-73052299D01*
X121368279Y-73032297D01*
X121321786Y-72978641D01*
X121310400Y-72926299D01*
X121310400Y-72526184D01*
X121818400Y-72526184D01*
X121822875Y-72541423D01*
X121824265Y-72542628D01*
X121831948Y-72544299D01*
X122754284Y-72544299D01*
X122769523Y-72539824D01*
X122770728Y-72538434D01*
X122772399Y-72530751D01*
X122772399Y-72488704D01*
X122772062Y-72482185D01*
X122762143Y-72386593D01*
X122759251Y-72373199D01*
X122707812Y-72219015D01*
X122701639Y-72205837D01*
X122616337Y-72067992D01*
X122607301Y-72056591D01*
X122492571Y-71942060D01*
X122481160Y-71933048D01*
X122343157Y-71847983D01*
X122329976Y-71841836D01*
X122175690Y-71790661D01*
X122162314Y-71787794D01*
X122067962Y-71778127D01*
X122061545Y-71777799D01*
X121836515Y-71777799D01*
X121821276Y-71782274D01*
X121820071Y-71783664D01*
X121818400Y-71791347D01*
X121818400Y-72526184D01*
X121310400Y-72526184D01*
X121310400Y-71795915D01*
X121305925Y-71780676D01*
X121304535Y-71779471D01*
X121296852Y-71777800D01*
X121067305Y-71777800D01*
X121060786Y-71778137D01*
X120965194Y-71788056D01*
X120951800Y-71790948D01*
X120797616Y-71842387D01*
X120784438Y-71848560D01*
X120646593Y-71933862D01*
X120635192Y-71942898D01*
X120520661Y-72057628D01*
X120511649Y-72069039D01*
X120502260Y-72084271D01*
X120449488Y-72131764D01*
X120379416Y-72143188D01*
X120314292Y-72114914D01*
X120274793Y-72055920D01*
X120269000Y-72018155D01*
X120269000Y-70992999D01*
X119883035Y-70675146D01*
X119883035Y-70675145D01*
X119179786Y-70095999D01*
X118110000Y-69214999D01*
X117637751Y-69214999D01*
X117607264Y-69192768D01*
X117581622Y-69126564D01*
X117595842Y-69057006D01*
X117645411Y-69006178D01*
X117707178Y-68990000D01*
X121312643Y-68990000D01*
X121312643Y-66138000D01*
X116431357Y-66138000D01*
X116431357Y-66145794D01*
X116424860Y-66153292D01*
X116365134Y-66191676D01*
X116294137Y-66191676D01*
X116281417Y-66187189D01*
X116082910Y-66104965D01*
X116073525Y-66101916D01*
X115844692Y-66046977D01*
X115834945Y-66045434D01*
X115600330Y-66026969D01*
X115590470Y-66026969D01*
X115355855Y-66045434D01*
X115346108Y-66046977D01*
X115117275Y-66101916D01*
X115107890Y-66104965D01*
X114890467Y-66195024D01*
X114881672Y-66199506D01*
X114700595Y-66310471D01*
X114691133Y-66320929D01*
X114694916Y-66329705D01*
X115865515Y-67500304D01*
X115899541Y-67562616D01*
X115894476Y-67633431D01*
X115865515Y-67678494D01*
X114697960Y-68846049D01*
X114691200Y-68858429D01*
X114696927Y-68866079D01*
X114885384Y-68981567D01*
X114933015Y-69034214D01*
X114944622Y-69104256D01*
X114916519Y-69169453D01*
X114857628Y-69209107D01*
X114819549Y-69214999D01*
X114598190Y-69214999D01*
X114530069Y-69194997D01*
X114509095Y-69178094D01*
X114082905Y-68751904D01*
X114048879Y-68689592D01*
X114046000Y-68662809D01*
X114046000Y-68489596D01*
X114066002Y-68421475D01*
X114119658Y-68374982D01*
X114189932Y-68364878D01*
X114254512Y-68394372D01*
X114279432Y-68423761D01*
X114316472Y-68484204D01*
X114326930Y-68493666D01*
X114335706Y-68489883D01*
X115223378Y-67602211D01*
X115230992Y-67588267D01*
X115230861Y-67586434D01*
X115226610Y-67579819D01*
X114338750Y-66691959D01*
X114326370Y-66685199D01*
X114318720Y-66690926D01*
X114279432Y-66755037D01*
X114226785Y-66802669D01*
X114156743Y-66814275D01*
X114091546Y-66786171D01*
X114051892Y-66727281D01*
X114046000Y-66689202D01*
X114046000Y-65830189D01*
X114066002Y-65762068D01*
X114082905Y-65741094D01*
X114509095Y-65314904D01*
X114571407Y-65280878D01*
X114598190Y-65277999D01*
X123894157Y-65277999D01*
X123962278Y-65298001D01*
G37*
%TD.AperFunction*%
%TD*%
%TA.AperFunction,Conductor*%
%TO.N,VOUT1*%
G36*
X114825497Y-97302001D02*
G01*
X114871990Y-97355657D01*
X114882094Y-97425931D01*
X114852600Y-97490511D01*
X114823211Y-97515431D01*
X114700595Y-97590571D01*
X114691133Y-97601029D01*
X114694916Y-97609805D01*
X115582588Y-98497477D01*
X115596532Y-98505091D01*
X115598365Y-98504960D01*
X115604980Y-98500709D01*
X116492840Y-97612849D01*
X116499600Y-97600469D01*
X116493873Y-97592819D01*
X116367589Y-97515431D01*
X116319957Y-97462784D01*
X116308351Y-97392742D01*
X116336454Y-97327545D01*
X116395345Y-97287891D01*
X116433424Y-97281999D01*
X125966937Y-97281999D01*
X126015155Y-97291590D01*
X126822400Y-97625962D01*
X126863277Y-97653276D01*
X126918775Y-97708774D01*
X126952801Y-97771086D01*
X126947736Y-97841901D01*
X126905189Y-97898737D01*
X126838669Y-97923548D01*
X126816838Y-97923213D01*
X126784762Y-97919927D01*
X126778345Y-97919599D01*
X126078315Y-97919599D01*
X126063076Y-97924074D01*
X126061871Y-97925464D01*
X126060200Y-97933147D01*
X126060200Y-100992483D01*
X126064675Y-101007722D01*
X126066065Y-101008927D01*
X126073748Y-101010598D01*
X126778295Y-101010598D01*
X126784814Y-101010261D01*
X126880406Y-101000342D01*
X126893800Y-100997450D01*
X127047984Y-100946011D01*
X127061162Y-100939838D01*
X127199007Y-100854536D01*
X127210408Y-100845500D01*
X127254000Y-100801832D01*
X127254000Y-100837999D01*
X126492000Y-101599999D01*
X110979501Y-101599999D01*
X110920047Y-101585090D01*
X110282016Y-101243626D01*
X110231394Y-101193847D01*
X110220876Y-101169048D01*
X109987906Y-100399600D01*
X109982500Y-100363087D01*
X109982500Y-100138529D01*
X114691200Y-100138529D01*
X114696927Y-100146179D01*
X114881672Y-100259392D01*
X114890467Y-100263874D01*
X115107890Y-100353933D01*
X115117275Y-100356982D01*
X115346108Y-100411921D01*
X115355855Y-100413464D01*
X115590470Y-100431929D01*
X115600330Y-100431929D01*
X115834945Y-100413464D01*
X115844692Y-100411921D01*
X116073525Y-100356982D01*
X116082910Y-100353933D01*
X116213855Y-100299694D01*
X124123201Y-100299694D01*
X124123538Y-100306213D01*
X124133457Y-100401805D01*
X124136349Y-100415199D01*
X124187788Y-100569383D01*
X124193961Y-100582561D01*
X124279263Y-100720406D01*
X124288299Y-100731807D01*
X124403029Y-100846338D01*
X124414440Y-100855350D01*
X124552443Y-100940415D01*
X124565624Y-100946562D01*
X124719910Y-100997737D01*
X124733286Y-101000604D01*
X124827638Y-101010271D01*
X124834054Y-101010599D01*
X125534085Y-101010599D01*
X125549324Y-101006124D01*
X125550529Y-101004734D01*
X125552200Y-100997051D01*
X125552200Y-99737214D01*
X125547725Y-99721975D01*
X125546335Y-99720770D01*
X125538652Y-99719099D01*
X124141316Y-99719099D01*
X124126077Y-99723574D01*
X124124872Y-99724964D01*
X124123201Y-99732647D01*
X124123201Y-100299694D01*
X116213855Y-100299694D01*
X116300333Y-100263874D01*
X116309128Y-100259392D01*
X116490205Y-100148427D01*
X116499667Y-100137969D01*
X116495884Y-100129193D01*
X115608212Y-99241521D01*
X115594268Y-99233907D01*
X115592435Y-99234038D01*
X115585820Y-99238289D01*
X114697960Y-100126149D01*
X114691200Y-100138529D01*
X109982500Y-100138529D01*
X109982500Y-98874429D01*
X114032970Y-98874429D01*
X114051435Y-99109044D01*
X114052978Y-99118791D01*
X114107917Y-99347624D01*
X114110966Y-99357009D01*
X114201025Y-99574432D01*
X114205507Y-99583227D01*
X114316472Y-99764304D01*
X114326930Y-99773766D01*
X114335706Y-99769983D01*
X115223378Y-98882311D01*
X115229756Y-98870631D01*
X115959808Y-98870631D01*
X115959939Y-98872464D01*
X115964190Y-98879079D01*
X116852050Y-99766939D01*
X116864430Y-99773699D01*
X116872080Y-99767972D01*
X116985293Y-99583227D01*
X116989775Y-99574432D01*
X117079834Y-99357009D01*
X117082883Y-99347624D01*
X117120009Y-99192984D01*
X124123200Y-99192984D01*
X124127675Y-99208223D01*
X124129065Y-99209428D01*
X124136748Y-99211099D01*
X125534085Y-99211099D01*
X125549324Y-99206624D01*
X125550529Y-99205234D01*
X125552200Y-99197551D01*
X125552200Y-97937715D01*
X125547725Y-97922476D01*
X125546335Y-97921271D01*
X125538652Y-97919600D01*
X124834105Y-97919600D01*
X124827586Y-97919937D01*
X124731994Y-97929856D01*
X124718600Y-97932748D01*
X124564416Y-97984187D01*
X124551238Y-97990360D01*
X124413393Y-98075662D01*
X124401992Y-98084698D01*
X124287461Y-98199428D01*
X124278449Y-98210839D01*
X124193384Y-98348842D01*
X124187237Y-98362023D01*
X124136062Y-98516309D01*
X124133195Y-98529685D01*
X124123528Y-98624037D01*
X124123200Y-98630454D01*
X124123200Y-99192984D01*
X117120009Y-99192984D01*
X117137822Y-99118791D01*
X117139365Y-99109044D01*
X117157830Y-98874429D01*
X117157830Y-98864569D01*
X117139365Y-98629954D01*
X117137822Y-98620207D01*
X117082883Y-98391374D01*
X117079834Y-98381989D01*
X116989775Y-98164566D01*
X116985293Y-98155771D01*
X116874328Y-97974694D01*
X116863870Y-97965232D01*
X116855094Y-97969015D01*
X115967422Y-98856687D01*
X115959808Y-98870631D01*
X115229756Y-98870631D01*
X115230992Y-98868367D01*
X115230861Y-98866534D01*
X115226610Y-98859919D01*
X114338750Y-97972059D01*
X114326370Y-97965299D01*
X114318720Y-97971026D01*
X114205507Y-98155771D01*
X114201025Y-98164566D01*
X114110966Y-98381989D01*
X114107917Y-98391374D01*
X114052978Y-98620207D01*
X114051435Y-98629954D01*
X114032970Y-98864569D01*
X114032970Y-98874429D01*
X109982500Y-98874429D01*
X109982500Y-98821855D01*
X109992091Y-98773637D01*
X110325963Y-97967599D01*
X110353277Y-97926722D01*
X110626723Y-97653276D01*
X110667600Y-97625962D01*
X111474845Y-97291590D01*
X111523063Y-97281999D01*
X114757376Y-97281999D01*
X114825497Y-97302001D01*
G37*
%TD.AperFunction*%
%TD*%
%TA.AperFunction,Conductor*%
%TO.N,VOUT*%
G36*
X130048000Y-80009999D02*
G01*
X129403277Y-80654722D01*
X129362400Y-80682036D01*
X128555155Y-81016408D01*
X128506937Y-81025999D01*
X112706429Y-81025999D01*
X112638308Y-81005997D01*
X112591815Y-80952341D01*
X112581711Y-80882067D01*
X112611205Y-80817487D01*
X112621630Y-80806805D01*
X112785880Y-80657349D01*
X112792906Y-80649816D01*
X112935345Y-80469455D01*
X112941050Y-80460868D01*
X113052114Y-80259677D01*
X113056344Y-80250265D01*
X113133059Y-80033631D01*
X113135693Y-80023660D01*
X113153047Y-79926236D01*
X113151587Y-79912939D01*
X113137030Y-79908399D01*
X111542400Y-79908399D01*
X111474279Y-79888397D01*
X111427786Y-79834741D01*
X111416400Y-79782399D01*
X111416400Y-79526399D01*
X111436402Y-79458278D01*
X111490058Y-79411785D01*
X111542400Y-79400399D01*
X113138496Y-79400399D01*
X113151840Y-79396481D01*
X113153827Y-79382205D01*
X113144290Y-79319884D01*
X113141901Y-79309856D01*
X113070502Y-79091411D01*
X113066505Y-79081902D01*
X112960389Y-78878055D01*
X112954900Y-78869338D01*
X112841498Y-78718300D01*
X112816593Y-78651815D01*
X112831586Y-78582419D01*
X112881716Y-78532146D01*
X112898025Y-78524667D01*
X112917105Y-78517514D01*
X112925567Y-78511172D01*
X112927049Y-78510618D01*
X112932160Y-78507820D01*
X112932564Y-78508558D01*
X112992074Y-78486325D01*
X113001131Y-78485999D01*
X126238000Y-78485999D01*
X127000000Y-77977999D01*
X130048000Y-77977999D01*
X130048000Y-80009999D01*
G37*
%TD.AperFunction*%
%TD*%
%TA.AperFunction,Conductor*%
%TO.N,VOUT*%
G36*
X127640057Y-66314001D02*
G01*
X127686550Y-66367657D01*
X127696654Y-66437931D01*
X127686129Y-66473253D01*
X127684837Y-66476024D01*
X127633662Y-66630309D01*
X127630795Y-66643685D01*
X127621128Y-66738037D01*
X127620800Y-66744454D01*
X127620800Y-66781984D01*
X127625275Y-66797223D01*
X127626665Y-66798428D01*
X127634348Y-66800099D01*
X128956800Y-66800099D01*
X129024921Y-66820101D01*
X129071414Y-66873757D01*
X129082800Y-66926099D01*
X129082800Y-68056483D01*
X129087275Y-68071722D01*
X129088665Y-68072927D01*
X129096348Y-68074598D01*
X129325895Y-68074598D01*
X129332414Y-68074261D01*
X129428006Y-68064342D01*
X129441400Y-68061450D01*
X129595584Y-68010011D01*
X129615383Y-68000736D01*
X129616591Y-68003314D01*
X129672466Y-67987936D01*
X129740236Y-68009095D01*
X129785808Y-68063535D01*
X129794000Y-68116964D01*
X129794000Y-68135499D01*
X129794001Y-70095999D01*
X129794001Y-71881999D01*
X130556001Y-72898000D01*
X145144125Y-72898000D01*
X145212246Y-72918002D01*
X145258739Y-72971658D01*
X145268843Y-73041932D01*
X145239349Y-73106512D01*
X145212750Y-73129672D01*
X144964795Y-73290696D01*
X144959440Y-73294587D01*
X144723745Y-73485450D01*
X144715277Y-73497708D01*
X144721610Y-73508798D01*
X147116990Y-75904179D01*
X147130931Y-75911791D01*
X147132766Y-75911660D01*
X147139380Y-75907409D01*
X149537124Y-73509664D01*
X149544264Y-73496588D01*
X149536807Y-73486220D01*
X149300160Y-73294587D01*
X149294805Y-73290696D01*
X149046850Y-73129672D01*
X149000614Y-73075796D01*
X148990844Y-73005475D01*
X149020644Y-72941035D01*
X149080553Y-72902936D01*
X149115475Y-72898000D01*
X155829001Y-72898000D01*
X175344128Y-72897999D01*
X175412248Y-72918001D01*
X175458741Y-72971657D01*
X175468845Y-73041931D01*
X175439351Y-73106511D01*
X175412751Y-73129672D01*
X175164791Y-73290699D01*
X175159440Y-73294587D01*
X174923745Y-73485450D01*
X174915277Y-73497708D01*
X174921610Y-73508798D01*
X177316990Y-75904179D01*
X177330931Y-75911791D01*
X177332766Y-75911660D01*
X177339380Y-75907409D01*
X179737124Y-73509664D01*
X179744264Y-73496588D01*
X179736807Y-73486220D01*
X179500160Y-73294587D01*
X179494809Y-73290699D01*
X179246849Y-73129672D01*
X179200612Y-73075795D01*
X179190842Y-73005474D01*
X179220642Y-72941034D01*
X179280550Y-72902935D01*
X179315473Y-72897999D01*
X180574749Y-72897999D01*
X180626814Y-72909259D01*
X180646082Y-72918002D01*
X181406437Y-73263027D01*
X181449195Y-73294793D01*
X181951794Y-73869192D01*
X182535675Y-74536485D01*
X182558799Y-74575139D01*
X182871949Y-75408572D01*
X182880000Y-75452890D01*
X182880000Y-77706936D01*
X182870409Y-77755154D01*
X182536037Y-78562399D01*
X182508723Y-78603276D01*
X181473277Y-79638722D01*
X181432400Y-79666036D01*
X180949483Y-79866067D01*
X180669630Y-79981986D01*
X180625155Y-80000408D01*
X180576937Y-80009999D01*
X178559899Y-80009999D01*
X178491778Y-79989997D01*
X178445285Y-79936341D01*
X178435181Y-79866067D01*
X178464675Y-79801487D01*
X178514745Y-79766368D01*
X178826782Y-79646588D01*
X178832807Y-79643906D01*
X179170886Y-79471646D01*
X179176596Y-79468349D01*
X179494809Y-79261699D01*
X179500160Y-79257811D01*
X179735855Y-79066948D01*
X179744323Y-79054690D01*
X179737990Y-79043600D01*
X177342610Y-76648219D01*
X177328669Y-76640607D01*
X177326834Y-76640738D01*
X177320220Y-76644989D01*
X174922476Y-79042734D01*
X174915336Y-79055810D01*
X174922793Y-79066178D01*
X175159440Y-79257811D01*
X175164791Y-79261699D01*
X175483004Y-79468349D01*
X175488714Y-79471646D01*
X175826793Y-79643906D01*
X175832818Y-79646588D01*
X176144855Y-79766368D01*
X176201283Y-79809454D01*
X176225460Y-79876207D01*
X176209709Y-79945434D01*
X176159031Y-79995156D01*
X176099701Y-80009999D01*
X160958012Y-80009999D01*
X160919599Y-80004001D01*
X160875850Y-79989997D01*
X160853170Y-79982737D01*
X160848563Y-79981987D01*
X160848560Y-79981986D01*
X160592474Y-79940280D01*
X160592475Y-79940280D01*
X160587863Y-79939529D01*
X160457519Y-79937823D01*
X160323761Y-79936072D01*
X160323758Y-79936072D01*
X160319084Y-79936011D01*
X160052737Y-79972259D01*
X160048251Y-79973567D01*
X160048249Y-79973567D01*
X159940527Y-80004965D01*
X159905269Y-80009999D01*
X148359899Y-80009999D01*
X148291778Y-79989997D01*
X148245285Y-79936341D01*
X148235181Y-79866067D01*
X148264675Y-79801487D01*
X148314745Y-79766368D01*
X148626782Y-79646588D01*
X148632807Y-79643906D01*
X148970886Y-79471646D01*
X148976596Y-79468349D01*
X149294809Y-79261699D01*
X149300160Y-79257811D01*
X149535855Y-79066948D01*
X149544323Y-79054690D01*
X149537990Y-79043600D01*
X147142610Y-76648219D01*
X147128669Y-76640607D01*
X147126834Y-76640738D01*
X147120220Y-76644989D01*
X144722476Y-79042734D01*
X144715336Y-79055810D01*
X144722793Y-79066178D01*
X144959440Y-79257811D01*
X144964791Y-79261699D01*
X145283004Y-79468349D01*
X145288714Y-79471646D01*
X145626793Y-79643906D01*
X145632818Y-79646588D01*
X145944855Y-79766368D01*
X146001283Y-79809454D01*
X146025460Y-79876207D01*
X146009709Y-79945434D01*
X145959031Y-79995156D01*
X145899701Y-80009999D01*
X128778000Y-80009999D01*
X127000000Y-77977999D01*
X127000000Y-76279500D01*
X143441919Y-76279500D01*
X143461778Y-76658416D01*
X143462464Y-76664954D01*
X143521823Y-77039728D01*
X143523194Y-77046178D01*
X143621397Y-77412678D01*
X143623438Y-77418960D01*
X143759411Y-77773181D01*
X143762093Y-77779206D01*
X143934353Y-78117285D01*
X143937650Y-78122995D01*
X144144300Y-78441208D01*
X144148188Y-78446559D01*
X144339051Y-78682254D01*
X144351309Y-78690722D01*
X144362399Y-78684389D01*
X146757780Y-76289009D01*
X146764157Y-76277330D01*
X147494208Y-76277330D01*
X147494339Y-76279165D01*
X147498590Y-76285779D01*
X149896335Y-78683523D01*
X149909411Y-78690663D01*
X149919779Y-78683206D01*
X150111412Y-78446559D01*
X150115300Y-78441208D01*
X150321950Y-78122995D01*
X150325247Y-78117285D01*
X150497507Y-77779206D01*
X150500189Y-77773181D01*
X150636162Y-77418960D01*
X150638203Y-77412678D01*
X150736406Y-77046178D01*
X150737777Y-77039728D01*
X150797136Y-76664954D01*
X150797822Y-76658416D01*
X150817681Y-76279500D01*
X173641919Y-76279500D01*
X173661778Y-76658416D01*
X173662464Y-76664954D01*
X173721823Y-77039728D01*
X173723194Y-77046178D01*
X173821397Y-77412678D01*
X173823438Y-77418960D01*
X173959411Y-77773181D01*
X173962093Y-77779206D01*
X174134353Y-78117285D01*
X174137650Y-78122995D01*
X174344300Y-78441208D01*
X174348188Y-78446559D01*
X174539051Y-78682254D01*
X174551309Y-78690722D01*
X174562399Y-78684389D01*
X176957780Y-76289009D01*
X176964157Y-76277330D01*
X177694208Y-76277330D01*
X177694339Y-76279165D01*
X177698590Y-76285779D01*
X180096335Y-78683523D01*
X180109411Y-78690663D01*
X180119779Y-78683206D01*
X180311412Y-78446559D01*
X180315300Y-78441208D01*
X180521950Y-78122995D01*
X180525247Y-78117285D01*
X180697507Y-77779206D01*
X180700189Y-77773181D01*
X180836162Y-77418960D01*
X180838203Y-77412678D01*
X180936406Y-77046178D01*
X180937777Y-77039728D01*
X180997136Y-76664954D01*
X180997822Y-76658416D01*
X181017681Y-76279500D01*
X181017681Y-76272898D01*
X180997822Y-75893982D01*
X180997136Y-75887444D01*
X180937777Y-75512670D01*
X180936406Y-75506220D01*
X180838203Y-75139720D01*
X180836162Y-75133438D01*
X180700189Y-74779217D01*
X180697507Y-74773192D01*
X180525247Y-74435113D01*
X180521950Y-74429403D01*
X180315300Y-74111190D01*
X180311412Y-74105839D01*
X180120549Y-73870144D01*
X180108291Y-73861676D01*
X180097201Y-73868009D01*
X177701820Y-76263389D01*
X177694208Y-76277330D01*
X176964157Y-76277330D01*
X176965392Y-76275068D01*
X176965261Y-76273233D01*
X176961010Y-76266619D01*
X174563265Y-73868875D01*
X174550189Y-73861735D01*
X174539821Y-73869192D01*
X174348188Y-74105839D01*
X174344300Y-74111190D01*
X174137650Y-74429403D01*
X174134353Y-74435113D01*
X173962093Y-74773192D01*
X173959411Y-74779217D01*
X173823438Y-75133438D01*
X173821397Y-75139720D01*
X173723194Y-75506220D01*
X173721823Y-75512670D01*
X173662464Y-75887444D01*
X173661778Y-75893982D01*
X173641919Y-76272898D01*
X173641919Y-76279500D01*
X150817681Y-76279500D01*
X150817681Y-76272898D01*
X150797822Y-75893982D01*
X150797136Y-75887444D01*
X150737777Y-75512670D01*
X150736406Y-75506220D01*
X150638203Y-75139720D01*
X150636162Y-75133438D01*
X150500189Y-74779217D01*
X150497507Y-74773192D01*
X150325247Y-74435113D01*
X150321950Y-74429403D01*
X150115300Y-74111190D01*
X150111412Y-74105839D01*
X149920549Y-73870144D01*
X149908291Y-73861676D01*
X149897201Y-73868009D01*
X147501820Y-76263389D01*
X147494208Y-76277330D01*
X146764157Y-76277330D01*
X146765392Y-76275068D01*
X146765261Y-76273233D01*
X146761010Y-76266619D01*
X144363265Y-73868875D01*
X144350189Y-73861735D01*
X144339821Y-73869192D01*
X144148188Y-74105839D01*
X144144300Y-74111190D01*
X143937650Y-74429403D01*
X143934353Y-74435113D01*
X143762093Y-74773192D01*
X143759411Y-74779217D01*
X143623438Y-75133438D01*
X143621397Y-75139720D01*
X143523194Y-75506220D01*
X143521823Y-75512670D01*
X143462464Y-75887444D01*
X143461778Y-75893982D01*
X143441919Y-76272898D01*
X143441919Y-76279500D01*
X127000000Y-76279500D01*
X127000000Y-67960559D01*
X127021207Y-67947436D01*
X127032608Y-67938400D01*
X127147139Y-67823670D01*
X127156151Y-67812259D01*
X127241216Y-67674256D01*
X127247363Y-67661075D01*
X127298538Y-67506789D01*
X127301405Y-67493413D01*
X127311072Y-67399061D01*
X127311400Y-67392645D01*
X127311400Y-67363694D01*
X127620801Y-67363694D01*
X127621138Y-67370213D01*
X127631057Y-67465805D01*
X127633949Y-67479199D01*
X127685388Y-67633383D01*
X127691561Y-67646561D01*
X127776863Y-67784406D01*
X127785899Y-67795807D01*
X127900629Y-67910338D01*
X127912040Y-67919350D01*
X128050043Y-68004415D01*
X128063224Y-68010562D01*
X128217510Y-68061737D01*
X128230886Y-68064604D01*
X128325238Y-68074271D01*
X128331654Y-68074599D01*
X128556685Y-68074599D01*
X128571924Y-68070124D01*
X128573129Y-68068734D01*
X128574800Y-68061051D01*
X128574800Y-67326214D01*
X128570325Y-67310975D01*
X128568935Y-67309770D01*
X128561252Y-67308099D01*
X127638916Y-67308099D01*
X127623677Y-67312574D01*
X127622472Y-67313964D01*
X127620801Y-67321647D01*
X127620801Y-67363694D01*
X127311400Y-67363694D01*
X127311400Y-66830114D01*
X127306925Y-66814875D01*
X127305535Y-66813670D01*
X127297852Y-66811999D01*
X127000000Y-66811999D01*
X127000000Y-66303999D01*
X127293284Y-66303999D01*
X127308524Y-66299524D01*
X127311357Y-66296255D01*
X127314867Y-66293999D01*
X127571936Y-66293999D01*
X127640057Y-66314001D01*
G37*
%TD.AperFunction*%
%TD*%
%TA.AperFunction,Conductor*%
%TO.N,VOUT1*%
G36*
X132588000Y-108965999D02*
G01*
X130556000Y-108965999D01*
X130556000Y-106933999D01*
X132588000Y-108965999D01*
G37*
%TD.AperFunction*%
%TD*%
%TA.AperFunction,Conductor*%
%TO.N,VOUT1*%
G36*
X144570622Y-108986001D02*
G01*
X144617115Y-109039657D01*
X144627219Y-109109931D01*
X144597725Y-109174511D01*
X144571125Y-109197672D01*
X144300991Y-109373099D01*
X144295640Y-109376987D01*
X144175841Y-109473999D01*
X141478000Y-109473999D01*
X141932526Y-108965999D01*
X144502501Y-108965999D01*
X144570622Y-108986001D01*
G37*
%TD.AperFunction*%
%TA.AperFunction,Conductor*%
G36*
X151384000Y-109473999D02*
G01*
X148756160Y-109473999D01*
X148636360Y-109376987D01*
X148631009Y-109373099D01*
X148360875Y-109197672D01*
X148314638Y-109143795D01*
X148304868Y-109073474D01*
X148334668Y-109009034D01*
X148394577Y-108970935D01*
X148429499Y-108965999D01*
X150929474Y-108965999D01*
X151384000Y-109473999D01*
G37*
%TD.AperFunction*%
%TD*%
%TA.AperFunction,Conductor*%
%TO.N,VIN*%
G36*
X126589549Y-125993590D02*
G01*
X126824783Y-126091027D01*
X126880063Y-126135574D01*
X126892973Y-126159217D01*
X126954681Y-126308195D01*
X126962270Y-126378785D01*
X126930490Y-126442272D01*
X126869432Y-126478499D01*
X126798481Y-126475965D01*
X126772156Y-126463673D01*
X126630057Y-126376083D01*
X126616876Y-126369936D01*
X126462590Y-126318761D01*
X126449214Y-126315894D01*
X126354862Y-126306227D01*
X126348445Y-126305899D01*
X125648415Y-126305899D01*
X125633176Y-126310374D01*
X125631971Y-126311764D01*
X125630300Y-126319447D01*
X125630300Y-127579284D01*
X125634775Y-127594523D01*
X125636165Y-127595728D01*
X125643848Y-127597399D01*
X127041184Y-127597399D01*
X127056423Y-127592924D01*
X127057628Y-127591534D01*
X127059299Y-127583851D01*
X127059299Y-127541529D01*
X127079301Y-127473408D01*
X127132957Y-127426915D01*
X127167893Y-127421892D01*
X127254000Y-127507999D01*
X127434670Y-127507999D01*
X127490619Y-127537266D01*
X127525751Y-127598961D01*
X127521951Y-127669856D01*
X127510388Y-127694053D01*
X127489684Y-127727642D01*
X127483537Y-127740823D01*
X127432362Y-127895109D01*
X127429495Y-127908485D01*
X127419828Y-128002837D01*
X127419500Y-128009254D01*
X127419500Y-128046784D01*
X127423975Y-128062023D01*
X127425365Y-128063228D01*
X127433048Y-128064899D01*
X128755500Y-128064899D01*
X128823621Y-128084901D01*
X128870114Y-128138557D01*
X128881500Y-128190899D01*
X128881500Y-129321283D01*
X128885975Y-129336522D01*
X128887365Y-129337727D01*
X128895048Y-129339398D01*
X129124595Y-129339398D01*
X129131114Y-129339061D01*
X129226706Y-129329142D01*
X129240100Y-129326250D01*
X129394284Y-129274811D01*
X129407462Y-129268638D01*
X129545307Y-129183336D01*
X129556709Y-129174299D01*
X129578828Y-129152142D01*
X129641111Y-129118064D01*
X129711931Y-129123067D01*
X129768803Y-129165565D01*
X129793671Y-129232064D01*
X129794000Y-129241161D01*
X129794000Y-130047999D01*
X114554000Y-130047999D01*
X114045030Y-129539029D01*
X114691200Y-129539029D01*
X114696927Y-129546679D01*
X114881672Y-129659892D01*
X114890467Y-129664374D01*
X115107890Y-129754433D01*
X115117275Y-129757482D01*
X115346108Y-129812421D01*
X115355855Y-129813964D01*
X115590470Y-129832429D01*
X115600330Y-129832429D01*
X115834945Y-129813964D01*
X115844692Y-129812421D01*
X116073525Y-129757482D01*
X116082910Y-129754433D01*
X116300333Y-129664374D01*
X116309128Y-129659892D01*
X116490205Y-129548927D01*
X116499667Y-129538469D01*
X116495884Y-129529693D01*
X115608212Y-128642021D01*
X115594268Y-128634407D01*
X115592435Y-128634538D01*
X115585820Y-128638789D01*
X114697960Y-129526649D01*
X114691200Y-129539029D01*
X114045030Y-129539029D01*
X113909277Y-129403276D01*
X113881963Y-129362399D01*
X113580419Y-128634407D01*
X113547591Y-128555153D01*
X113538000Y-128506936D01*
X113538000Y-128274929D01*
X114032970Y-128274929D01*
X114051435Y-128509544D01*
X114052978Y-128519291D01*
X114107917Y-128748124D01*
X114110966Y-128757509D01*
X114201025Y-128974932D01*
X114205507Y-128983727D01*
X114316472Y-129164804D01*
X114326930Y-129174266D01*
X114335706Y-129170483D01*
X115223378Y-128282811D01*
X115229756Y-128271131D01*
X115959808Y-128271131D01*
X115959939Y-128272964D01*
X115964190Y-128279579D01*
X116852050Y-129167439D01*
X116864430Y-129174199D01*
X116872080Y-129168472D01*
X116985293Y-128983727D01*
X116989775Y-128974932D01*
X117079834Y-128757509D01*
X117082883Y-128748124D01*
X117097799Y-128685994D01*
X123693301Y-128685994D01*
X123693638Y-128692513D01*
X123703557Y-128788105D01*
X123706449Y-128801499D01*
X123757888Y-128955683D01*
X123764061Y-128968861D01*
X123849363Y-129106706D01*
X123858399Y-129118107D01*
X123973129Y-129232638D01*
X123984540Y-129241650D01*
X124122543Y-129326715D01*
X124135724Y-129332862D01*
X124290010Y-129384037D01*
X124303386Y-129386904D01*
X124397738Y-129396571D01*
X124404154Y-129396899D01*
X125104185Y-129396899D01*
X125119424Y-129392424D01*
X125120629Y-129391034D01*
X125122300Y-129383351D01*
X125122300Y-129378783D01*
X125630300Y-129378783D01*
X125634775Y-129394022D01*
X125636165Y-129395227D01*
X125643848Y-129396898D01*
X126348395Y-129396898D01*
X126354914Y-129396561D01*
X126450506Y-129386642D01*
X126463900Y-129383750D01*
X126618084Y-129332311D01*
X126631262Y-129326138D01*
X126769107Y-129240836D01*
X126780508Y-129231800D01*
X126895039Y-129117070D01*
X126904051Y-129105659D01*
X126989116Y-128967656D01*
X126995263Y-128954475D01*
X127046438Y-128800189D01*
X127049305Y-128786813D01*
X127058972Y-128692461D01*
X127059300Y-128686045D01*
X127059300Y-128628494D01*
X127419501Y-128628494D01*
X127419838Y-128635013D01*
X127429757Y-128730605D01*
X127432649Y-128743999D01*
X127484088Y-128898183D01*
X127490261Y-128911361D01*
X127575563Y-129049206D01*
X127584599Y-129060607D01*
X127699329Y-129175138D01*
X127710740Y-129184150D01*
X127848743Y-129269215D01*
X127861924Y-129275362D01*
X128016210Y-129326537D01*
X128029586Y-129329404D01*
X128123938Y-129339071D01*
X128130354Y-129339399D01*
X128355385Y-129339399D01*
X128370624Y-129334924D01*
X128371829Y-129333534D01*
X128373500Y-129325851D01*
X128373500Y-128591014D01*
X128369025Y-128575775D01*
X128367635Y-128574570D01*
X128359952Y-128572899D01*
X127437616Y-128572899D01*
X127422377Y-128577374D01*
X127421172Y-128578764D01*
X127419501Y-128586447D01*
X127419501Y-128628494D01*
X127059300Y-128628494D01*
X127059300Y-128123514D01*
X127054825Y-128108275D01*
X127053435Y-128107070D01*
X127045752Y-128105399D01*
X125648415Y-128105399D01*
X125633176Y-128109874D01*
X125631971Y-128111264D01*
X125630300Y-128118947D01*
X125630300Y-129378783D01*
X125122300Y-129378783D01*
X125122300Y-128123514D01*
X125117825Y-128108275D01*
X125116435Y-128107070D01*
X125108752Y-128105399D01*
X123711416Y-128105399D01*
X123696177Y-128109874D01*
X123694972Y-128111264D01*
X123693301Y-128118947D01*
X123693301Y-128685994D01*
X117097799Y-128685994D01*
X117137822Y-128519291D01*
X117139365Y-128509544D01*
X117157830Y-128274929D01*
X117157830Y-128265069D01*
X117139365Y-128030454D01*
X117137822Y-128020707D01*
X117082883Y-127791874D01*
X117079834Y-127782489D01*
X116995664Y-127579284D01*
X123693300Y-127579284D01*
X123697775Y-127594523D01*
X123699165Y-127595728D01*
X123706848Y-127597399D01*
X125104185Y-127597399D01*
X125119424Y-127592924D01*
X125120629Y-127591534D01*
X125122300Y-127583851D01*
X125122300Y-126324015D01*
X125117825Y-126308776D01*
X125116435Y-126307571D01*
X125108752Y-126305900D01*
X124404205Y-126305900D01*
X124397686Y-126306237D01*
X124302094Y-126316156D01*
X124288700Y-126319048D01*
X124134516Y-126370487D01*
X124121338Y-126376660D01*
X123983493Y-126461962D01*
X123972092Y-126470998D01*
X123857561Y-126585728D01*
X123848549Y-126597139D01*
X123763484Y-126735142D01*
X123757337Y-126748323D01*
X123706162Y-126902609D01*
X123703295Y-126915985D01*
X123693628Y-127010337D01*
X123693300Y-127016754D01*
X123693300Y-127579284D01*
X116995664Y-127579284D01*
X116989775Y-127565066D01*
X116985293Y-127556271D01*
X116874328Y-127375194D01*
X116863870Y-127365732D01*
X116855094Y-127369515D01*
X115967422Y-128257187D01*
X115959808Y-128271131D01*
X115229756Y-128271131D01*
X115230992Y-128268867D01*
X115230861Y-128267034D01*
X115226610Y-128260419D01*
X114338750Y-127372559D01*
X114326370Y-127365799D01*
X114318720Y-127371526D01*
X114205507Y-127556271D01*
X114201025Y-127565066D01*
X114110966Y-127782489D01*
X114107917Y-127791874D01*
X114052978Y-128020707D01*
X114051435Y-128030454D01*
X114032970Y-128265069D01*
X114032970Y-128274929D01*
X113538000Y-128274929D01*
X113538000Y-127779062D01*
X113547591Y-127730844D01*
X113849683Y-127001529D01*
X114691133Y-127001529D01*
X114694916Y-127010305D01*
X115582588Y-127897977D01*
X115596532Y-127905591D01*
X115598365Y-127905460D01*
X115604980Y-127901209D01*
X116492840Y-127013349D01*
X116499600Y-127000969D01*
X116493873Y-126993319D01*
X116309128Y-126880106D01*
X116300333Y-126875624D01*
X116082910Y-126785565D01*
X116073525Y-126782516D01*
X115844692Y-126727577D01*
X115834945Y-126726034D01*
X115600330Y-126707569D01*
X115590470Y-126707569D01*
X115355855Y-126726034D01*
X115346108Y-126727577D01*
X115117275Y-126782516D01*
X115107890Y-126785565D01*
X114890467Y-126875624D01*
X114881672Y-126880106D01*
X114700595Y-126991071D01*
X114691133Y-127001529D01*
X113849683Y-127001529D01*
X113881963Y-126923599D01*
X113909277Y-126882722D01*
X114436723Y-126355276D01*
X114477600Y-126327962D01*
X115284845Y-125993590D01*
X115333063Y-125983999D01*
X126541332Y-125983999D01*
X126589549Y-125993590D01*
G37*
%TD.AperFunction*%
%TD*%
%TA.AperFunction,Conductor*%
%TO.N,VOUT1*%
G36*
X128524000Y-110235999D02*
G01*
X128524000Y-112267999D01*
X112919215Y-112267999D01*
X112851094Y-112247997D01*
X112804601Y-112194341D01*
X112794497Y-112124067D01*
X112820333Y-112063907D01*
X112918145Y-111940055D01*
X112923850Y-111931468D01*
X113034914Y-111730277D01*
X113039144Y-111720865D01*
X113115859Y-111504231D01*
X113118493Y-111494260D01*
X113135847Y-111396836D01*
X113134387Y-111383539D01*
X113119830Y-111378999D01*
X111525200Y-111378999D01*
X111457079Y-111358997D01*
X111410586Y-111305341D01*
X111399200Y-111252999D01*
X111399200Y-110996999D01*
X111419202Y-110928878D01*
X111472858Y-110882385D01*
X111525200Y-110870999D01*
X113121296Y-110870999D01*
X113134640Y-110867081D01*
X113136627Y-110852805D01*
X113127090Y-110790484D01*
X113124701Y-110780456D01*
X113053302Y-110562011D01*
X113049305Y-110552502D01*
X112943189Y-110348655D01*
X112937700Y-110339938D01*
X112824298Y-110188900D01*
X112799393Y-110122415D01*
X112814386Y-110053019D01*
X112864516Y-110002746D01*
X112880825Y-109995267D01*
X112899905Y-109988114D01*
X113016461Y-109900760D01*
X113103815Y-109784204D01*
X113105398Y-109785391D01*
X113147538Y-109743344D01*
X113207800Y-109727999D01*
X127762000Y-109727999D01*
X128524000Y-110235999D01*
G37*
%TD.AperFunction*%
%TD*%
%TA.AperFunction,Conductor*%
%TO.N,GND*%
G36*
X124288544Y-121178001D02*
G01*
X124335037Y-121231657D01*
X124345141Y-121301931D01*
X124315647Y-121366511D01*
X124260299Y-121403523D01*
X124134516Y-121445487D01*
X124121338Y-121451660D01*
X123983493Y-121536962D01*
X123972092Y-121545998D01*
X123857561Y-121660728D01*
X123848549Y-121672139D01*
X123763484Y-121810142D01*
X123757337Y-121823323D01*
X123706162Y-121977609D01*
X123703295Y-121990985D01*
X123693628Y-122085337D01*
X123693300Y-122091754D01*
X123693300Y-122654284D01*
X123697775Y-122669523D01*
X123699165Y-122670728D01*
X123706848Y-122672399D01*
X127041184Y-122672399D01*
X127056423Y-122667924D01*
X127057628Y-122666534D01*
X127059299Y-122658851D01*
X127059299Y-122091804D01*
X127058962Y-122085285D01*
X127049043Y-121989693D01*
X127046151Y-121976299D01*
X126994712Y-121822115D01*
X126988539Y-121808937D01*
X126903237Y-121671092D01*
X126894201Y-121659691D01*
X126779471Y-121545160D01*
X126768060Y-121536148D01*
X126630057Y-121451083D01*
X126616876Y-121444936D01*
X126492229Y-121403592D01*
X126433870Y-121363161D01*
X126406633Y-121297597D01*
X126419167Y-121227715D01*
X126467492Y-121175703D01*
X126531897Y-121157999D01*
X127082810Y-121157999D01*
X127150931Y-121178001D01*
X127171905Y-121194904D01*
X127598095Y-121621094D01*
X127632121Y-121683406D01*
X127635000Y-121710189D01*
X127635000Y-124288809D01*
X127614998Y-124356930D01*
X127598095Y-124377904D01*
X127171905Y-124804094D01*
X127109593Y-124838120D01*
X127082810Y-124840999D01*
X116314230Y-124840999D01*
X116246109Y-124820997D01*
X116199616Y-124767341D01*
X116189512Y-124697067D01*
X116219006Y-124632487D01*
X116266012Y-124598590D01*
X116300333Y-124584374D01*
X116309128Y-124579892D01*
X116490205Y-124468927D01*
X116499667Y-124458469D01*
X116495884Y-124449693D01*
X115608212Y-123562021D01*
X115594268Y-123554407D01*
X115592435Y-123554538D01*
X115585820Y-123558789D01*
X114697960Y-124446649D01*
X114691200Y-124459029D01*
X114696927Y-124466679D01*
X114881672Y-124579892D01*
X114890467Y-124584374D01*
X114924788Y-124598590D01*
X114980069Y-124643138D01*
X115002490Y-124710502D01*
X114984932Y-124779293D01*
X114932970Y-124827671D01*
X114876570Y-124840999D01*
X114344190Y-124840999D01*
X114276069Y-124820997D01*
X114255095Y-124804094D01*
X113828905Y-124377904D01*
X113794879Y-124315592D01*
X113792000Y-124288809D01*
X113792000Y-123340034D01*
X113812002Y-123271913D01*
X113865658Y-123225420D01*
X113935932Y-123215316D01*
X114000512Y-123244810D01*
X114038896Y-123304536D01*
X114043612Y-123330148D01*
X114051435Y-123429544D01*
X114052978Y-123439291D01*
X114107917Y-123668124D01*
X114110966Y-123677509D01*
X114201025Y-123894932D01*
X114205507Y-123903727D01*
X114316472Y-124084804D01*
X114326930Y-124094266D01*
X114335706Y-124090483D01*
X115223378Y-123202811D01*
X115229756Y-123191131D01*
X115959808Y-123191131D01*
X115959939Y-123192964D01*
X115964190Y-123199579D01*
X116852050Y-124087439D01*
X116864430Y-124094199D01*
X116872080Y-124088472D01*
X116985293Y-123903727D01*
X116989775Y-123894932D01*
X117045254Y-123760994D01*
X123693301Y-123760994D01*
X123693638Y-123767513D01*
X123703557Y-123863105D01*
X123706449Y-123876499D01*
X123757888Y-124030683D01*
X123764061Y-124043861D01*
X123849363Y-124181706D01*
X123858399Y-124193107D01*
X123973129Y-124307638D01*
X123984540Y-124316650D01*
X124122543Y-124401715D01*
X124135724Y-124407862D01*
X124290010Y-124459037D01*
X124303386Y-124461904D01*
X124397738Y-124471571D01*
X124404154Y-124471899D01*
X125104185Y-124471899D01*
X125119424Y-124467424D01*
X125120629Y-124466034D01*
X125122300Y-124458351D01*
X125122300Y-124453783D01*
X125630300Y-124453783D01*
X125634775Y-124469022D01*
X125636165Y-124470227D01*
X125643848Y-124471898D01*
X126348395Y-124471898D01*
X126354914Y-124471561D01*
X126450506Y-124461642D01*
X126463900Y-124458750D01*
X126618084Y-124407311D01*
X126631262Y-124401138D01*
X126769107Y-124315836D01*
X126780508Y-124306800D01*
X126895039Y-124192070D01*
X126904051Y-124180659D01*
X126989116Y-124042656D01*
X126995263Y-124029475D01*
X127046438Y-123875189D01*
X127049305Y-123861813D01*
X127058972Y-123767461D01*
X127059300Y-123761045D01*
X127059300Y-123198514D01*
X127054825Y-123183275D01*
X127053435Y-123182070D01*
X127045752Y-123180399D01*
X125648415Y-123180399D01*
X125633176Y-123184874D01*
X125631971Y-123186264D01*
X125630300Y-123193947D01*
X125630300Y-124453783D01*
X125122300Y-124453783D01*
X125122300Y-123198514D01*
X125117825Y-123183275D01*
X125116435Y-123182070D01*
X125108752Y-123180399D01*
X123711416Y-123180399D01*
X123696177Y-123184874D01*
X123694972Y-123186264D01*
X123693301Y-123193947D01*
X123693301Y-123760994D01*
X117045254Y-123760994D01*
X117079834Y-123677509D01*
X117082883Y-123668124D01*
X117137822Y-123439291D01*
X117139365Y-123429544D01*
X117157830Y-123194929D01*
X117157830Y-123185069D01*
X117139365Y-122950454D01*
X117137822Y-122940707D01*
X117082883Y-122711874D01*
X117079834Y-122702489D01*
X116989775Y-122485066D01*
X116985293Y-122476271D01*
X116874328Y-122295194D01*
X116863870Y-122285732D01*
X116855094Y-122289515D01*
X115967422Y-123177187D01*
X115959808Y-123191131D01*
X115229756Y-123191131D01*
X115230992Y-123188867D01*
X115230861Y-123187034D01*
X115226610Y-123180419D01*
X114338750Y-122292559D01*
X114326370Y-122285799D01*
X114318720Y-122291526D01*
X114205507Y-122476271D01*
X114201025Y-122485066D01*
X114110966Y-122702489D01*
X114107917Y-122711874D01*
X114052978Y-122940707D01*
X114051435Y-122950454D01*
X114043612Y-123049850D01*
X114018326Y-123116191D01*
X113961188Y-123158331D01*
X113890338Y-123162890D01*
X113828271Y-123128421D01*
X113794691Y-123065867D01*
X113792000Y-123039964D01*
X113792000Y-121921529D01*
X114691133Y-121921529D01*
X114694916Y-121930305D01*
X115582588Y-122817977D01*
X115596532Y-122825591D01*
X115598365Y-122825460D01*
X115604980Y-122821209D01*
X116492840Y-121933349D01*
X116499600Y-121920969D01*
X116493873Y-121913319D01*
X116309128Y-121800106D01*
X116300333Y-121795624D01*
X116082910Y-121705565D01*
X116073525Y-121702516D01*
X115844692Y-121647577D01*
X115834945Y-121646034D01*
X115600330Y-121627569D01*
X115590470Y-121627569D01*
X115355855Y-121646034D01*
X115346108Y-121647577D01*
X115117275Y-121702516D01*
X115107890Y-121705565D01*
X114890467Y-121795624D01*
X114881672Y-121800106D01*
X114700595Y-121911071D01*
X114691133Y-121921529D01*
X113792000Y-121921529D01*
X113792000Y-121710189D01*
X113812002Y-121642068D01*
X113828905Y-121621094D01*
X114255095Y-121194904D01*
X114317407Y-121160878D01*
X114344190Y-121157999D01*
X124220423Y-121157999D01*
X124288544Y-121178001D01*
G37*
%TD.AperFunction*%
%TD*%
%TA.AperFunction,Conductor*%
%TO.N,VOUT1*%
G36*
X126746000Y-109981999D02*
G01*
X125476000Y-109981999D01*
X125476000Y-109727999D01*
X126492000Y-108711999D01*
X126746000Y-108711999D01*
X126746000Y-109981999D01*
G37*
%TD.AperFunction*%
%TD*%
%TA.AperFunction,Conductor*%
%TO.N,VOUT1*%
G36*
X130556000Y-108965999D02*
G01*
X144502501Y-108965999D01*
X144570622Y-108986001D01*
X144617115Y-109039657D01*
X144627219Y-109109931D01*
X144597725Y-109174511D01*
X144571125Y-109197672D01*
X144300991Y-109373099D01*
X144295640Y-109376987D01*
X144059945Y-109567850D01*
X144051477Y-109580108D01*
X144057810Y-109591198D01*
X146453190Y-111986579D01*
X146467131Y-111994191D01*
X146468966Y-111994060D01*
X146475580Y-111989809D01*
X148873324Y-109592064D01*
X148880464Y-109578988D01*
X148873007Y-109568620D01*
X148636360Y-109376987D01*
X148631009Y-109373099D01*
X148360875Y-109197672D01*
X148314638Y-109143795D01*
X148304868Y-109073474D01*
X148334668Y-109009034D01*
X148394577Y-108970935D01*
X148429499Y-108965999D01*
X174702501Y-108965999D01*
X174770622Y-108986001D01*
X174817115Y-109039657D01*
X174827219Y-109109931D01*
X174797725Y-109174511D01*
X174771125Y-109197672D01*
X174500991Y-109373099D01*
X174495640Y-109376987D01*
X174259945Y-109567850D01*
X174251477Y-109580108D01*
X174257810Y-109591198D01*
X176653190Y-111986579D01*
X176667131Y-111994191D01*
X176668966Y-111994060D01*
X176675580Y-111989809D01*
X179073324Y-109592064D01*
X179080464Y-109578988D01*
X179073007Y-109568620D01*
X178836360Y-109376987D01*
X178831009Y-109373099D01*
X178560875Y-109197672D01*
X178514638Y-109143795D01*
X178504868Y-109073474D01*
X178534668Y-109009034D01*
X178594577Y-108970935D01*
X178629499Y-108965999D01*
X180830937Y-108965999D01*
X180879155Y-108975590D01*
X181686400Y-109309962D01*
X181727277Y-109337276D01*
X182254723Y-109864722D01*
X182282037Y-109905599D01*
X182616409Y-110712844D01*
X182626000Y-110761062D01*
X182626000Y-113759324D01*
X182602216Y-113832997D01*
X182333807Y-114205395D01*
X182175441Y-114425116D01*
X182113071Y-114470975D01*
X181717882Y-114602705D01*
X181585978Y-114646673D01*
X181566316Y-114651512D01*
X180612026Y-114806372D01*
X180591843Y-114807999D01*
X179685814Y-114807999D01*
X179617693Y-114787997D01*
X179571200Y-114734341D01*
X179561096Y-114664067D01*
X179587893Y-114602705D01*
X179647621Y-114528947D01*
X179651500Y-114523608D01*
X179858150Y-114205395D01*
X179861447Y-114199685D01*
X180033707Y-113861606D01*
X180036389Y-113855581D01*
X180172362Y-113501360D01*
X180174403Y-113495078D01*
X180272606Y-113128578D01*
X180273977Y-113122128D01*
X180333336Y-112747354D01*
X180334022Y-112740816D01*
X180353881Y-112361900D01*
X180353881Y-112355298D01*
X180334022Y-111976382D01*
X180333336Y-111969844D01*
X180273977Y-111595070D01*
X180272606Y-111588620D01*
X180174403Y-111222120D01*
X180172362Y-111215838D01*
X180036389Y-110861617D01*
X180033707Y-110855592D01*
X179861447Y-110517513D01*
X179858150Y-110511803D01*
X179651500Y-110193590D01*
X179647612Y-110188239D01*
X179456749Y-109952544D01*
X179444491Y-109944076D01*
X179433401Y-109950409D01*
X176755095Y-112628714D01*
X176692783Y-112662740D01*
X176621967Y-112657675D01*
X176576905Y-112628714D01*
X173899465Y-109951275D01*
X173886389Y-109944135D01*
X173876021Y-109951592D01*
X173684388Y-110188239D01*
X173680500Y-110193590D01*
X173473850Y-110511803D01*
X173470553Y-110517513D01*
X173298293Y-110855592D01*
X173295611Y-110861617D01*
X173159638Y-111215838D01*
X173157597Y-111222120D01*
X173059394Y-111588620D01*
X173058023Y-111595070D01*
X172998664Y-111969844D01*
X172997978Y-111976382D01*
X172978119Y-112355298D01*
X172978119Y-112361900D01*
X172997978Y-112740816D01*
X172998664Y-112747354D01*
X173058023Y-113122128D01*
X173059394Y-113128578D01*
X173157597Y-113495078D01*
X173159638Y-113501360D01*
X173295611Y-113855581D01*
X173298293Y-113861606D01*
X173470553Y-114199685D01*
X173473850Y-114205395D01*
X173680500Y-114523608D01*
X173684379Y-114528947D01*
X173744107Y-114602705D01*
X173771432Y-114668232D01*
X173758992Y-114738131D01*
X173710737Y-114790208D01*
X173646186Y-114807999D01*
X149485814Y-114807999D01*
X149417693Y-114787997D01*
X149371200Y-114734341D01*
X149361096Y-114664067D01*
X149387893Y-114602705D01*
X149447621Y-114528947D01*
X149451500Y-114523608D01*
X149658150Y-114205395D01*
X149661447Y-114199685D01*
X149833707Y-113861606D01*
X149836389Y-113855581D01*
X149972362Y-113501360D01*
X149974403Y-113495078D01*
X150072606Y-113128578D01*
X150073977Y-113122128D01*
X150133336Y-112747354D01*
X150134022Y-112740816D01*
X150153881Y-112361900D01*
X150153881Y-112355298D01*
X150134022Y-111976382D01*
X150133336Y-111969844D01*
X150073977Y-111595070D01*
X150072606Y-111588620D01*
X149974403Y-111222120D01*
X149972362Y-111215838D01*
X149836389Y-110861617D01*
X149833707Y-110855592D01*
X149661447Y-110517513D01*
X149658150Y-110511803D01*
X149451500Y-110193590D01*
X149447612Y-110188239D01*
X149256749Y-109952544D01*
X149244491Y-109944076D01*
X149233401Y-109950409D01*
X146555095Y-112628714D01*
X146492783Y-112662740D01*
X146421967Y-112657675D01*
X146376905Y-112628714D01*
X143699465Y-109951275D01*
X143686389Y-109944135D01*
X143676021Y-109951592D01*
X143484388Y-110188239D01*
X143480500Y-110193590D01*
X143273850Y-110511803D01*
X143270553Y-110517513D01*
X143098293Y-110855592D01*
X143095611Y-110861617D01*
X142959638Y-111215838D01*
X142957597Y-111222120D01*
X142859394Y-111588620D01*
X142858023Y-111595070D01*
X142798664Y-111969844D01*
X142797978Y-111976382D01*
X142778119Y-112355298D01*
X142778119Y-112361900D01*
X142797978Y-112740816D01*
X142798664Y-112747354D01*
X142858023Y-113122128D01*
X142859394Y-113128578D01*
X142957597Y-113495078D01*
X142959638Y-113501360D01*
X143095611Y-113855581D01*
X143098293Y-113861606D01*
X143270553Y-114199685D01*
X143273850Y-114205395D01*
X143480500Y-114523608D01*
X143484379Y-114528947D01*
X143544107Y-114602705D01*
X143571432Y-114668232D01*
X143558992Y-114738131D01*
X143510737Y-114790208D01*
X143446186Y-114807999D01*
X130569174Y-114807999D01*
X130527989Y-114801078D01*
X130496561Y-114790208D01*
X129674852Y-114506009D01*
X129638191Y-114486006D01*
X129273783Y-114199685D01*
X127417040Y-112740816D01*
X127216699Y-112583405D01*
X127216697Y-112583404D01*
X127208432Y-112576910D01*
X126492000Y-112013999D01*
X126492000Y-107142860D01*
X126512002Y-107074739D01*
X126519119Y-107064767D01*
X126520133Y-107063483D01*
X126525305Y-107058302D01*
X126618115Y-106907737D01*
X126673797Y-106739860D01*
X126684500Y-106635399D01*
X126684500Y-106009599D01*
X126673526Y-105903833D01*
X126617550Y-105736053D01*
X126524478Y-105585651D01*
X126499248Y-105560465D01*
X126492000Y-105553229D01*
X126492000Y-105265957D01*
X126519739Y-105238170D01*
X126528751Y-105226759D01*
X126613816Y-105088756D01*
X126619963Y-105075575D01*
X126671138Y-104921289D01*
X126674005Y-104907913D01*
X126683672Y-104813561D01*
X126684000Y-104807145D01*
X126684000Y-104769614D01*
X126679525Y-104754375D01*
X126678135Y-104753170D01*
X126670452Y-104751499D01*
X126492000Y-104751499D01*
X126492000Y-104243499D01*
X126665884Y-104243499D01*
X126681123Y-104239024D01*
X126682328Y-104237634D01*
X126683999Y-104229951D01*
X126683999Y-104187904D01*
X126683662Y-104181385D01*
X126673743Y-104085793D01*
X126670851Y-104072399D01*
X126619412Y-103918215D01*
X126613239Y-103905037D01*
X126527937Y-103767192D01*
X126518901Y-103755791D01*
X126492000Y-103728937D01*
X126492000Y-103631999D01*
X130556000Y-103631999D01*
X130556000Y-108965999D01*
G37*
%TD.AperFunction*%
%TD*%
M02*
