%TF.GenerationSoftware,KiCad,Pcbnew,(6.0.5)*%
%TF.CreationDate,2023-07-06T17:20:31+08:00*%
%TF.ProjectId,compare,636f6d70-6172-4652-9e6b-696361645f70,rev?*%
%TF.SameCoordinates,Original*%
%TF.FileFunction,Profile,NP*%
%FSLAX46Y46*%
G04 Gerber Fmt 4.6, Leading zero omitted, Abs format (unit mm)*
G04 Created by KiCad (PCBNEW (6.0.5)) date 2023-07-06 17:20:31*
%MOMM*%
%LPD*%
G01*
G04 APERTURE LIST*
%ADD10C,0.150000*%
%TA.AperFunction,Profile*%
%ADD11C,0.100000*%
%TD*%
G04 APERTURE END LIST*
D10*
X117110095Y-67016380D02*
X117443428Y-68016380D01*
X117776761Y-67016380D01*
X118300571Y-67016380D02*
X118491047Y-67016380D01*
X118586285Y-67064000D01*
X118681523Y-67159238D01*
X118729142Y-67349714D01*
X118729142Y-67683047D01*
X118681523Y-67873523D01*
X118586285Y-67968761D01*
X118491047Y-68016380D01*
X118300571Y-68016380D01*
X118205333Y-67968761D01*
X118110095Y-67873523D01*
X118062476Y-67683047D01*
X118062476Y-67349714D01*
X118110095Y-67159238D01*
X118205333Y-67064000D01*
X118300571Y-67016380D01*
X119157714Y-67016380D02*
X119157714Y-67825904D01*
X119205333Y-67921142D01*
X119252952Y-67968761D01*
X119348190Y-68016380D01*
X119538666Y-68016380D01*
X119633904Y-67968761D01*
X119681523Y-67921142D01*
X119729142Y-67825904D01*
X119729142Y-67016380D01*
X120062476Y-67016380D02*
X120633904Y-67016380D01*
X120348190Y-68016380D02*
X120348190Y-67016380D01*
D11*
X180415998Y-137413998D02*
G75*
G03*
X180415998Y-137413998I-1600000J0D01*
G01*
X116154002Y-137413998D02*
G75*
G03*
X116154002Y-137413998I-1600000J0D01*
G01*
X183896000Y-134366000D02*
X183896000Y-137414000D01*
X109474000Y-134366000D02*
X109474000Y-137414000D01*
X180416000Y-54102001D02*
G75*
G03*
X180416000Y-54102001I-1600000J0D01*
G01*
X116154000Y-54102001D02*
G75*
G03*
X116154000Y-54102001I-1600000J0D01*
G01*
X183896002Y-54101999D02*
X183896002Y-58419999D01*
X109474000Y-54102001D02*
X109474000Y-58420001D01*
X183896002Y-58419999D02*
X183896002Y-60959998D01*
X109474000Y-58420001D02*
X109474000Y-60960000D01*
X183896000Y-129540000D02*
X183896000Y-134366000D01*
X109474000Y-129540000D02*
X109474000Y-134366000D01*
X114554000Y-49022001D02*
X178816002Y-49021999D01*
X109474000Y-129540000D02*
X109474000Y-60960000D01*
X178816000Y-142494000D02*
X114554000Y-142494000D01*
X183896002Y-60959998D02*
X183896000Y-129540000D01*
X183896002Y-54101999D02*
G75*
G03*
X178816002Y-49021999I-5080002J-2D01*
G01*
X178816000Y-142494000D02*
G75*
G03*
X183896000Y-137414000I-2J5080002D01*
G01*
X109474000Y-137414000D02*
G75*
G03*
X114554000Y-142494000I5080002J2D01*
G01*
X114554000Y-49022001D02*
G75*
G03*
X109474000Y-54102001I0J-5080000D01*
G01*
M02*
